<svg xmlns="http://www.w3.org/2000/svg" width="372" height="295" viewBox="0 0 372 295" version="1.1"><path d="M 21 150 L 21 173 33 173 L 45 173 45 167 L 45 161 68 161 L 91 161 91 167.031 L 91 173.062 103.250 172.781 L 115.500 172.500 115.769 149.750 L 116.038 127 103.519 127 L 91 127 91 133 L 91 139 68 139 L 45 139 45 133 L 45 127 33 127 L 21 127 21 150 M 122.231 149.750 L 122.500 172.500 134.750 172.781 L 147 173.062 147 150.031 L 147 127 134.481 127 L 121.962 127 122.231 149.750 M 154 150 L 154 173 193 173 L 232 173 232 162.500 L 232 152 205.500 152 L 179 152 179 139.500 L 179 127 166.500 127 L 154 127 154 150 M 213 137 L 213 147 232.970 147 L 252.940 147 253.220 159.750 L 253.500 172.500 265.720 172.781 L 277.940 173.061 278.220 160.281 L 278.500 147.500 298.750 147.229 L 319 146.959 319 136.979 L 319 127 266 127 L 213 127 213 137 M 326 150 L 326 173 338 173 L 350 173 350 150 L 350 127 338 127 L 326 127 326 150" stroke="none" fill="#fffdfd" fill-rule="evenodd"/><path d="M -0 147.503 L -0 295.005 186.250 294.753 L 372.500 294.500 372.753 147.250 L 373.007 0 186.503 0 L 0 0 -0 147.503 M 0.487 148 C 0.487 229.125, 0.605 262.312, 0.750 221.750 C 0.895 181.187, 0.895 114.812, 0.750 74.250 C 0.605 33.687, 0.487 66.875, 0.487 148 M 20.667 126.667 C 20.300 127.033, 20 137.608, 20 150.167 L 20 173 33 173 L 46 173 46 167 L 46 161 67.950 161 L 89.900 161 90.200 166.750 L 90.500 172.500 103.250 172.780 L 116 173.060 116 149.500 L 116 125.940 103.250 126.220 L 90.500 126.500 90 132.506 L 89.500 138.511 68 138.506 L 46.500 138.500 46.202 132.250 L 45.905 126 33.619 126 C 26.862 126, 21.033 126.300, 20.667 126.667 M 122 149.470 L 122 173 135.018 173 L 148.037 173 147.768 149.750 L 147.500 126.500 134.750 126.220 L 122 125.940 122 149.470 M 153.667 126.667 C 153.300 127.033, 153 137.608, 153 150.167 L 153 173 193 173 L 233 173 233 162.516 L 233 152.033 206.250 151.766 L 179.500 151.500 179.220 138.750 L 178.940 126 166.637 126 C 159.870 126, 154.033 126.300, 153.667 126.667 M 212 137 L 212 148 232.500 148 L 253 148 253 160.500 L 253 173 266 173 L 279 173 279 160.500 L 279 148 299 148 L 319 148 319 137 L 319 126 265.500 126 L 212 126 212 137 M 325 149.500 L 325 173 338 173 L 351 173 351 149.500 L 351 126 338 126 L 325 126 325 149.500" stroke="none" fill="#d4041c" fill-rule="evenodd"/><path d="M 20.449 127.273 C 20.180 127.973, 20.091 138.660, 20.250 151.023 L 20.540 173.500 20.770 150.250 L 21 127 33 127 L 45 127 45 133 C 45 136.300, 45.337 139.001, 45.750 139.002 C 46.163 139.003, 46.349 136.078, 46.165 132.502 L 45.829 126 33.383 126 C 24.231 126, 20.808 126.337, 20.449 127.273 M 90.412 127.369 C 90.123 128.122, 90.054 131.160, 90.258 134.119 L 90.630 139.500 90.815 133.280 L 91 127.060 103.750 126.747 L 116.500 126.435 103.719 126.217 C 93.671 126.046, 90.825 126.293, 90.412 127.369 M 134.480 126.733 L 146.963 127.059 147.260 150.030 L 147.557 173.001 147.528 149.751 L 147.500 126.500 134.748 126.453 L 121.997 126.407 134.480 126.733 M 153.449 127.273 C 153.180 127.973, 153.091 138.660, 153.250 151.023 L 153.540 173.500 153.770 150.280 L 154 127.060 166.750 126.747 L 179.500 126.435 166.719 126.217 C 157.132 126.054, 153.815 126.318, 153.449 127.273 M 212 137 L 212 148 232.750 147.772 L 253.500 147.544 233.250 147.251 L 213 146.959 213 136.988 L 213 127.018 266.250 126.750 L 319.500 126.482 265.750 126.241 L 212 126 212 137 M 325.231 149.750 L 325.461 173.500 325.749 150.250 L 326.037 127 338 127 L 349.963 127 350.251 150.250 L 350.539 173.500 350.769 149.750 L 351 126 338 126 L 325 126 325.231 149.750 M 278.435 148.308 C 278.159 149.028, 278.076 154.990, 278.252 161.558 L 278.570 173.500 278.785 160.771 L 279 148.041 299.250 147.749 L 319.500 147.456 299.219 147.228 C 283.271 147.049, 278.830 147.280, 278.435 148.308 M 232.374 162.500 C 232.376 168.550, 232.541 170.896, 232.740 167.713 C 232.939 164.531, 232.937 159.581, 232.736 156.713 C 232.535 153.846, 232.372 156.450, 232.374 162.500 M 45.320 167 C 45.320 170.575, 45.502 172.037, 45.723 170.250 C 45.945 168.463, 45.945 165.537, 45.723 163.750 C 45.502 161.963, 45.320 163.425, 45.320 167 M 90.310 166.500 C 90.315 169.800, 90.502 171.029, 90.725 169.232 C 90.947 167.435, 90.943 164.735, 90.715 163.232 C 90.486 161.729, 90.304 163.200, 90.310 166.500" stroke="none" fill="#fbf5f6" fill-rule="evenodd"/></svg>