<svg xmlns="http://www.w3.org/2000/svg" width="636" height="348" viewBox="0 0 636 348" version="1.1"><path d="M 75.250 149.716 C 76.763 149.945, 79.237 149.945, 80.750 149.716 C 82.263 149.487, 81.025 149.300, 78 149.300 C 74.975 149.300, 73.737 149.487, 75.250 149.716 M 500.250 149.716 C 501.762 149.945, 504.238 149.945, 505.750 149.716 C 507.262 149.487, 506.025 149.300, 503 149.300 C 499.975 149.300, 498.738 149.487, 500.250 149.716 M 552.252 156.500 C 552.263 158.700, 552.468 159.482, 552.707 158.238 C 552.946 156.994, 552.937 155.194, 552.687 154.238 C 552.437 153.282, 552.241 154.300, 552.252 156.500 M 300.579 157.120 C 296.463 158.085, 287.989 164.289, 288.015 166.317 C 288.024 167.017, 288.427 166.887, 289 166 C 289.704 164.910, 289.974 164.858, 289.985 165.809 C 289.993 166.529, 290.457 166.835, 291.016 166.490 C 291.575 166.144, 291.734 165.330, 291.370 164.681 C 290.916 163.873, 291.051 163.815, 291.800 164.500 C 292.457 165.101, 296.906 165.300, 302.948 165 C 308.479 164.725, 313.003 164.893, 313.002 165.372 C 313.001 165.852, 313.675 165.685, 314.500 165 C 315.325 164.315, 316 164.173, 316 164.683 C 316 165.194, 317.238 165.586, 318.750 165.556 C 320.524 165.520, 321.402 165.970, 321.225 166.824 C 321.074 167.553, 321.416 167.861, 321.986 167.509 C 324.596 165.896, 316.006 158.471, 309.902 157.064 C 307.481 156.506, 305.275 156.083, 305 156.125 C 304.725 156.167, 302.735 156.615, 300.579 157.120 M 72.252 166.500 C 72.263 168.700, 72.468 169.482, 72.707 168.238 C 72.946 166.994, 72.937 165.194, 72.687 164.238 C 72.437 163.282, 72.241 164.300, 72.252 166.500 M 131.750 170.706 C 132.988 170.944, 135.012 170.944, 136.250 170.706 C 137.488 170.467, 136.475 170.272, 134 170.272 C 131.525 170.272, 130.512 170.467, 131.750 170.706 M 288.079 193.683 C 287.947 195.659, 296.231 201.733, 300.680 202.922 C 308.093 204.904, 317.155 201.473, 321.744 194.948 C 322.801 193.445, 322.725 193.223, 321.244 193.472 C 320.285 193.634, 319.607 194.252, 319.738 194.847 C 319.869 195.441, 319.309 195.672, 318.494 195.359 C 317.679 195.046, 317.320 194.275, 317.698 193.645 C 318.075 193.015, 317.642 193.101, 316.736 193.836 C 315.829 194.571, 314.618 194.882, 314.044 194.527 C 313.470 194.172, 312.993 194.471, 312.985 195.191 C 312.975 196.046, 312.715 196.132, 312.235 195.439 C 311.831 194.855, 310.600 194.358, 309.500 194.335 C 308.400 194.311, 304.486 194.152, 300.801 193.981 C 296.124 193.764, 293.576 194.097, 292.359 195.085 C 290.855 196.306, 290.734 196.305, 291.472 195.080 C 292.107 194.027, 291.915 193.819, 290.729 194.274 C 289.849 194.611, 288.911 194.350, 288.644 193.694 C 288.275 192.787, 288.139 192.784, 288.079 193.683 M 169.336 199 C 169.482 201.233, 169.956 201.510, 173.757 201.598 L 178.015 201.696 174.070 201.294 C 170.989 200.979, 170.020 200.410, 169.649 198.696 C 169.249 196.855, 169.199 196.904, 169.336 199 M 73.250 201.716 C 74.763 201.945, 77.237 201.945, 78.750 201.716 C 80.263 201.487, 79.025 201.300, 76 201.300 C 72.975 201.300, 71.737 201.487, 73.250 201.716 M 384.768 201.725 C 386.565 201.947, 389.265 201.943, 390.768 201.715 C 392.271 201.486, 390.800 201.304, 387.500 201.310 C 384.200 201.315, 382.971 201.502, 384.768 201.725 M 480.250 201.716 C 481.762 201.945, 484.238 201.945, 485.750 201.716 C 487.262 201.487, 486.025 201.300, 483 201.300 C 479.975 201.300, 478.738 201.487, 480.250 201.716 M 499.250 201.716 C 500.762 201.945, 503.238 201.945, 504.750 201.716 C 506.262 201.487, 505.025 201.300, 502 201.300 C 498.975 201.300, 497.738 201.487, 499.250 201.716 M 552.250 201.716 C 553.763 201.945, 556.237 201.945, 557.750 201.716 C 559.263 201.487, 558.025 201.300, 555 201.300 C 551.975 201.300, 550.737 201.487, 552.250 201.716" stroke="none" fill="#d2d0d6" fill-rule="evenodd"/><path d="M 331.130 186.615 C 330.474 188.053, 330.229 190.146, 330.584 191.266 C 331.090 192.860, 330.880 193.168, 329.615 192.683 C 328.580 192.285, 328 192.590, 328 193.531 C 328 194.339, 328.702 195, 329.559 195 C 330.416 195, 330.859 195.419, 330.543 195.931 C 330.226 196.443, 330.425 197.144, 330.984 197.490 C 331.543 197.835, 332 197.641, 332 197.059 C 332 196.477, 332.450 196, 333 196 C 333.550 196, 334 196.715, 334 197.590 C 334 199.828, 338.155 203.019, 340.250 202.390 C 341.212 202.101, 342 202.346, 342 202.933 C 342 203.520, 342.900 204, 344 204 C 345.333 204, 346 203.333, 346 202 C 346 200.900, 345.550 200, 345 200 C 344.450 200, 344 199.550, 344 199 C 344 198.450, 344.675 198, 345.500 198 C 346.333 198, 347 197.111, 347 196 C 347 194.900, 346.518 194, 345.929 194 C 344.335 194, 342 191.367, 342 189.571 C 342 188.492, 341.061 188, 339 188 C 336.667 188, 336 187.556, 336 186 C 336 183.050, 332.556 183.485, 331.130 186.615 M 339.878 204.794 C 340.636 205.334, 340.973 206.235, 340.627 206.795 C 340.246 207.411, 340.788 207.607, 341.999 207.290 C 343.992 206.769, 344.829 205, 343.082 205 C 342.577 205, 341.339 204.733, 340.332 204.406 C 338.938 203.953, 338.829 204.046, 339.878 204.794 M 315.500 207 C 315.160 207.550, 313.839 208, 312.563 208 C 309.314 208, 308.316 209.855, 309.068 214.500 C 309.425 216.700, 309.780 217.563, 309.858 216.417 C 309.936 215.271, 310.279 214.055, 310.619 213.714 C 311.487 212.847, 314 215.547, 314 217.347 C 314 218.166, 314.288 219.586, 314.639 220.502 C 315.138 221.802, 315.456 221.881, 316.085 220.863 C 317.131 219.170, 317.783 219.889, 318.230 223.230 C 318.429 224.712, 318.980 226.279, 319.456 226.712 C 319.931 227.145, 320.016 226.969, 319.644 226.319 C 318.710 224.689, 321.032 223.433, 322.021 225.034 C 322.651 226.053, 323.169 225.974, 324.481 224.662 C 325.395 223.748, 326.561 223, 327.071 223 C 327.582 223, 328 222.523, 328 221.941 C 328 221.359, 327.505 221.188, 326.900 221.562 C 326.172 222.012, 326.206 221.484, 327 220 C 327.958 218.209, 327.944 217.916, 326.930 218.543 C 326.022 219.104, 325.848 218.838, 326.319 217.612 C 326.681 216.668, 326.583 216.140, 326.102 216.437 C 325.620 216.735, 324.671 216.308, 323.991 215.489 C 323.311 214.670, 322.087 214, 321.271 214 C 320.348 214, 320.009 213.420, 320.374 212.468 C 320.768 211.441, 320.111 210.612, 318.379 209.954 C 316.690 209.312, 315.994 208.458, 316.367 207.486 C 317.012 205.805, 316.438 205.483, 315.500 207" stroke="none" fill="#a71c28" fill-rule="evenodd"/><path d="M 331 184.276 C 331 186.350, 333.623 188.418, 334.485 187.024 C 334.850 186.433, 334.609 186.074, 333.949 186.225 C 333.290 186.376, 332.544 185.938, 332.292 185.250 C 332.018 184.503, 332.672 184, 333.917 184 C 335.333 184, 336 184.640, 336 186 C 336 187.556, 336.667 188, 339 188 C 341.061 188, 342 188.492, 342 189.571 C 342 191.367, 344.335 194, 345.929 194 C 346.518 194, 347 194.900, 347 196 C 347 197.111, 346.333 198, 345.500 198 C 344.675 198, 344 198.450, 344 199 C 344 199.550, 344.640 200, 345.422 200 C 346.877 200, 348.225 196.743, 349.848 189.303 C 350.905 184.460, 351.224 184.621, 338.250 183.451 C 332.223 182.907, 331 183.047, 331 184.276 M 308.659 220 C 308.946 225.225, 309.259 229.581, 309.354 229.679 C 309.448 229.778, 311.649 229.406, 314.245 228.852 L 318.965 227.846 318.387 224.173 C 317.706 219.843, 317.181 219.088, 316.085 220.863 C 315.456 221.881, 315.138 221.802, 314.639 220.502 C 314.288 219.586, 314 218.166, 314 217.347 C 314 215.547, 311.487 212.847, 310.619 213.714 C 310.279 214.055, 309.936 215.271, 309.858 216.417 C 309.780 217.563, 309.361 216.700, 308.926 214.500 C 308.433 212.007, 308.333 214.078, 308.659 220 M 319.694 224.639 C 318.895 225.438, 319.798 227, 321.059 227 C 321.577 227, 322 226.325, 322 225.500 C 322 223.954, 320.820 223.513, 319.694 224.639" stroke="none" fill="#981e25" fill-rule="evenodd"/><path d="M 276.750 183.716 C 274.842 184.005, 274 184.725, 274 186.066 C 274 187.151, 273.315 188, 272.441 188 C 271.584 188, 271.160 188.450, 271.500 189 C 271.840 189.550, 271.191 190, 270.059 190 C 268.927 190, 268 190.605, 268 191.345 C 268 192.085, 267.107 193.498, 266.016 194.485 C 264.057 196.258, 264.074 200.198, 266.051 202.372 C 266.487 202.851, 266.606 203.864, 266.315 204.622 C 266.024 205.380, 266.284 206, 266.893 206 C 267.502 206, 268 205.550, 268 205 C 268 202.945, 268.361 202.458, 271.147 200.765 C 272.716 199.810, 274.002 198.685, 274.005 198.265 C 274.007 197.844, 275.470 195.942, 277.255 194.037 C 280.739 190.319, 281.143 189.198, 279.699 187.263 C 279.192 186.582, 279.037 185.345, 279.357 184.513 C 279.676 183.681, 279.839 183.067, 279.719 183.150 C 279.598 183.232, 278.262 183.487, 276.750 183.716 M 293.362 207.223 C 292.961 207.871, 293.156 208.022, 293.845 207.595 C 296.286 206.087, 294.835 208.863, 291.250 212.562 C 289.188 214.689, 287.607 216.767, 287.738 217.179 C 287.869 217.591, 287.233 217.643, 286.324 217.294 C 285.297 216.900, 284.919 217.060, 285.325 217.717 C 285.684 218.298, 285.308 219.329, 284.489 220.009 C 281.172 222.762, 283.820 224.904, 291.238 225.469 C 293.424 225.635, 293.752 225.407, 292.866 224.339 C 292.017 223.315, 292.133 223, 293.359 223 C 294.240 223, 295.236 221.908, 295.571 220.574 C 296.192 218.100, 299.943 213.950, 300.070 215.595 C 300.182 217.036, 301.852 212.685, 301.930 210.750 C 301.968 209.787, 301.438 208.997, 300.750 208.994 C 300.063 208.990, 298.270 208.346, 296.767 207.562 C 294.860 206.567, 293.831 206.465, 293.362 207.223" stroke="none" fill="#4b8037" fill-rule="evenodd"/><path d="M 266.331 183.716 L 260.162 184.091 260.604 187.796 C 261.104 191.998, 263.889 201, 264.689 201 C 264.979 201, 264.950 199.938, 264.625 198.640 C 264.216 197.013, 264.648 195.723, 266.016 194.485 C 267.107 193.498, 268 192.085, 268 191.345 C 268 190.605, 268.927 190, 270.059 190 C 271.191 190, 271.840 189.550, 271.500 189 C 271.160 188.450, 271.584 188, 272.441 188 C 273.333 188, 274 187.145, 274 186 C 274 183.562, 278.589 183.148, 279.325 185.520 C 279.656 186.586, 279.750 186.512, 279.640 185.270 C 279.467 183.320, 277.198 183.055, 266.331 183.716 M 300.250 208.689 C 301.212 208.941, 301.968 209.901, 301.930 210.823 C 301.851 212.711, 300.179 216.999, 300.070 215.595 C 299.943 213.950, 296.192 218.100, 295.571 220.574 C 295.236 221.908, 294.240 223, 293.359 223 C 292.119 223, 292.012 223.309, 292.885 224.361 C 293.806 225.472, 293.376 225.672, 290.552 225.448 C 288.647 225.297, 286.507 224.843, 285.795 224.440 C 284.909 223.938, 284.816 224.040, 285.500 224.763 C 286.685 226.014, 299.204 229.962, 300.163 229.387 C 300.912 228.938, 301.610 224.618, 302.530 214.750 C 303.146 208.146, 303.109 208.003, 300.830 208.116 C 299.135 208.200, 298.977 208.357, 300.250 208.689" stroke="none" fill="#4a7932" fill-rule="evenodd"/><path d="M 293.150 132.123 C 289.658 133.229, 287.008 134.341, 287.262 134.595 C 287.515 134.848, 288.875 134.618, 290.284 134.082 C 292.147 133.374, 293.136 133.460, 293.914 134.396 C 294.502 135.105, 294.689 135.977, 294.331 136.336 C 293.454 137.213, 298.024 141.103, 299.129 140.420 C 299.608 140.124, 300 140.809, 300 141.941 C 300 143.073, 300.404 144, 300.898 144 C 301.392 144, 301.729 145.800, 301.648 148 C 301.567 150.201, 301.871 152.001, 302.325 152 C 303.127 152, 302.320 135.260, 301.349 131.750 C 300.766 129.640, 301.030 129.628, 293.150 132.123 M 262.244 164.750 C 261.654 166.813, 260.879 169.931, 260.522 171.679 C 259.884 174.801, 259.950 174.869, 264.186 175.440 C 273.023 176.631, 279.277 176.543, 279.568 175.225 C 279.723 174.524, 279.621 174.411, 279.342 174.975 C 278.674 176.322, 274 176.305, 274 174.956 C 274 174.382, 273.280 174.045, 272.399 174.206 C 271.335 174.402, 270.412 173.327, 269.647 171 C 269.014 169.075, 267.822 167.488, 266.998 167.474 C 264.212 167.424, 262.974 165.952, 263.605 163.439 C 264.590 159.512, 263.420 160.640, 262.244 164.750" stroke="none" fill="#db842d" fill-rule="evenodd"/><path d="M 291.387 132.750 C 291.852 133.545, 291.460 134.055, 290.309 134.152 C 289.314 134.236, 288.013 134.356, 287.418 134.419 C 286.823 134.481, 285.248 135.289, 283.918 136.214 L 281.500 137.895 283.809 137.948 C 285.079 137.976, 285.848 138.437, 285.518 138.971 C 285.188 139.505, 286.061 140.936, 287.459 142.151 C 288.857 143.366, 290 144.987, 290 145.752 C 290 147.399, 292.406 150, 293.929 150 C 294.518 150, 295 150.675, 295 151.500 C 295 153.261, 295.917 153.362, 299.510 151.996 C 301.606 151.199, 302.091 150.426, 301.862 148.246 C 301.703 146.735, 301.918 144.942, 302.339 144.261 C 302.861 143.415, 302.612 143.212, 301.552 143.618 C 300.444 144.044, 300 143.595, 300 142.048 C 300 140.857, 299.608 140.124, 299.129 140.420 C 297.945 141.152, 293.672 137.339, 294.385 136.187 C 294.697 135.681, 293.986 134.420, 292.805 133.384 C 291.623 132.348, 290.985 132.063, 291.387 132.750 M 292 147 C 292 147.550, 292.927 148, 294.059 148 C 295.191 148, 295.840 147.550, 295.500 147 C 295.160 146.450, 294.234 146, 293.441 146 C 292.648 146, 292 146.450, 292 147 M 265.559 155.250 C 262.773 164.467, 263.073 167.463, 266.787 167.488 C 267.850 167.496, 268.932 168.823, 269.647 171 C 270.461 173.474, 271.307 174.405, 272.535 174.175 C 273.643 173.968, 274.087 174.330, 273.763 175.175 C 273.405 176.109, 274.222 176.500, 276.532 176.500 C 278.334 176.500, 279.630 176.210, 279.411 175.856 C 279.192 175.502, 279.730 173.498, 280.606 171.402 C 282.064 167.910, 282.064 167.702, 280.599 168.918 C 279.367 169.940, 279 169.959, 279 169 C 279 168.007, 278.697 168.007, 277.500 169 C 276.250 170.037, 276 169.905, 276 168.206 C 276 167.084, 276.540 165.987, 277.201 165.766 C 278.135 165.455, 278.135 165.202, 277.201 164.624 C 276.540 164.216, 276 164.359, 276 164.941 C 276 165.523, 275.550 166, 275 166 C 274.450 166, 274 164.895, 274 163.545 C 274 160.507, 269.368 155.645, 267.248 156.458 C 265.979 156.945, 265.933 156.785, 266.981 155.523 C 267.883 154.436, 267.915 154, 267.091 154 C 266.456 154, 265.767 154.563, 265.559 155.250 M 268.176 157.976 C 268.597 159.897, 270.937 162.396, 271.648 161.685 C 271.952 161.381, 271.223 160.090, 270.027 158.816 C 268.713 157.417, 267.981 157.084, 268.176 157.976" stroke="none" fill="#dc872c" fill-rule="evenodd"/><path d="M 321.469 135.050 C 321.100 135.648, 320.145 135.886, 319.347 135.580 C 318.549 135.273, 318.121 135.388, 318.397 135.833 C 318.672 136.279, 318.289 137.817, 317.545 139.251 C 316.801 140.685, 316.449 142.115, 316.763 142.429 C 317.077 142.743, 316.808 143, 316.167 143 C 315.525 143, 314.932 143.787, 314.850 144.750 C 314.767 145.713, 314.403 144.475, 314.041 142 C 313.379 137.480, 312.756 137.837, 311.515 143.448 C 311.065 145.481, 310.613 145.992, 310.060 145.097 C 309.526 144.233, 309.086 144.922, 308.747 147.149 C 308.120 151.277, 308.509 152, 311.359 152 C 312.592 152, 314.098 152.498, 314.707 153.107 C 315.516 153.916, 315.771 153.812, 315.657 152.723 C 315.570 151.903, 317.863 148.743, 320.750 145.700 C 323.637 142.657, 326 139.654, 326 139.025 C 326 138.396, 326.450 138.160, 327 138.500 C 329.305 139.925, 327.764 137.968, 325.070 136.050 C 323.125 134.665, 321.915 134.329, 321.469 135.050 M 339.750 159.841 C 337.688 161.934, 336 163.930, 336 164.278 C 336 165.390, 331.143 169.809, 330.561 169.227 C 329.590 168.257, 329.951 170.799, 331.161 173.453 C 332.527 176.451, 336 176.927, 336 174.117 C 336 173.074, 336.893 172, 338 171.710 C 339.300 171.370, 340 171.680, 340 172.594 C 340 173.367, 340.450 174, 341 174 C 341.550 174, 342 172.452, 342 170.559 C 342 168.666, 342.450 166.840, 343 166.500 C 343.550 166.160, 344 165.009, 344 163.941 C 344 162.873, 344.480 162, 345.066 162 C 346.395 162, 345.871 156.769, 344.500 156.345 C 343.950 156.175, 341.813 157.748, 339.750 159.841 M 346 168 C 346 169.100, 346.422 170, 346.938 170 C 347.454 170, 347.808 169.100, 347.725 168 C 347.642 166.900, 347.220 166, 346.787 166 C 346.354 166, 346 166.900, 346 168" stroke="none" fill="#4f8cc2" fill-rule="evenodd"/><path d="M 309.440 133.356 C 309.406 135.085, 309.125 139.200, 308.814 142.500 C 308.503 145.800, 308.456 147.409, 308.708 146.076 C 309.051 144.263, 309.380 143.998, 310.015 145.024 C 310.633 146.024, 311.039 145.598, 311.515 143.448 C 312.756 137.837, 313.379 137.480, 314.041 142 C 314.403 144.475, 314.767 145.713, 314.850 144.750 C 314.932 143.787, 315.525 143, 316.167 143 C 316.808 143, 317.077 142.743, 316.763 142.429 C 316.449 142.115, 316.801 140.685, 317.545 139.251 C 318.289 137.817, 318.701 136.324, 318.460 135.935 C 318.219 135.545, 318.756 135.288, 319.653 135.363 C 322.793 135.627, 322.088 133.178, 318.803 132.409 C 316.986 131.984, 315.050 131.519, 314.500 131.377 C 309.621 130.110, 309.501 130.157, 309.440 133.356 M 345.250 161.496 C 344.563 162.277, 344 163.583, 344 164.399 C 344 165.215, 343.550 166.160, 343 166.500 C 342.450 166.840, 342 168.666, 342 170.559 C 342 172.452, 341.550 174, 341 174 C 340.450 174, 340 173.367, 340 172.594 C 340 171.680, 339.300 171.370, 338 171.710 C 336.893 172, 336 173.074, 336 174.117 C 336 176.258, 332.478 176.772, 331.662 174.750 C 331.381 174.052, 331.123 174.333, 331.079 175.388 C 331.005 177.146, 331.534 177.223, 338.750 176.507 C 343.012 176.084, 347.520 175.793, 348.767 175.859 C 350.735 175.964, 350.954 175.619, 350.429 173.240 C 349.487 168.963, 346.969 159.996, 346.722 160.038 C 346.600 160.059, 345.938 160.715, 345.250 161.496 M 346 168 C 346 169.100, 346.422 170, 346.938 170 C 347.454 170, 347.808 169.100, 347.725 168 C 347.642 166.900, 347.220 166, 346.787 166 C 346.354 166, 346 166.900, 346 168" stroke="none" fill="#508bbc" fill-rule="evenodd"/><path d="M 326.478 138.069 C 326.060 139.386, 323.419 142.866, 320.609 145.802 C 314.711 151.965, 314.440 152.460, 316.196 153.860 C 321.876 158.389, 326 162.435, 326 163.480 C 326 164.166, 327.145 165.873, 328.545 167.273 L 331.091 169.818 333.545 167.364 C 334.895 166.014, 336 164.592, 336.001 164.205 C 336.001 163.817, 337.726 161.827, 339.834 159.782 C 343.660 156.071, 344.675 153.135, 342.599 151.786 C 341.994 151.394, 341.500 150.714, 341.500 150.276 C 341.500 148.810, 333.667 140.088, 332.821 140.611 C 332.362 140.895, 331.717 140.426, 331.388 139.569 C 331.059 138.712, 330.415 138.243, 329.957 138.527 C 329.498 138.810, 328.699 138.284, 328.181 137.358 C 327.353 135.879, 327.146 135.965, 326.478 138.069 M 75.264 156.718 C 76.784 156.947, 79.034 156.941, 80.264 156.704 C 81.494 156.467, 80.250 156.279, 77.500 156.286 C 74.750 156.294, 73.744 156.488, 75.264 156.718 M 501.264 156.718 C 502.784 156.947, 505.034 156.941, 506.264 156.704 C 507.494 156.467, 506.250 156.279, 503.500 156.286 C 500.750 156.294, 499.744 156.488, 501.264 156.718 M 99.328 194.500 C 99.333 198.350, 99.513 199.802, 99.730 197.728 C 99.946 195.653, 99.943 192.503, 99.722 190.728 C 99.501 188.952, 99.324 190.650, 99.328 194.500 M 119.252 191.500 C 119.263 193.700, 119.468 194.482, 119.707 193.238 C 119.946 191.994, 119.937 190.194, 119.687 189.238 C 119.437 188.282, 119.241 189.300, 119.252 191.500 M 507.310 195.500 C 507.315 198.800, 507.502 200.029, 507.725 198.232 C 507.947 196.435, 507.943 193.735, 507.715 192.232 C 507.486 190.729, 507.304 192.200, 507.310 195.500" stroke="none" fill="#74b2dc" fill-rule="evenodd"/><path d="M 280.583 138.750 C 280.171 139.162, 279.533 139.503, 279.167 139.507 C 277.866 139.521, 272 145.351, 272 146.630 C 272 147.345, 271.071 148.427, 269.935 149.035 C 268.179 149.974, 268.067 150.382, 269.185 151.762 C 269.908 152.654, 270.029 153.102, 269.452 152.758 C 268.876 152.414, 267.751 152.545, 266.952 153.051 C 265.781 153.792, 265.765 153.972, 266.872 153.985 C 267.988 153.997, 268.008 154.285, 266.981 155.523 C 265.933 156.785, 265.979 156.945, 267.248 156.458 C 269.368 155.645, 274 160.507, 274 163.545 C 274 166.075, 275.523 166.930, 276.234 164.799 C 276.545 163.865, 276.798 163.865, 277.376 164.799 C 277.784 165.460, 277.641 166, 277.059 166 C 276.477 166, 276 166.955, 276 168.122 C 276 169.896, 276.247 170.040, 277.500 169 C 278.325 168.315, 279 168.185, 279 168.711 C 279 169.237, 279.675 169.667, 280.500 169.667 C 281.325 169.667, 281.774 169.441, 281.498 169.164 C 281.222 168.888, 281.741 167.838, 282.653 166.831 C 283.564 165.824, 283.997 165, 283.616 165 C 282.969 165, 283.728 163.915, 286.702 160.584 C 287.364 159.844, 287.626 158.960, 287.286 158.619 C 286.945 158.279, 287.431 158, 288.365 158 C 289.299 158, 290.321 157.328, 290.636 156.506 C 290.952 155.684, 291.612 155.260, 292.105 155.565 C 292.597 155.869, 293 155.641, 293 155.059 C 293 154.477, 293.633 154, 294.406 154 C 295.320 154, 295.630 153.300, 295.290 152 C 295.002 150.900, 294.337 150, 293.812 150 C 292.387 150, 290 147.340, 290 145.752 C 290 144.987, 288.857 143.366, 287.459 142.151 C 286.061 140.936, 285.188 139.505, 285.518 138.971 C 286.217 137.840, 281.696 137.637, 280.583 138.750 M 292 147 C 292 147.550, 292.927 148, 294.059 148 C 295.191 148, 295.840 147.550, 295.500 147 C 295.160 146.450, 294.234 146, 293.441 146 C 292.648 146, 292 146.450, 292 147 M 268.176 157.976 C 268.597 159.897, 270.937 162.396, 271.648 161.685 C 271.952 161.381, 271.223 160.090, 270.027 158.816 C 268.713 157.417, 267.981 157.084, 268.176 157.976" stroke="none" fill="#e0a628" fill-rule="evenodd"/><path d="M 300.500 124.668 C 289.308 126.038, 280.107 130.648, 271.250 139.322 C 267.813 142.688, 265 145.777, 265 146.186 C 265 146.596, 263.634 149.084, 261.964 151.715 C 257.003 159.534, 255 167.671, 255 180 C 255 192.329, 257.003 200.466, 261.964 208.285 C 263.634 210.916, 265 213.404, 265 213.814 C 265 214.223, 267.813 217.302, 271.250 220.656 C 281.893 231.040, 291.424 235.151, 304.992 235.210 C 323.724 235.292, 339.755 225.313, 348.947 207.850 C 354.140 197.984, 356 190.638, 356 180 C 356 169.362, 354.140 162.016, 348.947 152.150 C 340.451 136.009, 326.067 126.259, 308.500 124.735 C 305.750 124.496, 302.150 124.466, 300.500 124.668 M 291.500 131.849 C 280.132 135.733, 268.254 146.823, 264.484 157.073 C 261.297 165.737, 260 170.355, 260 173.042 C 260 175.673, 260.233 175.790, 266.750 176.438 C 270.462 176.807, 274.850 177.336, 276.500 177.613 C 279.407 178.101, 279.552 177.936, 281.195 172.287 C 284.202 161.949, 290.569 155.317, 299.842 152.864 L 304.185 151.716 303.634 147.608 C 303.331 145.349, 302.787 140.463, 302.425 136.750 C 301.793 130.268, 301.663 130.003, 299.134 130.070 C 297.685 130.109, 294.250 130.909, 291.500 131.849 M 308.628 134.750 C 308.320 137.363, 307.787 142.284, 307.443 145.688 L 306.818 151.875 310.159 152.506 C 315.136 153.446, 324.210 159.941, 326.217 164 C 327.168 165.925, 328.672 169.884, 329.559 172.799 L 331.170 178.097 335.335 177.584 C 337.626 177.302, 342.139 176.791, 345.364 176.449 L 351.228 175.828 350.592 171.664 C 348.610 158.695, 340.463 145.112, 330.277 137.794 C 325.016 134.015, 315.373 130, 311.556 130 C 309.476 130, 309.120 130.578, 308.628 134.750 M 73 153 C 73 155.877, 73.179 156, 77.387 156 C 81.496 156, 81.801 155.810, 82.213 153 C 82.651 150.020, 82.621 150, 77.827 150 C 73.130 150, 73 150.081, 73 153 M 230.610 155.250 C 230.316 158.137, 229.813 167.925, 229.491 177 C 229.168 186.075, 228.644 195.188, 228.325 197.250 L 227.744 201 232.718 201 L 237.691 201 238.376 182.250 C 238.752 171.938, 239.336 160.463, 239.674 156.750 L 240.287 150 235.716 150 L 231.144 150 230.610 155.250 M 453.104 162.750 C 452.985 176.502, 452.209 192.522, 451.408 197.750 L 450.909 201 455.955 201 L 461 201 461.024 193.250 C 461.053 183.729, 462.108 178.932, 465.156 174.456 C 467.252 171.378, 467.984 171.013, 472.081 171.007 C 478.785 170.997, 479.457 172.766, 478.715 188.471 L 478.123 201 483.061 201 L 488 201 488.197 188.750 C 488.560 166.216, 488.153 164.868, 480.500 163.258 C 473.788 161.846, 468.100 163.204, 464.675 167.037 L 461.673 170.397 462.342 160.199 L 463.010 150 458.112 150 L 453.213 150 453.104 162.750 M 498 153 C 498 155.933, 498.111 156, 503 156 C 507.889 156, 508 155.933, 508 153 C 508 150.067, 507.889 150, 503 150 C 498.111 150, 498 150.067, 498 153 M 553 151.945 C 553 156.517, 550.966 194.787, 550.565 197.750 L 550.126 201 554.912 201 L 559.698 201 560.360 185.250 C 560.725 176.588, 561.307 165.113, 561.654 159.750 L 562.286 150 557.643 150 C 553.710 150, 553 150.298, 553 151.945 M 125.750 155.306 C 122.327 156.121, 122 156.495, 122 159.599 C 122 162.711, 121.745 163, 119 163 C 116.238 163, 116 163.278, 116 166.500 C 116 169.534, 116.321 170, 118.416 170 L 120.832 170 120.265 183.525 C 119.714 196.684, 119.761 197.117, 122.023 199.525 C 123.910 201.534, 125.305 201.997, 129.424 201.985 C 135.630 201.966, 136.551 201.413, 137.476 197.148 C 138.194 193.842, 138.163 193.805, 135.226 194.450 C 130.368 195.517, 129 193.232, 129 184.054 C 129 179.762, 129.277 174.867, 129.615 173.177 C 130.168 170.409, 130.640 170.074, 134.365 169.802 C 138.226 169.520, 138.521 169.284, 138.813 166.250 C 139.125 163.018, 139.102 163, 134.618 163 L 130.110 163 129.805 158.707 L 129.500 154.414 125.750 155.306 M 299.460 157.009 C 293.357 158.895, 284.022 169.001, 285.298 172.340 C 285.623 173.189, 290.893 173.366, 304.924 173 C 317.039 172.684, 324.503 172.868, 325.182 173.500 C 327.258 175.429, 324.914 168.592, 322.341 165.211 C 316.917 158.083, 307.225 154.609, 299.460 157.009 M 423.252 163.611 C 418.126 164.913, 413.848 169.151, 411.918 174.841 C 410.181 179.961, 411.146 191.380, 413.593 194.656 C 417.992 200.549, 420.357 201.500, 430.610 201.500 C 440.701 201.500, 441.953 200.922, 441.985 196.250 C 442.002 193.648, 441.811 193.617, 435.154 195.154 C 431.229 196.060, 429.489 196.031, 427.044 195.018 C 422.987 193.338, 420 189.456, 420 185.865 L 420 183 433 183 L 446 183 446 178.968 C 446 166.879, 436.265 160.307, 423.252 163.611 M 584.114 162.823 C 570.809 164.096, 563.360 184.289, 572.098 195.397 C 575.959 200.306, 581.354 202.241, 590.074 201.845 C 594.346 201.651, 598.049 201.269, 598.304 200.996 C 598.558 200.723, 599.086 199.009, 599.476 197.187 L 600.186 193.874 596.343 194.684 C 585.924 196.879, 579.910 194.284, 578.937 187.174 L 578.373 183.057 590.937 182.778 L 603.500 182.500 603.360 177.223 C 603.217 171.789, 600.180 165.689, 597 164.445 C 594.172 163.339, 587.500 162.499, 584.114 162.823 M 30.714 168.250 C 31.556 171.137, 34.327 179.686, 36.872 187.248 L 41.500 200.995 46.750 200.998 C 50.616 200.999, 52 200.626, 52 199.582 C 52 198.802, 54.475 192.650, 57.500 185.910 C 60.525 179.171, 63 173.041, 63 172.289 C 63 171.536, 63.909 169.138, 65.020 166.960 L 67.041 163 62.159 163 L 57.278 163 55.047 168.750 C 53.820 171.912, 52.213 176.750, 51.474 179.500 C 50.736 182.250, 49.381 186.285, 48.462 188.467 L 46.791 192.435 44.409 184.967 C 43.099 180.860, 42.021 176.640, 42.013 175.588 C 42.006 174.536, 41.243 171.274, 40.317 168.338 L 38.635 163 33.909 163 L 29.184 163 30.714 168.250 M 72.586 173.750 C 72.253 179.662, 71.736 188.213, 71.438 192.750 L 70.896 201 75.948 201 L 81 201 81.006 190.250 C 81.009 184.338, 81.301 175.787, 81.654 171.250 L 82.296 163 77.744 163 L 73.192 163 72.586 173.750 M 90.991 176.750 C 90.987 184.313, 90.699 192.863, 90.352 195.750 L 89.721 201 94.219 201 L 98.717 201 99.229 190.201 C 99.586 182.666, 100.275 178.359, 101.510 175.951 C 103.741 171.599, 104.626 171.034, 109.250 171.015 C 112.956 171, 113 170.953, 113 167 C 113 163.007, 112.993 163, 109.040 163 C 106.009 163, 104.485 163.642, 102.540 165.740 L 100 168.480 100 165.740 C 100 163.159, 99.738 163, 95.500 163 L 91 163 90.991 176.750 M 143.636 177.887 C 143.261 186.197, 143.363 193.819, 143.867 195.137 C 145.384 199.104, 148.659 201.261, 153.936 201.768 C 160.538 202.402, 163.245 201.601, 166.923 197.923 L 170 194.846 170 197.923 C 170 200.832, 170.212 201, 173.894 201 L 177.788 201 178.374 192.250 C 178.697 187.438, 179.243 178.887, 179.588 173.250 L 180.216 163 175.608 163 L 171 163 170.967 168.750 C 170.900 180.546, 169.377 187.997, 166.396 191.108 C 163.296 194.344, 158.694 194.961, 155.441 192.577 C 153.652 191.266, 153.524 190.052, 153.803 177.077 L 154.106 163 149.207 163 L 144.308 163 143.636 177.887 M 195.064 163.880 C 193.498 164.317, 192.349 165.603, 191.847 167.480 C 190.899 171.025, 191.238 171.478, 193.809 170.102 C 194.898 169.519, 198.241 168.754, 201.238 168.402 C 208.132 167.592, 211.250 169.021, 210.810 172.790 C 210.488 175.552, 209.751 175.954, 196.500 180.600 C 190.102 182.843, 186 186.858, 186 190.876 C 186 198.215, 190.415 202, 198.975 202 C 203.502 202, 204.155 201.723, 205.025 199.435 C 206.355 195.936, 206.382 195.974, 203.012 196.648 C 197.223 197.805, 192.320 191.469, 196.390 188.091 C 197.617 187.073, 209.649 182, 210.837 182 C 211.088 182, 211.039 186.275, 210.727 191.500 L 210.160 201 214.432 201 L 218.704 201 219.346 192.750 C 220.165 182.231, 220.181 169.636, 219.379 167.545 C 218.209 164.496, 213.457 162.995, 205.300 163.100 C 201.010 163.155, 196.404 163.506, 195.064 163.880 M 370.342 164.448 C 371.393 167.187, 375.749 180.517, 378.937 190.750 L 382.130 201 387.380 201 C 392.405 201, 392.702 200.849, 394.315 197.466 C 395.242 195.522, 396 193.258, 396 192.434 C 396 191.610, 398.475 185.485, 401.500 178.822 C 408.454 163.505, 408.488 162.795, 402.250 163.195 L 397.500 163.500 396.327 168.250 C 395.683 170.863, 393.452 177.388, 391.371 182.750 C 387.600 192.465, 387.584 192.487, 386.736 189 C 385.287 183.034, 381.085 168.355, 380.042 165.610 C 379.169 163.315, 378.490 163, 374.418 163 C 370.786 163, 369.906 163.312, 370.342 164.448 M 497.986 179.750 C 497.979 188.963, 497.701 197.512, 497.370 198.750 C 496.804 200.862, 497.071 201, 501.728 201 L 506.689 201 507.341 186.750 C 507.699 178.912, 507.994 170.363, 507.996 167.750 L 508 163 503 163 L 498 163 497.986 179.750 M 524.500 164.403 C 520.170 166.314, 518.399 168.739, 516.479 175.387 C 514.609 181.860, 514.978 188.309, 517.572 194.518 C 519.726 199.672, 526 202.360, 534.599 201.813 C 538.077 201.591, 541.102 201.205, 541.320 200.955 C 541.538 200.705, 541.971 198.854, 542.281 196.842 L 542.844 193.184 539.679 194.092 C 534.731 195.511, 531.491 195.174, 528.659 192.946 C 523.180 188.637, 523.140 178.378, 528.578 172.510 C 531.028 169.866, 531.484 169.756, 537.579 170.325 L 544 170.925 544 167.569 C 544 165.432, 543.426 163.994, 542.418 163.607 C 539.572 162.515, 527.569 163.048, 524.500 164.403 M 424.205 170.650 C 422.528 172.218, 420.866 174.512, 420.511 175.750 C 419.877 177.958, 420.023 178, 428.433 178 C 436.799 178, 437 177.944, 437 175.611 C 437 172.290, 434.086 169.119, 430.377 168.403 C 427.846 167.915, 426.677 168.341, 424.205 170.650 M 585 168.685 C 582.079 169.794, 579 173.380, 579 175.674 C 579 177.915, 579.293 178, 587 178 C 594.768 178, 595 177.931, 595 175.611 C 595 171.031, 589.273 167.064, 585 168.685 M 273.500 182.581 C 272.400 182.751, 268.913 183.172, 265.750 183.517 C 260.285 184.113, 260 184.281, 260 186.913 C 260 189.790, 261.526 195.128, 264.666 203.234 C 268.534 213.218, 280.482 224.209, 291.639 228.048 C 301.624 231.483, 301.682 231.445, 302.465 220.750 C 302.838 215.662, 303.348 210.769, 303.599 209.876 C 303.942 208.653, 302.957 207.975, 299.615 207.133 C 290.733 204.897, 283.607 197.147, 280.872 186.750 C 279.579 181.836, 279.309 181.684, 273.500 182.581 M 330.750 182.580 C 330.337 182.994, 330 184.180, 330 185.215 C 330 186.250, 329.100 188.959, 328 191.236 C 326.900 193.513, 326 195.762, 326 196.233 C 326 198.849, 315.544 205.981, 309.613 207.411 C 306.729 208.106, 306.727 208.112, 307.363 214.200 C 307.713 217.551, 308 222.266, 308 224.678 C 308 230.128, 309.266 230.736, 316.834 228.920 C 322.874 227.471, 333.778 220.824, 337.154 216.532 C 338.254 215.133, 339.696 213.429, 340.360 212.745 C 344.552 208.418, 349.250 197.235, 350.588 188.391 L 351.210 184.282 344.855 183.588 C 341.360 183.206, 336.925 182.654, 335 182.360 C 333.075 182.067, 331.163 182.166, 330.750 182.580 M 285.421 187.346 C 283.904 191.298, 293.300 201.196, 300.376 203.101 C 302.566 203.691, 306.265 203.887, 308.596 203.538 C 315.294 202.533, 323.447 195.662, 325.395 189.380 C 326.048 187.275, 325.917 187.258, 306.847 187.078 C 296.285 186.979, 287.270 186.667, 286.814 186.385 C 286.359 186.104, 285.731 186.536, 285.421 187.346" stroke="none" fill="#f8f8f8" fill-rule="evenodd"/><path d="M 279.262 191.971 C 278.098 193.055, 275.948 195.512, 274.484 197.432 C 273.020 199.351, 270.956 201.197, 269.897 201.533 C 268.838 201.869, 268.207 202.525, 268.495 202.991 C 268.783 203.457, 268.351 204.506, 267.535 205.322 C 266.224 206.634, 266.239 206.878, 267.669 207.426 C 268.558 207.768, 269 208.334, 268.649 208.684 C 268.299 209.034, 268.910 209.949, 270.006 210.717 C 271.103 211.485, 272 212.568, 272 213.124 C 272 213.680, 273.519 215.567, 275.375 217.317 C 278.981 220.718, 279.416 221, 281.059 221 C 281.641 221, 281.794 221.563, 281.398 222.250 C 281.002 222.938, 281.861 222.422, 283.308 221.105 C 284.755 219.787, 285.653 218.248, 285.305 217.685 C 284.922 217.064, 285.323 216.910, 286.324 217.294 C 287.233 217.643, 287.869 217.578, 287.738 217.150 C 287.607 216.722, 288.968 214.898, 290.763 213.096 C 294.193 209.652, 296.638 205.879, 295.293 206.104 C 293.178 206.458, 291.952 205.886, 292.595 204.845 C 293.039 204.128, 292.870 203.963, 292.147 204.409 C 291.498 204.810, 290.722 204.440, 290.388 203.569 C 290.059 202.712, 289.424 202.238, 288.975 202.515 C 288.527 202.792, 287.229 201.777, 286.091 200.260 C 284.953 198.742, 283.517 196.903, 282.900 196.174 C 282.284 195.445, 281.716 193.757, 281.639 192.425 C 281.563 191.092, 281.472 190.001, 281.439 190.001 C 281.405 190, 280.425 190.887, 279.262 191.971" stroke="none" fill="#5c9934" fill-rule="evenodd"/><path d="M 325.196 198.298 C 323.438 200.111, 322 202.039, 322 202.582 C 322 203.125, 320.650 204.366, 319 205.341 C 315.350 207.497, 315.211 208.749, 318.481 209.993 C 320.130 210.620, 320.765 211.450, 320.374 212.468 C 320.009 213.420, 320.348 214, 321.271 214 C 322.087 214, 323.311 214.670, 323.991 215.489 C 324.671 216.308, 325.620 216.735, 326.102 216.437 C 326.583 216.140, 326.681 216.668, 326.319 217.612 C 325.848 218.838, 326.022 219.104, 326.930 218.543 C 327.922 217.930, 327.962 218.203, 327.113 219.789 C 325.882 222.090, 326.996 222.232, 330.619 220.237 C 331.784 219.595, 333.093 219.392, 333.529 219.785 C 333.964 220.178, 333.997 219.938, 333.601 219.250 C 333.206 218.563, 333.272 218, 333.749 218 C 334.226 218, 335.939 216.242, 337.555 214.093 C 339.171 211.945, 340.902 210.439, 341.401 210.748 C 341.901 211.057, 342.005 210.817, 341.633 210.216 C 341.262 209.615, 341.755 208.614, 342.729 207.993 C 344.303 206.988, 344.250 206.915, 342.249 207.338 C 340.877 207.628, 340.243 207.416, 340.627 206.795 C 340.973 206.235, 340.636 205.363, 339.878 204.858 C 338.984 204.262, 339.551 204.185, 341.490 204.638 C 344.326 205.301, 344.391 205.248, 342.748 203.605 C 341.795 202.652, 340.566 202.150, 340.017 202.490 C 338.574 203.381, 334.068 199.814, 334.031 197.750 C 333.998 195.909, 332 195.230, 332 197.059 C 332 197.641, 331.543 197.835, 330.984 197.490 C 330.425 197.144, 330.226 196.443, 330.543 195.931 C 331.981 193.603, 328.066 195.336, 325.196 198.298" stroke="none" fill="#c02627" fill-rule="evenodd"/><path d="M 291.047 164.500 C 291.457 166.659, 290.921 167.426, 290 166 C 289.296 164.910, 289.026 164.858, 289.015 165.809 C 289.007 166.529, 288.602 166.872, 288.116 166.572 C 287.097 165.942, 284.557 171.472, 285.306 172.690 C 285.580 173.135, 294.422 173.275, 304.956 173 C 316.436 172.700, 324.486 172.880, 325.053 173.450 C 326.313 174.714, 326.282 172.871, 324.986 169.463 C 324.271 167.582, 323.493 166.981, 322.345 167.421 C 320.985 167.943, 320.925 167.795, 321.981 166.523 C 322.676 165.685, 322.965 164.944, 322.622 164.875 C 320.256 164.400, 319.295 164.468, 317.750 165.219 C 316.601 165.778, 316 165.673, 316 164.913 C 316 164.075, 315.586 164.099, 314.500 165 C 313.675 165.685, 313.001 165.852, 313.002 165.372 C 313.003 164.893, 308.479 164.725, 302.948 165 C 296.885 165.301, 292.489 165.103, 291.875 164.500 C 291.196 163.833, 290.920 163.833, 291.047 164.500 M 285.473 187.044 C 284.606 188.447, 286.963 194.141, 288.116 193.428 C 288.602 193.128, 289 193.344, 289 193.910 C 289 194.475, 289.749 194.650, 290.664 194.299 C 291.912 193.820, 292.114 194.015, 291.472 195.080 C 290.734 196.305, 290.855 196.306, 292.359 195.085 C 293.576 194.097, 296.124 193.764, 300.801 193.981 C 304.486 194.152, 308.400 194.311, 309.500 194.335 C 310.600 194.358, 311.831 194.855, 312.235 195.439 C 312.715 196.132, 312.975 196.046, 312.985 195.191 C 312.993 194.471, 313.470 194.172, 314.044 194.527 C 314.618 194.882, 315.829 194.571, 316.736 193.836 C 317.911 192.883, 318.168 192.859, 317.633 193.750 C 317.220 194.438, 317.359 195.056, 317.941 195.125 C 321.206 195.510, 321.994 195.419, 321.933 194.659 C 321.897 194.196, 322.526 193.296, 323.332 192.659 C 324.139 192.022, 325.080 190.546, 325.425 189.380 C 326.048 187.276, 325.907 187.258, 306.847 187.078 C 296.285 186.979, 287.304 186.688, 286.890 186.432 C 286.477 186.177, 285.839 186.452, 285.473 187.044" stroke="none" fill="#ebe1db" fill-rule="evenodd"/><path d="M 0 174.002 L 0 348.003 318.250 347.752 L 636.500 347.500 636.753 173.750 L 637.006 0 318.503 0 L 0 0 0 174.002 M 0.489 174.500 C 0.489 270.200, 0.606 309.202, 0.750 261.171 C 0.894 213.140, 0.894 134.840, 0.750 87.171 C 0.606 39.502, 0.489 78.800, 0.489 174.500 M 291.798 125.931 C 284.051 128.408, 277.518 132.360, 271.246 138.365 C 265.840 143.540, 264.301 145.832, 258.738 157 L 255.500 163.500 255.500 180 L 255.500 196.500 258.738 203 C 264.296 214.158, 265.838 216.458, 271.246 221.658 C 291.504 241.140, 320.294 240.774, 340.252 220.782 C 343.802 217.227, 347.156 212.277, 350.513 205.640 L 355.500 195.780 355.500 180 L 355.500 164.220 350.513 154.360 C 344.856 143.177, 338.345 135.898, 329.207 130.542 C 318.212 124.098, 303.284 122.258, 291.798 125.931 M 72 153 L 72 157 77.500 157 L 83 157 83 153 L 83 149 77.500 149 L 72 149 72 153 M 498 153 L 498 157 503 157 L 508 157 508 153 L 508 149 503 149 L 498 149 498 153 M 229.175 173.250 C 227.511 205.378, 227.075 202, 232.881 202 L 237.762 202 238.360 192.750 C 238.689 187.662, 239.218 177.200, 239.536 169.500 C 239.853 161.800, 240.348 154.262, 240.636 152.750 C 241.154 150.025, 241.109 150, 235.769 150 L 230.379 150 229.175 173.250 M 452.633 165.750 C 452.265 174.412, 451.681 186.113, 451.335 191.750 L 450.705 202 455.759 202 L 460.813 202 461.461 192.250 C 462.461 177.199, 465.541 170.976, 471.973 171.015 C 477.842 171.051, 479.447 174.782, 478.602 186.427 C 478.239 191.417, 477.681 196.963, 477.360 198.750 L 476.777 202 482.283 202 L 487.789 202 488.442 186.750 C 488.801 178.363, 488.713 170.150, 488.246 168.500 C 485.935 160.322, 467.602 159.833, 463.063 167.828 C 462.163 169.413, 462.264 165.642, 463.439 153.750 L 463.810 150 458.556 150 L 453.302 150 452.633 165.750 M 551.660 166.250 C 551.300 175.188, 550.712 186.887, 550.352 192.250 L 549.698 202 554.777 202 L 559.856 202 560.391 196.750 C 560.686 193.863, 561.185 184.300, 561.501 175.500 C 561.817 166.700, 562.342 157.363, 562.667 154.750 L 563.258 150 557.786 150 L 552.314 150 551.660 166.250 M 123.750 155.162 C 121.483 155.990, 121 156.766, 121 159.583 C 121 162.713, 120.748 163, 118 163 C 115.167 163, 115 163.222, 115 167 C 115 170.609, 115.247 171, 117.521 171 L 120.041 171 119.771 184.575 L 119.500 198.150 122.306 200.575 C 126.191 203.933, 136.441 203.631, 137.377 200.131 C 139.273 193.049, 139.310 193.149, 135.019 193.724 C 131.512 194.195, 130.946 193.979, 130.176 191.878 C 129.696 190.570, 129.516 185.338, 129.774 180.250 L 130.245 171 134.622 171 L 139 171 139 167 L 139 163 135 163 L 131 163 131 158.500 C 131 154.477, 130.762 154.008, 128.750 154.079 C 127.513 154.122, 125.263 154.610, 123.750 155.162 M 103.635 164.073 C 101.451 165.791, 101 165.876, 101 164.573 C 101 163.357, 99.891 163, 96.122 163 L 91.243 163 90.554 180.750 C 90.175 190.512, 89.640 199.287, 89.365 200.250 C 88.932 201.767, 89.607 202, 94.433 202 L 100 202 100.006 192.250 C 100.015 176.490, 102.787 170.406, 109.598 171.201 L 113 171.598 113 166.799 C 113 162.018, 112.988 162, 109.635 162 C 107.745 162, 105.115 162.908, 103.635 164.073 M 196.121 163.002 C 192.262 163.914, 191.037 165.384, 191.015 169.132 C 191 171.746, 191.026 171.755, 194.750 170.426 C 200.091 168.520, 208.428 168.606, 210.070 170.584 C 212.268 173.233, 209.929 175.311, 201.682 178.032 C 191.528 181.382, 188.092 183.536, 186.384 187.624 C 183.160 195.339, 189.321 203.022, 198.700 202.985 C 203.503 202.965, 204.821 202.112, 205.910 198.315 L 206.783 195.270 202.573 195.745 C 199.488 196.092, 197.912 195.770, 196.681 194.538 C 193.181 191.038, 195.234 188.509, 204.665 184.699 L 210.830 182.209 210.366 189.855 C 210.111 194.060, 209.761 198.512, 209.590 199.750 C 209.300 201.836, 209.658 202, 214.491 202 L 219.705 202 220.406 186.035 C 221.180 168.442, 220.899 167.129, 215.686 163.950 C 212.286 161.877, 202.829 161.419, 196.121 163.002 M 421.240 163.495 C 407.591 169.427, 406.287 193.748, 419.246 200.687 C 422.910 202.649, 439.192 203.262, 440.829 201.500 C 441.339 200.950, 442.069 198.752, 442.449 196.615 C 443.113 192.891, 443.045 192.760, 440.821 193.456 C 439.544 193.856, 435.975 194.416, 432.889 194.702 C 427.755 195.176, 427.011 194.977, 424.137 192.360 C 422.401 190.780, 420.716 188.045, 420.373 186.250 L 419.750 183 432.767 183 C 445.432 183, 445.798 182.939, 446.345 180.750 C 447.064 177.873, 445.667 171.667, 443.586 168.490 C 439.844 162.780, 428.645 160.277, 421.240 163.495 M 523.907 164.319 C 518.057 167.396, 515.721 172.163, 515.243 182 C 514.764 191.853, 517.336 197.382, 524 200.825 C 527.809 202.794, 529.482 203.066, 534.892 202.600 C 538.408 202.297, 541.483 201.850, 541.726 201.607 C 541.969 201.364, 542.413 199.342, 542.711 197.115 L 543.255 193.064 538.211 193.661 C 531.089 194.505, 528.515 193.605, 526.619 189.610 C 524.571 185.294, 524.565 181.127, 526.601 176.039 C 528.576 171.103, 532.823 169.504, 539.802 171.068 C 542.257 171.618, 544.446 171.888, 544.666 171.667 C 544.886 171.447, 544.776 169.453, 544.422 167.236 C 543.865 163.757, 543.365 163.123, 540.764 162.603 C 534.523 161.355, 528.347 161.983, 523.907 164.319 M 579.500 163.573 C 571.928 167.511, 568.057 174.162, 568.022 183.290 C 567.994 190.754, 570.681 196.117, 576.271 199.750 C 580.094 202.236, 581.340 202.494, 589.262 202.438 C 594.081 202.404, 598.409 201.954, 598.881 201.438 C 599.353 200.922, 600.001 198.773, 600.321 196.662 C 600.826 193.333, 600.677 192.911, 599.201 193.483 C 596.243 194.629, 588.270 195.284, 585.558 194.604 C 581.532 193.593, 579 190.465, 579 186.500 L 579 183 591.500 183 L 604 183 604 177.732 C 604 171.322, 600.544 165.543, 595.433 163.408 C 590.982 161.548, 583.239 161.628, 579.500 163.573 M 29 163.980 C 29 164.576, 29.675 166.680, 30.500 168.654 C 31.325 170.629, 32 172.971, 32 173.859 C 32 174.746, 34.087 181.442, 36.637 188.736 L 41.275 202 46.637 202 C 49.898 202, 52 201.565, 52 200.891 C 52 200.281, 54.097 194.993, 56.659 189.141 C 59.222 183.288, 62.308 175.800, 63.516 172.500 C 64.725 169.200, 66.052 165.713, 66.464 164.750 C 67.123 163.213, 66.588 163, 62.071 163 L 56.929 163 54.934 167.653 C 53.837 170.212, 52.517 174.193, 52 176.500 C 51.483 178.807, 50.108 182.900, 48.945 185.597 L 46.829 190.500 44.569 183 C 43.326 178.875, 41.677 172.800, 40.904 169.500 L 39.500 163.500 34.250 163.198 C 30.958 163.008, 29 163.300, 29 163.980 M 71.631 180.250 C 71.259 189.738, 70.686 198.512, 70.360 199.750 C 69.798 201.883, 70.053 202, 75.287 202 L 80.808 202 81.373 191.750 C 81.684 186.113, 82.148 177.338, 82.404 172.250 L 82.870 163 77.590 163 L 72.309 163 71.631 180.250 M 143.647 170.651 C 143.291 174.859, 143 182.223, 143 187.016 C 143 194.292, 143.339 196.161, 145.054 198.341 C 149.295 203.734, 161.048 204.244, 166.249 199.261 L 169 196.626 169 199.313 C 169 201.860, 169.253 202, 173.852 202 L 178.705 202 179.387 185.750 C 179.762 176.813, 180.329 168.037, 180.646 166.250 L 181.223 163 175.737 163 L 170.252 163 169.803 174.250 C 169.297 186.954, 167.855 190.989, 163.122 192.950 C 160.723 193.943, 159.605 193.920, 157.325 192.828 L 154.500 191.476 154.223 177.238 L 153.945 163 149.119 163 L 144.293 163 143.647 170.651 M 372.606 172.250 C 374.457 177.338, 375.978 182.195, 375.986 183.045 C 375.994 183.895, 377.278 188.395, 378.841 193.045 L 381.682 201.500 387.498 201.500 L 393.314 201.500 394.786 197 C 395.596 194.525, 398.652 186.875, 401.576 180 C 409.282 161.886, 409.210 163, 402.674 163 C 397.119 163, 396 163.796, 396 167.747 C 396 168.619, 394.089 174.317, 391.753 180.411 L 387.507 191.490 386.654 186.995 C 386.184 184.523, 384.482 178.113, 382.871 172.750 L 379.942 163 374.591 163 L 369.241 163 372.606 172.250 M 497.994 174.250 C 497.991 180.438, 497.699 189.213, 497.346 193.750 L 496.704 202 502.352 202 L 508 202 508 182.500 L 508 163 503 163 L 498 163 497.994 174.250 M 425.364 170.170 C 423.477 171.083, 421.001 174.843, 420.999 176.797 C 420.999 177.184, 423.812 177.412, 427.249 177.304 C 430.687 177.196, 434.318 177.083, 435.317 177.054 C 436.732 177.012, 436.983 176.501, 436.449 174.750 C 434.840 169.469, 430.507 167.679, 425.364 170.170 M 581.455 171.455 C 577.170 175.739, 578.110 176.803, 586.502 177.171 C 593.996 177.500, 594.005 177.497, 594.002 174.905 C 593.997 169.084, 586.019 166.890, 581.455 171.455" stroke="none" fill="#05446b" fill-rule="evenodd"/></svg>