<svg xmlns="http://www.w3.org/2000/svg" width="300" height="210" viewBox="0 0 300 210" version="1.1"><path d="M 273.028 186.471 C 269.334 190.282, 269.361 191.558, 273.105 190.129 C 274.977 189.414, 275.991 189.665, 277.746 191.278 C 278.981 192.413, 280.214 193.120, 280.484 192.849 C 281.255 192.078, 278.576 183.692, 277.437 183.312 C 276.877 183.126, 274.893 184.547, 273.028 186.471 M 282 193.441 C 282 199.199, 283.315 200.867, 284.411 196.500 C 284.904 194.533, 285.673 194, 288.019 194 C 292.075 194, 291.765 192.584, 287.250 190.481 C 285.188 189.521, 283.163 188.543, 282.750 188.308 C 282.337 188.074, 282 190.384, 282 193.441 M 263 193.540 C 263 193.837, 264.005 195.974, 265.233 198.290 C 267.420 202.413, 267.473 202.443, 267.800 199.741 C 268.024 197.891, 269.101 196.482, 271.067 195.465 C 272.680 194.631, 274 193.735, 274 193.474 C 274 193.213, 271.525 193, 268.500 193 C 265.475 193, 263 193.243, 263 193.540 M 282 201.180 L 277.500 203.317 280.500 203.911 C 282.281 204.264, 283.901 205.418, 284.487 206.753 C 285.739 209.602, 286.606 209.601, 287.370 206.750 C 288.216 203.590, 288.145 198.996, 287.250 199.022 C 286.837 199.034, 284.475 200.005, 282 201.180 M 271.025 201.953 C 269.241 205.287, 268.005 210, 268.915 210 C 269.341 210, 270.479 209.128, 271.444 208.062 C 272.851 206.507, 273.698 206.315, 275.737 207.090 C 279.549 208.539, 279.545 207.565, 275.722 203.393 L 272.270 199.627 271.025 201.953" stroke="none" fill="#cccccd" fill-rule="evenodd"/><path d="M 130.660 0.989 C 119.272 3.039, 111.605 6.096, 107.781 10.113 C 104.516 13.542, 95.528 29.862, 96.416 30.749 C 96.599 30.932, 100.453 28.603, 104.979 25.573 C 119.357 15.950, 134.285 11.264, 153.589 10.317 C 167.504 9.633, 178.482 10.935, 189.706 14.599 C 193.864 15.956, 197.441 16.893, 197.654 16.680 C 198.219 16.115, 191.271 11.670, 184.432 8.221 C 172.768 2.339, 165.844 0.772, 150 0.430 C 142.025 0.258, 133.322 0.510, 130.660 0.989 M 139.410 14.484 C 126.378 17.319, 109.892 26.019, 98.750 35.940 L 94 40.170 94.015 48.835 C 94.036 60.532, 94.771 61.302, 99.441 54.521 C 112.201 35.994, 139.974 19.520, 164.631 15.853 C 170.212 15.023, 171.893 14.466, 170.481 13.914 C 167.266 12.658, 146.009 13.048, 139.410 14.484 M 168.366 20.505 C 163.378 22.991, 158.183 27.516, 159.177 28.510 C 159.462 28.795, 160.917 28.066, 162.411 26.891 C 165.058 24.809, 165.213 24.800, 168.413 26.523 C 172.950 28.966, 176.868 27.912, 177.642 24.041 C 178.158 21.461, 178.490 21.236, 180.593 22.035 C 182.460 22.745, 183.172 22.547, 183.947 21.100 C 185.324 18.525, 184.406 18, 178.530 18 C 175.052 18, 171.769 18.809, 168.366 20.505 M 151 21.344 C 142.359 23.921, 132.548 28.712, 125.827 33.635 C 118.366 39.099, 106.904 52.011, 101.710 60.800 L 96.919 68.907 99.602 74.204 C 105.239 85.334, 104.796 85.315, 109.013 74.593 C 113.775 62.487, 122.333 49.636, 132.020 40.044 C 139.642 32.497, 151.584 23.738, 157.080 21.664 C 158.686 21.058, 160 20.210, 160 19.781 C 160 18.715, 159.560 18.791, 151 21.344 M 170.250 22.031 C 167.500 23.137, 167.445 23.633, 169.928 24.961 C 172.453 26.313, 175 25.274, 175 22.893 C 175 20.843, 173.763 20.619, 170.250 22.031 M 191.738 22.578 C 183.117 25.616, 173.427 31.695, 165.868 38.806 L 157.957 46.248 156.229 42.134 C 155.278 39.872, 154.151 38.016, 153.725 38.010 C 152.380 37.993, 145.138 50.193, 141.902 57.926 C 137.789 67.757, 134.430 81.286, 132.959 93.939 C 131.534 106.196, 130.949 105.438, 144.105 108.382 L 146.711 108.965 147.284 96.733 C 147.989 81.704, 150.500 71.488, 156.438 59.500 C 163.819 44.596, 174.356 33.701, 188.500 26.347 C 196.276 22.305, 196.508 22.157, 195.917 21.626 C 195.688 21.420, 193.807 21.848, 191.738 22.578 M 149.278 28.973 C 132.604 40.108, 118.492 61.025, 112.898 82.898 L 110.990 90.360 113.245 92.786 C 114.485 94.121, 117.363 96.502, 119.641 98.079 L 123.781 100.945 124.377 98.723 C 124.705 97.500, 124.985 94.925, 125.001 93 C 125.117 78.749, 135.729 55.343, 149.109 39.829 C 151.799 36.710, 154 33.193, 154 32.013 C 154 30.834, 154.486 28.960, 155.081 27.849 C 156.868 24.509, 155.593 24.756, 149.278 28.973 M 21.616 109.872 C 20.256 111.375, -0 157.009, -0 158.570 C -0 158.807, 7.122 159, 15.826 159 C 30.983 159, 31.735 158.905, 33.635 156.750 C 34.726 155.512, 36.138 153.277, 36.773 151.781 L 37.928 149.063 26.534 148.781 L 15.139 148.500 17.197 143.750 L 19.255 139 25.676 139 L 32.098 139 34.027 134.750 C 36.894 128.434, 36.722 128.132, 30.067 127.798 L 24.134 127.500 26.194 122.750 L 28.255 118 39.663 118 L 51.071 118 53.036 113.417 C 54.116 110.896, 55 108.646, 55 108.417 C 55 108.188, 47.870 108, 39.155 108 C 24.940 108, 23.136 108.193, 21.616 109.872 M 54.705 122.250 C 53.453 123.183, 38 156.888, 38 158.687 C 38 158.859, 45.130 159, 53.845 159 C 67.672 159, 69.892 158.777, 71.276 157.248 C 73.029 155.311, 79 142.486, 79 140.657 C 79.001 139.868, 76.562 139.550, 71.335 139.657 C 64.414 139.799, 63.544 140.042, 62.370 142.157 C 60.410 145.691, 60.732 147, 63.559 147 C 65.010 147, 65.851 147.433, 65.500 148 C 65.160 148.550, 62.243 149, 59.017 149 L 53.153 149 56.939 140.250 L 60.724 131.500 66.924 131.201 C 72.836 130.915, 73.074 130.993, 72.062 132.885 C 70.125 136.504, 70.753 137.119, 76.063 136.802 L 81.125 136.500 84.490 128.750 L 87.855 121 72.119 121 C 61.091 121, 55.880 121.374, 54.705 122.250 M 91.564 123.262 C 90.250 125.268, 81 145.742, 81 146.645 C 81 146.840, 83.475 147, 86.500 147 C 89.525 147, 92 147.212, 92 147.471 C 92 147.731, 90.890 150.454, 89.532 153.523 L 87.065 159.102 92.282 158.801 L 97.500 158.500 100.500 152.753 C 103.486 147.032, 103.521 147.006, 108.076 147.003 C 111.556 147.001, 113.132 146.462, 114.661 144.750 C 116.540 142.647, 125 123.972, 125 121.928 C 125 121.418, 123.045 121, 120.655 121 C 115.407 121, 113.922 122.414, 110.916 130.268 L 108.722 136 102.861 136 C 99.638 136, 97 135.750, 97 135.445 C 97 135.140, 98.330 131.765, 99.955 127.945 L 102.911 121 97.978 121 C 93.959 121, 92.772 121.419, 91.564 123.262 M 129.817 122.750 C 128.659 124.107, 117.866 148.367, 114.391 157.423 C 113.895 158.716, 114.602 159, 118.320 159 C 123.358 159, 125.848 156.826, 128.171 150.403 L 129.402 147 139.590 147 C 147.828 147, 150.180 146.665, 151.874 145.250 C 153.700 143.725, 163 124.170, 163 121.855 C 163 121.385, 155.870 121, 147.155 121 C 133.300 121, 131.123 121.220, 129.817 122.750 M 167.073 123.635 C 165.933 125.084, 165 126.622, 165 127.053 C 165 127.484, 164.736 128.525, 164.413 129.366 C 163.938 130.603, 164.870 130.953, 169.300 131.198 L 174.773 131.500 168.890 145 C 165.655 152.425, 163.006 158.613, 163.004 158.750 C 162.991 159.635, 171.932 158.766, 173.298 157.750 C 174.222 157.063, 177.395 150.875, 180.348 144 L 185.718 131.500 191.359 131.200 C 197.289 130.885, 198.380 129.929, 200.441 123.250 L 201.135 121 185.140 121 L 169.145 121 167.073 123.635 M 205.731 122.750 C 204.244 124.399, 190 156.502, 190 158.206 C 190 158.643, 191.992 159, 194.427 159 C 199.387 159, 201.950 156.713, 204.021 150.438 C 205.143 147.035, 205.216 147, 211.078 147 C 214.335 147, 217 147.188, 217 147.417 C 217 147.646, 216.100 149.934, 215 152.500 C 213.900 155.066, 213 157.579, 213 158.083 C 213 159.813, 221.598 159.109, 223.169 157.250 C 224.510 155.662, 239 123.039, 239 121.607 C 239 121.273, 231.870 121, 223.155 121 C 209.333 121, 207.108 121.223, 205.731 122.750 M 243.731 122.750 C 242.244 124.399, 228 156.502, 228 158.206 C 228 159.841, 236.663 159.031, 238.219 157.250 C 239.719 155.534, 254 123.489, 254 121.840 C 254 120.176, 245.363 120.942, 243.731 122.750 M 258.731 122.750 C 257.244 124.399, 243 156.502, 243 158.206 C 243 158.643, 244.992 159, 247.427 159 C 252.387 159, 254.950 156.713, 257.021 150.438 C 258.855 144.878, 262.040 145.696, 267 153 L 271.075 159 278.037 159 C 281.867 159, 285 158.756, 285 158.457 C 285 158.159, 283.253 155.549, 281.117 152.658 L 277.234 147.402 279.892 145.877 C 281.849 144.754, 283.795 141.417, 287.275 133.216 C 289.874 127.092, 292 121.838, 292 121.540 C 292 121.243, 284.870 121, 276.155 121 C 262.333 121, 260.108 121.223, 258.731 122.750 M 136 131.918 C 136 132.423, 135.727 133.548, 135.393 134.418 C 134.884 135.744, 135.688 136, 140.358 136 C 144.843 136, 146.132 135.623, 146.965 134.066 C 148.556 131.093, 148.405 131, 142 131 C 138.700 131, 136 131.413, 136 131.918 M 211.182 133.500 L 210.043 136 215.986 136 C 220.839 136, 222.120 135.645, 222.965 134.066 C 224.553 131.098, 224.400 131, 218.161 131 C 212.902 131, 212.208 131.249, 211.182 133.500 M 265 131.918 C 265 132.423, 264.727 133.548, 264.393 134.418 C 263.886 135.740, 264.673 136, 269.193 136 C 274.534 136, 277 134.831, 277 132.300 C 277 131.378, 275.256 131, 271 131 C 267.700 131, 265 131.413, 265 131.918 M 0.500 172 C 0.089 172.665, 48.843 173, 146 173 C 243.157 173, 291.911 172.665, 291.500 172 C 290.645 170.616, 1.355 170.616, 0.500 172 M 273.105 190.085 C 270.114 191.281, 270.480 191.648, 275.873 192.860 L 280.189 193.830 277.920 191.415 C 276.672 190.087, 275.617 189.029, 275.576 189.063 C 275.534 189.098, 274.422 189.558, 273.105 190.085 M 2.342 197.564 C 0.941 200.624, 0.100 203.433, 0.472 203.806 C 0.845 204.178, 1.589 203.700, 2.125 202.742 C 3.384 200.492, 7.911 200.496, 9.558 202.748 C 10.261 203.710, 11.120 204.214, 11.466 203.868 C 12.249 203.084, 6.898 192, 5.736 192 C 5.271 192, 3.743 194.504, 2.342 197.564 M 19.011 193.487 C 17.256 195.601, 18.446 197.838, 21.707 198.554 C 26.448 199.595, 27.148 199.951, 26.504 200.993 C 25.546 202.544, 21.864 202.187, 19.829 200.345 C 18.320 198.980, 18 198.945, 18 200.145 C 18 204.238, 26.035 205.672, 28.034 201.936 C 29.347 199.484, 27.800 197, 24.959 197 C 22.239 197, 19.943 195.901, 20.565 194.895 C 21.397 193.548, 25.769 193.820, 26.280 195.250 C 26.525 195.938, 27.068 196.182, 27.487 195.793 C 27.905 195.404, 27.981 194.392, 27.655 193.543 C 26.883 191.531, 20.667 191.491, 19.011 193.487 M 29.500 193 C 29.840 193.550, 30.991 194, 32.059 194 C 33.722 194, 34 194.717, 34 199 C 34 201.750, 34.450 204, 35 204 C 35.550 204, 36 201.750, 36 199 C 36 194.667, 36.267 194, 38 194 C 39.100 194, 40 193.550, 40 193 C 40 192.450, 37.498 192, 34.441 192 C 30.990 192, 29.116 192.379, 29.500 193 M 42.068 197.550 C 39.919 202.734, 39.961 206.607, 42.125 202.742 C 42.661 201.784, 44.180 201, 45.500 201 C 46.820 201, 48.339 201.784, 48.875 202.742 C 49.411 203.700, 50.161 204.172, 50.541 203.792 C 51.510 202.824, 46.882 192, 45.500 192 C 44.877 192, 43.333 194.498, 42.068 197.550 M 54 197.945 C 54 201.315, 54.443 204, 55 204 C 55.550 204, 56 202.875, 56 201.500 C 56 199.389, 56.467 199, 59 199 C 61.533 199, 62 199.389, 62 201.500 C 62 202.875, 62.431 204, 62.958 204 C 63.486 204, 63.823 201.412, 63.708 198.250 L 63.500 192.500 58.750 192.195 L 54 191.890 54 197.945 M 73.739 198 C 72.315 201.300, 71.580 204, 72.106 204 C 72.632 204, 73.322 203.325, 73.638 202.500 C 74.442 200.407, 79.666 200.581, 80.875 202.742 C 81.411 203.700, 82.196 204.137, 82.620 203.714 C 83.499 202.834, 78.463 192, 77.175 192 C 76.709 192, 75.162 194.700, 73.739 198 M 86 198 L 86 204 90.500 204 C 92.975 204, 95 203.550, 95 203 C 95 202.450, 93.425 202, 91.500 202 L 88 202 88 197 C 88 194.250, 87.550 192, 87 192 C 86.444 192, 86 194.667, 86 198 M 96.406 193.386 C 96.113 194.148, 96.015 196.735, 96.187 199.136 C 96.500 203.499, 96.501 203.500, 100.750 203.807 C 103.265 203.989, 105 203.683, 105 203.057 C 105 202.476, 103.650 202, 102 202 C 99.067 202, 99 201.889, 99 197 C 99 192.286, 97.584 190.314, 96.406 193.386 M 107 198 C 107 201.333, 107.444 204, 108 204 C 108.556 204, 109 201.333, 109 198 C 109 194.667, 108.556 192, 108 192 C 107.444 192, 107 194.667, 107 198 M 114.113 197.547 C 112.801 200.579, 112.047 203.380, 112.438 203.772 C 112.830 204.163, 113.589 203.700, 114.125 202.742 C 114.661 201.784, 116.180 201, 117.500 201 C 118.820 201, 120.339 201.784, 120.875 202.742 C 121.411 203.700, 122.161 204.172, 122.541 203.792 C 123.485 202.849, 118.899 191.996, 117.566 192.017 C 116.980 192.026, 115.426 194.515, 114.113 197.547 M 126 198 C 126 201.333, 126.444 204, 127 204 C 127.550 204, 128 202.119, 128 199.820 L 128 195.640 131.578 199.820 C 133.546 202.119, 135.571 204, 136.078 204 C 136.585 204, 137 201.300, 137 198 C 137 194.667, 136.556 192, 136 192 C 135.450 192, 134.991 193.912, 134.980 196.250 L 134.961 200.500 131.397 196.250 C 129.438 193.912, 127.421 192, 126.917 192 C 126.413 192, 126 194.700, 126 198 M 141.571 193.571 C 140.707 194.436, 140 196.429, 140 198 C 140 201.617, 142.350 204, 145.916 204 C 148.784 204, 152 201.355, 152 198.997 C 152 198.108, 151.214 198.390, 149.686 199.826 C 145.954 203.332, 142 202.087, 142 197.407 C 142 194.059, 148.466 192.444, 149.638 195.500 C 150.268 197.141, 152 197.560, 152 196.071 C 152 194.189, 148.775 192, 146 192 C 144.429 192, 142.436 192.707, 141.571 193.571 M 155 198 L 155 204 160 204 C 162.750 204, 165 203.550, 165 203 C 165 202.450, 163.200 202, 161 202 C 158.111 202, 157 201.583, 157 200.500 C 157 199.452, 158.056 199, 160.500 199 C 162.425 199, 164 198.550, 164 198 C 164 197.450, 162.425 197, 160.500 197 C 158.056 197, 157 196.548, 157 195.500 C 157 194.457, 158.049 194, 160.441 194 C 162.334 194, 164.160 193.550, 164.500 193 C 164.881 192.384, 163.177 192, 160.059 192 L 155 192 155 198 M 171.406 193.386 C 171.113 194.148, 171.015 196.735, 171.187 199.136 C 171.557 204.293, 173.560 204.168, 173.375 199 L 173.250 195.500 175.322 199.750 C 177.806 204.844, 179.298 205.102, 181.112 200.750 L 182.466 197.500 182.993 200.500 C 183.831 205.273, 185.500 203.498, 185.500 197.833 C 185.500 191.108, 183.749 190.602, 180.768 196.467 L 178.431 201.066 176.228 196.533 C 173.994 191.935, 172.369 190.874, 171.406 193.386 M 188 198 L 188 204 193 204 C 195.750 204, 198 203.550, 198 203 C 198 202.450, 196.200 202, 194 202 C 191.111 202, 190 201.583, 190 200.500 C 190 199.457, 191.049 199, 193.441 199 C 195.334 199, 197.160 198.550, 197.500 198 C 197.873 197.396, 196.510 197, 194.059 197 C 191.118 197, 190 196.587, 190 195.500 C 190 194.417, 191.111 194, 194 194 C 196.200 194, 198 193.550, 198 193 C 198 192.450, 195.750 192, 193 192 L 188 192 188 198 M 200.406 193.386 C 199.476 195.808, 200.451 203.328, 201.750 203.756 C 202.604 204.036, 203 202.956, 203 200.349 L 203 196.531 204.840 199.962 C 205.852 201.849, 207.110 203.537, 207.636 203.712 C 208.161 203.887, 209.555 202.111, 210.734 199.765 L 212.876 195.500 212.938 199.750 C 212.972 202.088, 213.450 204, 214 204 C 214.556 204, 215 201.333, 215 198 C 215 190.498, 213.074 189.962, 209.735 196.533 L 207.431 201.066 205.228 196.533 C 202.994 191.935, 201.369 190.874, 200.406 193.386 M 217 198 L 217 204 221.378 204 C 226.519 204, 227.800 202.763, 227.594 198 C 227.374 192.931, 226.419 192, 221.441 192 L 217 192 217 198 M 231 198 L 231 204 235.441 204 C 237.884 204, 240.160 203.550, 240.500 203 C 240.873 202.396, 239.510 202, 237.059 202 C 234.118 202, 233 201.587, 233 200.500 C 233 199.452, 234.056 199, 236.500 199 C 238.425 199, 240 198.550, 240 198 C 240 197.450, 238.425 197, 236.500 197 C 234.056 197, 233 196.548, 233 195.500 C 233 194.452, 234.056 194, 236.500 194 C 238.425 194, 240 193.550, 240 193 C 240 192.450, 237.975 192, 235.500 192 L 231 192 231 198 M 243 197.945 C 243 201.315, 243.443 204, 244 204 C 244.550 204, 245 202.875, 245 201.500 C 245 199.389, 245.467 199, 248 199 C 250.533 199, 251 199.389, 251 201.500 C 251 202.875, 251.568 204, 252.262 204 C 253.191 204, 253.389 202.483, 253.012 198.250 L 252.500 192.500 247.750 192.195 L 243 191.890 243 197.945 M 294.242 193.227 C 294.476 193.927, 295.154 194.500, 295.750 194.500 C 296.346 194.500, 297.171 194.838, 297.583 195.250 C 298.882 196.548, 300 196.068, 300 194.213 C 300 192.933, 299.123 192.359, 296.909 192.190 C 294.778 192.028, 293.950 192.350, 294.242 193.227 M 288.503 193.740 C 285.451 194.189, 284.043 195.465, 284.015 197.807 C 284.004 198.772, 284.804 198.641, 287.077 197.307 C 289.545 195.858, 293.358 192.552, 291.872 193.150 C 291.668 193.232, 290.151 193.498, 288.503 193.740 M 56 195.500 C 56 196.500, 57 197, 59 197 C 61 197, 62 196.500, 62 195.500 C 62 194.500, 61 194, 59 194 C 57 194, 56 194.500, 56 195.500 M 219 195.500 C 219 196.500, 220 197, 222 197 C 224 197, 225 196.500, 225 195.500 C 225 194.500, 224 194, 222 194 C 220 194, 219 194.500, 219 195.500 M 245 195.500 C 245 196.500, 246 197, 248 197 C 250 197, 251 196.500, 251 195.500 C 251 194.500, 250 194, 248 194 C 246 194, 245 194.500, 245 195.500 M 270.750 195.572 C 268.614 196.731, 268.007 197.782, 268.032 200.282 C 268.062 203.382, 268.120 203.427, 269.608 201.500 C 271.212 199.423, 274.258 193.970, 273.776 194.040 C 273.624 194.062, 272.262 194.751, 270.750 195.572 M 44.638 196.500 C 44.291 197.405, 44.633 198, 45.500 198 C 46.367 198, 46.709 197.405, 46.362 196.500 C 46.045 195.675, 45.657 195, 45.500 195 C 45.343 195, 44.955 195.675, 44.638 196.500 M 76.638 196.500 C 76.291 197.405, 76.633 198, 77.500 198 C 78.367 198, 78.709 197.405, 78.362 196.500 C 78.045 195.675, 77.657 195, 77.500 195 C 77.343 195, 76.955 195.675, 76.638 196.500 M 116.638 196.500 C 116.291 197.405, 116.633 198, 117.500 198 C 118.367 198, 118.709 197.405, 118.362 196.500 C 118.045 195.675, 117.657 195, 117.500 195 C 117.343 195, 116.955 195.675, 116.638 196.500 M 219 200.563 C 219 201.719, 219.828 202.045, 222.173 201.813 C 226.757 201.361, 227.102 199, 222.583 199 C 220 199, 219 199.436, 219 200.563 M 278 204.298 C 278 204.999, 285.524 210.001, 286.554 209.985 C 287.102 209.976, 287.079 209.660, 286.500 209.235 C 285.950 208.831, 285.005 207.600, 284.399 206.500 C 283.479 204.828, 278 202.943, 278 204.298 M 271.427 208.081 C 269.759 209.923, 269.786 209.996, 272.095 209.900 C 273.418 209.845, 275.625 209.483, 277 209.096 L 279.500 208.390 276.332 207.276 C 273.612 206.319, 272.918 206.433, 271.427 208.081" stroke="none" fill="#042458" fill-rule="evenodd"/></svg>