<svg xmlns="http://www.w3.org/2000/svg" width="1280" height="800" viewBox="0 0 1280 800" version="1.1"><path d="M 166.500 23.106 C 118.933 28.098, 76.609 52.346, 47.993 91 C 44.070 96.299, 37.877 106.691, 33.989 114.500 C 24.167 134.226, 19.661 148.986, 17.053 169.974 C 15.589 181.758, 15.589 627.242, 17.053 639.026 C 19.661 660.014, 24.167 674.774, 33.989 694.500 C 59.784 746.305, 109.106 779.999, 167.856 785.951 C 182.329 787.417, 1106.671 787.417, 1121.144 785.951 C 1160.177 781.997, 1193.872 766.569, 1221.274 740.106 C 1236.126 725.762, 1246.409 711.870, 1255.032 694.500 C 1262.888 678.676, 1266.905 667.104, 1270.219 650.755 L 1272.500 639.500 1272.500 404.500 L 1272.500 169.500 1270.219 158.245 C 1266.905 141.896, 1262.888 130.324, 1255.032 114.500 C 1246.409 97.130, 1236.126 83.238, 1221.274 68.894 C 1193.922 42.479, 1160.106 26.996, 1121.144 23.049 C 1108.488 21.767, 178.730 21.822, 166.500 23.106 M 165.675 33.051 C 140.474 35.999, 116.507 44.747, 96.043 58.467 C 61.120 81.882, 37.771 116.460, 28.746 158.130 L 26.500 168.500 26.500 404.500 L 26.500 640.500 28.746 650.870 C 35.502 682.060, 50.191 709.156, 72.194 731.011 C 95.358 754.020, 122.770 768.273, 156.264 774.722 C 165.036 776.411, 189.514 776.500, 644 776.500 C 1036.481 776.500, 1123.848 776.262, 1130 775.177 C 1165.136 768.978, 1193.961 754.087, 1217.962 729.737 C 1229.939 717.585, 1238.566 705.417, 1246.487 689.500 C 1253.552 675.302, 1256.851 665.983, 1260.269 650.565 L 1262.500 640.500 1262.500 404.500 L 1262.500 168.500 1260.269 158.435 C 1256.851 143.017, 1253.552 133.698, 1246.487 119.500 C 1238.566 103.583, 1229.939 91.415, 1217.962 79.263 C 1194.746 55.710, 1168.319 41.649, 1133.425 34.285 C 1126.088 32.737, 1090.146 32.599, 649 32.433 C 386.925 32.334, 169.429 32.612, 165.675 33.051 M 133.750 584.530 C 133.338 584.972, 133 586.536, 133 588.005 L 133 590.677 164.663 591.338 C 182.078 591.702, 413.603 592, 679.163 592 L 1162 592 1162 588.500 L 1162 585 731.250 584.999 C 494.337 584.999, 263.150 584.713, 217.500 584.363 C 171.850 584.014, 134.162 584.089, 133.750 584.530 M 469 613.500 L 469 620 475.500 620 L 482 620 482 613.500 L 482 607 475.500 607 L 469 607 469 613.500 M 487 613.500 L 487 620 493 620 L 499 620 499 613.500 L 499 607 493 607 L 487 607 487 613.500 M 162.286 626.397 C 144.122 632.307, 133.834 649.121, 135.300 670.500 C 135.978 680.386, 137.998 687.144, 142.143 693.403 C 154.737 712.416, 184.289 715.758, 201.285 700.092 C 214.622 687.798, 218.074 662.786, 208.912 644.827 C 205.703 638.537, 198.370 631.326, 192.126 628.319 C 187.370 626.029, 184.953 625.565, 176.500 625.318 C 169.990 625.127, 165.029 625.504, 162.286 626.397 M 473.286 626.451 C 454.330 632.375, 443.368 652.374, 446.838 674.699 C 450.494 698.214, 466.285 711.287, 489.149 709.725 C 504.060 708.707, 516.917 699.556, 522.082 686.285 C 525.440 677.655, 525.946 661.472, 523.145 652.252 C 519.297 639.584, 510.058 629.877, 498.614 626.478 C 492.541 624.675, 479.016 624.660, 473.286 626.451 M 553.365 626.089 C 551.640 626.589, 548.059 628.461, 545.407 630.249 C 538.881 634.648, 535.620 641.026, 535.639 649.352 C 535.655 656.131, 537.219 659.984, 541.661 664.186 C 545.213 667.547, 547.382 668.361, 562.942 672.172 C 581.394 676.692, 585 678.950, 585 685.984 C 585 690.626, 582.546 694.513, 578.362 696.498 C 573.893 698.619, 561.351 698.960, 555.800 697.110 C 550.622 695.385, 546.291 690.125, 545.454 684.542 L 544.773 680 538.886 680 L 533 680 533 683.757 C 533 702.554, 552.510 713.898, 576.201 708.877 C 591.832 705.564, 600.356 693.719, 597.139 679.782 C 594.724 669.320, 588.500 664.853, 571 661.020 C 550.887 656.615, 548 655.072, 548 648.728 C 548 641.725, 553.178 637.247, 562.363 636.306 C 572.990 635.217, 581.351 640.087, 582.634 648.112 L 583.256 652 589.603 652 L 595.950 652 595.372 648.750 C 593.770 639.741, 592.687 637.377, 588.149 632.980 C 582.141 627.159, 575.613 624.968, 564.635 625.090 C 560.161 625.140, 555.089 625.589, 553.365 626.089 M 1030.300 626.806 C 1027.440 627.825, 1023.292 629.912, 1021.082 631.443 C 999.736 646.236, 1000.171 690.369, 1021.798 704.087 C 1031.453 710.212, 1042.723 711.565, 1054.298 707.990 C 1065.716 704.463, 1073.775 694.900, 1076.835 681.250 L 1077.787 677 1071.413 677 C 1065.286 677, 1065.012 677.107, 1064.376 679.750 C 1061.695 690.885, 1054.733 697.168, 1044.340 697.829 C 1027.823 698.881, 1019 688.495, 1019 668 C 1019 647.628, 1027.561 636.750, 1043.594 636.750 C 1053.138 636.750, 1058.621 639.841, 1062.319 647.309 L 1065.138 653 1071.148 653 L 1077.159 653 1076.504 649.750 C 1074.551 640.050, 1067.917 631.655, 1059.051 627.662 C 1052.512 624.717, 1037.425 624.268, 1030.300 626.806 M 224 667.583 L 224 708.166 246.250 707.809 C 270.754 707.416, 272.440 707.064, 279.480 700.884 C 284.579 696.406, 286.951 690.929, 286.978 683.566 C 287.011 674.597, 283.411 668.734, 275.237 664.445 C 275.092 664.369, 276.505 662.684, 278.376 660.700 C 288.260 650.220, 283.194 632.371, 269.142 628.161 C 266.745 627.442, 257.401 627, 244.634 627 L 224 627 224 667.583 M 299 667.500 L 299 708 329 708 L 359 708 359 702 L 359 696 335.500 696 L 312 696 312 684 L 312 672 333.500 672 L 355 672 355 666 L 355 660 333.500 660 L 312 660 312 649.518 L 312 639.037 335.250 638.768 L 358.500 638.500 358.800 632.750 L 359.100 627 329.050 627 L 299 627 299 667.500 M 372 667.423 L 372 708 378.500 708 L 385 708 385 691 L 385 674 399.032 674 C 414.293 674, 418.897 675.070, 421.066 679.123 C 421.740 680.383, 422.651 686.948, 423.090 693.712 C 423.528 700.475, 424.164 706.457, 424.503 707.004 C 424.841 707.552, 428.466 708, 432.559 708 C 439.023 708, 440 707.767, 440 706.222 C 440 705.244, 439.170 703.734, 438.155 702.865 C 436.643 701.570, 436.183 699.148, 435.602 689.431 C 434.862 677.051, 433.395 672.091, 429.712 669.511 C 427.724 668.118, 427.754 668.014, 431.276 664.116 C 436.926 657.862, 438.457 649.382, 435.466 640.904 C 433.617 635.663, 430.837 632.525, 425.500 629.653 C 421.769 627.645, 419.835 627.478, 396.750 627.173 L 372 626.846 372 667.423 M 602.200 632.750 L 602.500 638.500 615.750 638.779 L 629 639.058 629 673.529 L 629 708 635.500 708 L 642 708 642 673.500 L 642 639 654.864 639 L 667.728 639 668.364 634.360 C 668.714 631.809, 669 629.109, 669 628.360 C 669 627.240, 663.076 627, 635.450 627 L 601.900 627 602.200 632.750 M 677 667.500 L 677 708 707.500 708 L 738 708 738 702 L 738 696 714 696 L 690 696 690 684 L 690 672 711.500 672 L 733 672 733 666 L 733 660 711.500 660 L 690 660 690 649.518 L 690 639.037 713.250 638.768 L 736.500 638.500 736.800 632.750 L 737.100 627 707.050 627 L 677 627 677 667.500 M 751 667.548 L 751 708.095 757.250 707.798 L 763.500 707.500 763.118 690.660 L 762.737 673.820 778.952 674.160 L 795.167 674.500 797.922 677.585 C 800.478 680.447, 800.723 681.492, 801.326 692.085 C 802.277 708.795, 801.813 708, 810.617 708 C 816.849 708, 818 707.740, 818 706.329 C 818 705.410, 817.264 703.844, 816.365 702.850 C 815.155 701.514, 814.532 697.949, 813.970 689.154 C 813.185 676.853, 812.440 674.309, 808.331 669.896 L 805.906 667.292 808.338 665.698 C 812.037 663.274, 815.001 656.256, 814.994 649.934 C 814.986 642.102, 813.497 637.830, 809.317 633.650 C 803.469 627.802, 799.128 627, 773.318 627 L 751 627 751 667.548 M 830 667.500 L 830 708 836.500 708 L 843 708 843 691 L 843 674 857.032 674 C 872.032 674, 876.902 675.080, 878.923 678.856 C 879.519 679.970, 880.397 686.481, 880.873 693.326 C 881.350 700.170, 882.050 706.272, 882.429 706.885 C 882.836 707.543, 886.165 708, 890.559 708 C 896.994 708, 898 707.762, 898 706.241 C 898 705.273, 897.156 703.954, 896.124 703.310 C 894.538 702.319, 894.136 700.314, 893.521 690.319 C 892.733 677.525, 891.520 673.308, 887.662 669.953 L 885.171 667.788 888.589 664.788 C 897.081 657.332, 896.416 639.192, 887.390 632.092 C 882.002 627.854, 876.123 627, 852.318 627 L 830 627 830 667.500 M 909 667.500 L 909 708 939.500 708 L 970 708 970 702 L 970 696 946 696 L 922 696 922 684 L 922 672 943.500 672 L 965 672 965 666 L 965 660 943.500 660 L 922 660 922 649.518 L 922 639.037 945.250 638.768 L 968.500 638.500 968.800 632.750 L 969.100 627 939.050 627 L 909 627 909 667.500 M 977 667.500 L 977 708 983.500 708 L 990 708 990 667.500 L 990 627 983.500 627 L 977 627 977 667.500 M 1091 667.500 L 1091 708 1097.500 708 L 1104 708 1104 689.500 L 1104 671 1123.500 671 L 1143 671 1143 689.500 L 1143 708 1149.500 708 L 1156 708 1156 667.500 L 1156 627 1149.500 627 L 1143 627 1143 643 L 1143 659 1123.500 659 L 1104 659 1104 643 L 1104 627 1097.500 627 L 1091 627 1091 667.500 M 169.326 637.023 C 163.304 638.245, 159.683 640.384, 155.634 645.114 C 150.757 650.812, 148.582 657.717, 148.582 667.500 C 148.582 678.358, 150.954 685.055, 156.894 690.969 C 161.961 696.014, 166.933 698, 174.500 698 C 185.093 698, 192.865 693.047, 197.689 683.224 C 200.211 678.089, 200.497 676.471, 200.470 667.500 C 200.446 659.290, 200.032 656.586, 198.158 652.393 C 192.974 640.789, 181.339 634.587, 169.326 637.023 M 480.120 637.069 C 465.798 639.918, 457.937 654.415, 460.200 673.806 C 461.954 688.832, 471.853 698.028, 486.218 697.978 C 496.909 697.941, 504.568 692.762, 509.111 682.500 C 511.827 676.365, 512.672 665.555, 511.048 657.732 C 508.023 643.159, 494.597 634.189, 480.120 637.069 M 237 648.900 L 237 660 249.250 659.998 C 264.151 659.997, 267.787 658.685, 269.776 652.593 C 270.743 649.630, 270.783 647.874, 269.942 645.325 C 268.155 639.908, 264.511 638.619, 249.750 638.179 L 237 637.799 237 648.900 M 385 650.500 L 385 663 398.250 662.923 C 413.274 662.836, 418.397 661.689, 421.336 657.752 C 423.923 654.287, 424.115 646.351, 421.702 642.668 C 419.298 638.999, 414.437 638.012, 398.750 638.006 L 385 638 385 650.500 M 764 650.500 L 764 663 776.250 662.976 C 790.650 662.948, 795.420 662.035, 798.796 658.659 C 801.769 655.686, 802.820 647.909, 800.778 644 C 798.248 639.156, 793.918 638.003, 778.250 638.002 L 764 638 764 650.500 M 843 650.500 L 843 663 855.750 662.994 C 876.350 662.985, 881 660.626, 881 650.182 C 881 645.203, 880.604 643.877, 878.486 641.759 C 875.203 638.476, 872.402 638, 856.375 638 L 843 638 843 650.500 M 237 684.029 L 237 697.280 250.770 696.785 C 269.815 696.100, 274.032 693.689, 273.968 683.527 C 273.934 678.043, 273.020 676.340, 268.557 673.434 C 266.090 671.827, 263.306 671.458, 251.307 671.148 L 237 670.778 237 684.029" stroke="none" fill="#1b1814" fill-rule="evenodd"/><path d="M 675 310.500 L 675 533 698 533 L 721 533 721 437.072 C 721 374.262, 721.370 338.483, 722.072 333.434 C 729.280 281.616, 771.169 241.587, 824 236.033 C 836.886 234.679, 999.667 234.680, 1012.869 236.034 C 1061.574 241.033, 1100.091 273.937, 1112.072 320.781 C 1115.527 334.289, 1115.983 348.365, 1115.991 441.769 L 1116 533.038 1138.750 532.769 L 1161.500 532.500 1161.786 442 C 1162.074 350.529, 1161.595 332.655, 1158.442 317.354 C 1146.836 261.027, 1105.291 214.572, 1051 197.214 C 1026.373 189.340, 1020.808 188.996, 918.644 189.026 C 832.179 189.051, 819.006 189.461, 803.500 192.606 C 776.902 198, 748.119 212.696, 729.087 230.600 L 721 238.208 721 163.104 L 721 88 698 88 L 675 88 675 310.500 M 271.251 190.130 C 247.971 192.570, 222.754 201.475, 203.500 214.056 C 167.484 237.589, 144.169 271.778, 134.731 314.898 C 132.684 324.249, 132.620 327.221, 132.275 428.750 L 131.922 533 154.961 533 L 178 533 178 474.500 L 178 416 397 416 L 616 416 616 393 L 616 370 397 370 L 178 370 178 353.572 C 178 344.537, 178.483 333.675, 179.072 329.434 C 186.004 279.596, 225.896 241.190, 276.081 236.040 C 282.652 235.365, 344.151 235, 451.106 235 L 616 235 616 212 L 616 189 447.750 189.133 C 355.212 189.206, 275.788 189.655, 271.251 190.130" stroke="none" fill="#a40413" fill-rule="evenodd"/></svg>