<svg xmlns="http://www.w3.org/2000/svg" width="781" height="539" viewBox="0 0 781 539" version="1.1"><path d="M 622.250 151.716 C 623.763 151.945, 626.237 151.945, 627.750 151.716 C 629.263 151.487, 628.025 151.300, 625 151.300 C 621.975 151.300, 620.737 151.487, 622.250 151.716 M 663.272 174 C 663.272 176.475, 663.467 177.488, 663.706 176.250 C 663.944 175.012, 663.944 172.988, 663.706 171.750 C 663.467 170.512, 663.272 171.525, 663.272 174 M 597.435 190.250 C 599.639 199.477, 604.280 208.006, 611.886 216.810 L 614.746 220.121 621.123 218.471 C 630.527 216.039, 640.893 210.873, 646 206.072 C 648.475 203.746, 649.656 202.110, 648.625 202.438 C 644.390 203.783, 629.386 206, 624.519 206 C 620.254 206, 618.496 205.422, 614.900 202.836 C 610.147 199.417, 598 187.197, 598 185.834 C 598 185.375, 597.591 185, 597.090 185 C 596.588 185, 596.742 187.349, 597.435 190.250 M 558.328 195.500 C 558.333 199.350, 558.513 200.802, 558.730 198.728 C 558.946 196.653, 558.943 193.503, 558.722 191.728 C 558.501 189.952, 558.324 191.650, 558.328 195.500 M 566.283 203.630 C 564.631 217.383, 562.498 223.441, 558.082 226.918 C 554.119 230.039, 545.914 234.574, 539 237.464 L 534.500 239.346 538.922 240.351 C 544.850 241.699, 556.589 239.943, 566.130 236.282 L 573.500 233.454 573.788 223.569 C 574.111 212.499, 573.017 205.811, 569.711 198.630 L 567.468 193.760 566.283 203.630 M 322.472 273 C 322.472 309.575, 322.597 324.538, 322.750 306.250 C 322.902 287.962, 322.902 258.038, 322.750 239.750 C 322.597 221.463, 322.472 236.425, 322.472 273 M 581.272 219 C 581.272 221.475, 581.467 222.488, 581.706 221.250 C 581.944 220.012, 581.944 217.988, 581.706 216.750 C 581.467 215.512, 581.272 216.525, 581.272 219 M 631.831 222.689 C 632.799 223.076, 632.389 224.078, 630.331 226.360 L 627.500 229.500 630.714 226.597 C 633.799 223.811, 634.209 221.912, 631.691 222.079 C 630.911 222.131, 630.959 222.341, 631.831 222.689 M 661.400 229.856 C 655.978 233.826, 647.081 243.499, 643.156 249.693 L 639.865 254.885 643.539 260.628 C 648.315 268.095, 657.370 277.545, 662.795 280.725 C 665.158 282.110, 667.283 283.050, 667.519 282.815 C 667.754 282.579, 666.794 280.689, 665.385 278.615 C 661.951 273.562, 657.354 263.537, 655.933 258 C 654.927 254.081, 655.048 252.790, 656.871 248 C 658.022 244.975, 660.953 239.012, 663.385 234.750 C 668.153 226.390, 667.691 225.249, 661.400 229.856 M 520.250 232.716 C 521.763 232.945, 524.237 232.945, 525.750 232.716 C 527.263 232.487, 526.025 232.300, 523 232.300 C 519.975 232.300, 518.737 232.487, 520.250 232.716 M 567.768 261.725 C 569.565 261.947, 572.265 261.943, 573.768 261.715 C 575.271 261.486, 573.800 261.304, 570.500 261.310 C 567.200 261.315, 565.971 261.502, 567.768 261.725 M 535.742 269.559 C 535.325 269.994, 538.570 272.035, 542.953 274.095 C 547.336 276.156, 553.357 279.457, 556.333 281.433 C 561.255 284.700, 561.893 285.559, 563.409 290.960 C 564.325 294.225, 565.647 301.082, 566.348 306.198 L 567.621 315.500 569.310 312.301 C 572.376 306.493, 574 297.844, 574 287.325 C 574 275.562, 574.726 276.519, 562.625 272.329 C 555.342 269.807, 537.288 267.947, 535.742 269.559 M 581 286 C 581 291.133, 581.292 295.042, 581.648 294.685 C 582.346 293.987, 582.145 277.812, 581.430 277.097 C 581.194 276.860, 581 280.867, 581 286 M 104.655 285.250 C 104.909 285.663, 112.265 286, 121 286 C 129.735 286, 137.091 285.663, 137.345 285.250 C 137.600 284.837, 130.245 284.500, 121 284.500 C 111.755 284.500, 104.400 284.837, 104.655 285.250 M 608.699 297.202 C 605.627 301.216, 601.986 306.975, 600.608 310 C 597.832 316.097, 595.787 324, 596.985 324 C 597.410 324, 599.933 321.453, 602.592 318.341 C 605.251 315.229, 610.080 310.729, 613.323 308.341 C 618.682 304.396, 619.749 304, 625.022 304 C 630.249 304, 642.987 305.959, 648.402 307.596 C 650.086 308.105, 649.828 307.525, 647.095 304.657 C 641.817 299.120, 628.322 292.698, 617.393 290.522 C 614.468 289.940, 613.957 290.333, 608.699 297.202 M 558.320 314 C 558.320 317.575, 558.502 319.038, 558.723 317.250 C 558.945 315.462, 558.945 312.538, 558.723 310.750 C 558.502 308.962, 558.320 310.425, 558.320 314 M 620.629 312.791 C 620.360 313.226, 621.796 313.418, 623.820 313.219 C 629.354 312.672, 630.013 312.168, 625.309 312.079 C 623.004 312.036, 620.898 312.356, 620.629 312.791 M 364.250 315.748 C 374.013 315.912, 389.988 315.912, 399.750 315.748 C 409.513 315.585, 401.525 315.451, 382 315.451 C 362.475 315.451, 354.488 315.585, 364.250 315.748 M 161.655 338.250 C 161.909 338.663, 167.941 339, 175.059 339 C 182.177 339, 188 338.663, 188 338.250 C 188 337.837, 181.968 337.500, 174.595 337.500 C 167.223 337.500, 161.400 337.837, 161.655 338.250 M 230.655 338.250 C 230.909 338.663, 233.090 339, 235.500 339 C 237.910 339, 240.091 338.663, 240.345 338.250 C 240.600 337.837, 238.420 337.500, 235.500 337.500 C 232.580 337.500, 230.400 337.837, 230.655 338.250 M 62.250 338.742 C 65.963 338.934, 72.037 338.934, 75.750 338.742 C 79.463 338.549, 76.425 338.392, 69 338.392 C 61.575 338.392, 58.538 338.549, 62.250 338.742" stroke="none" fill="#b1dcf5" fill-rule="evenodd"/><path d="M 613.589 147.118 C 604.244 149.310, 599.066 155.759, 599.022 165.261 C 598.988 172.657, 602.278 178.430, 612.122 188.250 C 620.791 196.897, 620.953 197, 625.859 197 C 632.092 197, 644.461 194.669, 649.597 192.527 C 657.684 189.154, 663 181.805, 663 174 C 663 168.221, 660.972 164.122, 655.732 159.307 C 644.835 149.294, 626.688 144.046, 613.589 147.118 M 617.049 151.952 C 613.202 152.930, 611 155.312, 611 158.495 C 611 162.086, 615.786 170.441, 621.350 176.564 L 626.662 182.408 633.378 181.170 C 645.766 178.888, 655 173.205, 655 167.864 C 655 165.370, 648.037 158.740, 641.475 154.986 C 637.140 152.506, 634.738 151.870, 628.335 151.512 C 624.026 151.271, 618.947 151.469, 617.049 151.952 M 529.946 174.692 C 513.563 182.791, 500.445 206.700, 504.930 220.288 C 506.463 224.932, 512.887 230.701, 517.487 231.563 C 524.829 232.941, 531.595 231.550, 541.262 226.675 C 546.343 224.113, 551.344 221.359, 552.376 220.556 C 557.197 216.802, 559.754 191.384, 556.104 183.500 C 551.085 172.659, 540.958 169.249, 529.946 174.692 M 529 181.091 C 517.373 188.186, 511.014 197.663, 510.184 209.135 C 509.805 214.377, 509.974 214.937, 512.420 216.539 C 517.189 219.664, 532.357 216.230, 539.781 210.345 C 542.457 208.224, 542.500 208.010, 542.500 196.670 C 542.500 186.534, 542.248 184.811, 540.401 182.325 C 537.722 178.719, 533.617 178.274, 529 181.091 M 111.699 208.250 C 111.416 208.938, 98.993 238.040, 84.092 272.923 C 69.192 307.806, 57 336.718, 57 337.173 C 57 337.628, 62.534 338, 69.298 338 L 81.597 338 87.901 323 L 94.205 308 121.394 308 L 148.583 308 155.156 322.750 L 161.729 337.500 174.458 337.781 C 181.776 337.942, 187.041 337.676, 186.844 337.155 C 186.655 336.657, 173.492 307.168, 157.593 271.625 L 128.686 207 120.450 207 C 114.802 207, 112.052 207.393, 111.699 208.250 M 175.611 208.428 C 175.912 209.214, 188.464 238.576, 203.504 273.678 L 230.850 337.500 235.285 337.799 L 239.720 338.098 243.271 329.799 C 249.603 314.998, 293.207 211.568, 294.092 209.250 L 294.950 207 282.582 207 L 270.214 207 253.564 246.028 C 244.407 267.494, 236.528 286.056, 236.056 287.278 C 235 290.009, 235.654 291.391, 214.990 242.750 L 199.803 207 187.433 207 C 177.124 207, 175.154 207.238, 175.611 208.428 M 323 273 L 323 339 369.500 339 L 416 339 416 327.500 L 416 316 381.500 316 L 347 316 347 261.500 L 347 207 335 207 L 323 207 323 273 M 598.383 215.419 C 599.557 224.656, 606.450 237, 610.434 237 C 614.151 237, 626.179 230.435, 630.409 226.098 L 634.318 222.090 627.232 224.554 C 623.335 225.909, 618.167 227.290, 615.747 227.621 C 611.509 228.202, 611.211 228.065, 607.608 223.862 C 605.551 221.463, 602.493 217.475, 600.813 215 L 597.758 210.500 598.383 215.419 M 581.989 224.050 C 581.983 228.148, 581.702 233.169, 581.365 235.208 C 580.787 238.706, 580.347 239.085, 573.626 241.874 C 569.707 243.501, 564.700 245.176, 562.500 245.597 C 558.828 246.300, 558.705 246.422, 561 247.082 C 568.374 249.202, 583.740 247.260, 587.234 243.766 C 588.974 242.026, 589.172 240.922, 588.647 235.898 C 588.017 229.866, 584.785 219.385, 583.008 217.608 C 582.331 216.931, 581.996 219.042, 581.989 224.050 M 684.227 224.574 C 680.862 226.251, 677.837 228.817, 675.547 231.936 C 670.960 238.184, 664.667 251.496, 664.667 254.950 C 664.667 259.054, 672.615 274.625, 677.333 279.763 C 684.562 287.636, 692.472 289.785, 700.616 286.087 C 709.197 282.190, 714.367 270.548, 714.421 255 C 714.508 229.897, 700.954 216.239, 684.227 224.574 M 695.500 233.837 C 691.434 236.317, 686.978 241.548, 682.982 248.532 L 679.656 254.344 682.988 260.769 C 684.820 264.303, 688.468 269.400, 691.094 272.097 C 695.015 276.122, 696.496 277, 699.367 277 C 702.042 277, 703.322 276.354, 704.814 274.250 C 712.312 263.674, 712.068 244.176, 704.320 234.969 C 701.427 231.530, 699.656 231.303, 695.500 233.837 M 638 238.577 C 632.649 241.613, 625.423 248.390, 623.369 252.299 C 622.030 254.847, 622.076 255.386, 623.883 258.299 C 624.975 260.060, 627.360 262.918, 629.184 264.651 C 632.580 267.879, 641.754 274, 643.195 274 C 643.636 274, 642.014 271.413, 639.589 268.250 C 637.165 265.087, 634.262 260.748, 633.139 258.606 C 630.714 253.980, 631.084 252.958, 638.955 242.560 C 641.685 238.952, 643.600 236.005, 643.210 236.012 C 642.819 236.019, 640.475 237.173, 638 238.577 M 118.701 250.118 C 109.416 271.985, 104 285.003, 104 285.452 C 104 285.753, 111.698 286, 121.107 286 C 134.382 286, 138.106 285.720, 137.734 284.750 C 136.007 280.256, 121.549 248.334, 120.917 247.618 C 120.488 247.134, 119.491 248.259, 118.701 250.118 M 560.638 262.873 C 559.242 263.422, 560.100 263.910, 564.064 264.826 C 566.973 265.497, 571.921 267.199, 575.059 268.607 C 581.566 271.527, 581.901 272.358, 582.072 286 L 582.167 293.500 584.591 288.379 C 587.679 281.855, 589.437 273.145, 588.584 268.596 C 587.978 265.366, 587.466 264.919, 582.778 263.527 C 577.510 261.962, 563.971 261.562, 560.638 262.873 M 605.705 276.142 C 602.234 280.693, 599.035 288.406, 598.324 293.937 L 597.738 298.500 600.991 294 C 602.780 291.525, 606.033 287.638, 608.220 285.362 L 612.197 281.223 617.849 282.554 C 620.957 283.286, 625.483 284.591, 627.906 285.453 C 630.329 286.316, 632.486 286.847, 632.699 286.634 C 632.913 286.421, 631.003 284.412, 628.456 282.170 C 623.206 277.549, 616.789 274.165, 611.716 273.341 C 608.675 272.848, 607.966 273.178, 605.705 276.142 M 518.358 277.932 C 503.955 281.466, 500.090 295.060, 508.504 312.594 C 517.123 330.555, 535.439 341.916, 546.574 336.208 C 558.542 330.071, 561.098 317.086, 554.923 293.776 C 554.077 290.582, 552.924 289.460, 546.833 285.902 C 535.405 279.228, 524.975 276.309, 518.358 277.932 M 511.561 293.332 C 508.061 295.891, 510.302 308.499, 515.870 317.574 C 518.461 321.797, 529.345 329.787, 533.592 330.583 C 540.528 331.884, 543.608 325.257, 542.693 311 C 542.011 300.379, 541.746 299.731, 537.206 297.542 C 526.319 292.293, 515.426 290.505, 511.561 293.332 M 613.012 320.611 C 607.588 325.793, 604.080 330.153, 602.022 334.271 C 590.134 358.062, 615.517 372.228, 644.579 358.022 C 662.245 349.386, 667.762 337.305, 659.642 325.035 C 655.264 318.419, 640.588 313.059, 626.739 313.017 L 620.978 313 613.012 320.611 M 622.826 331.750 C 617.752 337.066, 613.294 343.579, 611.956 347.632 C 609.287 355.721, 613.404 358.593, 627.305 358.339 C 635.371 358.192, 636.573 357.898, 641.645 354.839 C 648.041 350.981, 655 343.879, 655 341.209 C 655 337.199, 647.382 332.190, 637.311 329.581 C 628.410 327.274, 626.880 327.503, 622.826 331.750" stroke="none" fill="#ffffff" fill-rule="evenodd"/><path d="M 416.382 327.500 C 416.384 334.100, 416.546 336.670, 416.741 333.211 C 416.937 329.752, 416.936 324.352, 416.738 321.211 C 416.540 318.070, 416.380 320.900, 416.382 327.500" stroke="none" fill="#f1f6fa" fill-rule="evenodd"/><path d="M 0 269.501 L 0 539.003 390.750 538.751 L 781.500 538.500 781.752 269.250 L 782.004 0 391.002 0 L 0 0 0 269.501 M 0.493 270 C 0.493 418.225, 0.608 478.862, 0.750 404.750 C 0.891 330.637, 0.891 209.362, 0.750 135.250 C 0.608 61.137, 0.493 121.775, 0.493 270 M 610.500 147.502 C 602.708 150.257, 597.044 159.721, 598.354 167.796 C 599.343 173.887, 603.283 180.328, 610.445 187.562 C 620.983 198.207, 621.057 198.240, 631.623 197.043 C 643.355 195.714, 649.975 193.655, 655.206 189.710 C 660.144 185.986, 664 179.142, 664 174.104 C 664 163.426, 651.329 151.834, 634.869 147.453 C 628.057 145.640, 615.697 145.665, 610.500 147.502 M 615 153.229 C 609.378 156.190, 612.163 165.741, 621.629 175.966 L 627 181.768 633.987 180.436 C 646.261 178.098, 654 173.407, 654 168.306 C 654 165.195, 648.666 159.762, 641.400 155.474 C 637.095 152.933, 635.346 152.541, 627 152.246 C 620.493 152.017, 616.712 152.326, 615 153.229 M 535.332 171.959 C 525.936 174.197, 514.115 184.913, 508.562 196.227 C 501.989 209.618, 501.731 218.961, 507.735 226.097 C 515.746 235.617, 529.119 234.988, 547.220 224.239 L 554.941 219.654 556.709 212.077 C 559.296 200.995, 559.107 187.665, 556.287 182.376 C 553.542 177.228, 549.056 173.387, 544.219 172.044 C 540.080 170.895, 539.813 170.892, 535.332 171.959 M 530.304 180.949 C 523.570 184.006, 515.610 192.532, 513.089 199.390 C 507.832 213.688, 509.402 217.534, 520.210 216.826 C 524.587 216.540, 528.699 215.397, 533.731 213.068 C 541.959 209.260, 542.293 208.580, 542.355 195.500 C 542.393 187.501, 540.684 181.437, 537.986 179.992 C 535.538 178.683, 535.205 178.724, 530.304 180.949 M 597.435 190.250 C 599.639 199.477, 604.280 208.006, 611.886 216.810 L 614.746 220.121 621.123 218.471 C 630.527 216.039, 640.893 210.873, 646 206.072 C 648.475 203.746, 649.656 202.110, 648.625 202.438 C 644.390 203.783, 629.386 206, 624.519 206 C 620.254 206, 618.496 205.422, 614.900 202.836 C 610.147 199.417, 598 187.197, 598 185.834 C 598 185.375, 597.591 185, 597.090 185 C 596.588 185, 596.742 187.349, 597.435 190.250 M 566.283 203.630 C 564.631 217.383, 562.498 223.441, 558.082 226.918 C 554.119 230.039, 545.914 234.574, 539 237.464 L 534.500 239.346 538.922 240.351 C 544.850 241.699, 556.589 239.943, 566.130 236.282 L 573.500 233.454 573.788 223.569 C 574.111 212.499, 573.017 205.811, 569.711 198.630 L 567.468 193.760 566.283 203.630 M 83.731 272.260 C 68.458 308.142, 55.971 337.837, 55.981 338.250 C 55.991 338.663, 61.779 339, 68.841 339 L 81.682 339 88.185 323.750 L 94.688 308.500 121.399 308.500 L 148.111 308.500 154.867 323.500 L 161.622 338.500 174.930 338.780 C 185.425 339.001, 188.129 338.789, 187.726 337.780 C 187.445 337.076, 174.512 308.150, 158.986 273.500 C 143.460 238.850, 130.534 209.713, 130.262 208.750 C 129.836 207.246, 128.482 207.001, 120.633 207.010 L 111.500 207.020 83.731 272.260 M 175 207.760 C 175 208.178, 187.536 237.765, 202.858 273.510 L 230.717 338.500 235.467 338.500 L 240.217 338.500 267.978 272.750 L 295.738 207 282.619 207.014 L 269.500 207.029 252.500 247.012 C 243.150 269.002, 235.268 286.996, 234.985 286.997 C 234.701 286.999, 226.826 269.005, 217.485 247.011 L 200.500 207.022 187.750 207.011 C 180.738 207.005, 175 207.342, 175 207.760 M 322 273 L 322 339 369.500 339 L 417 339 417 327 L 417 315 382 315 L 347 315 347 261 L 347 207 334.500 207 L 322 207 322 273 M 597 210.951 C 597 213.402, 599.442 222.866, 601.032 226.574 C 602.006 228.846, 604.201 232.299, 605.911 234.246 C 608.710 237.434, 609.352 237.710, 612.381 237.027 C 614.230 236.610, 617.804 235.239, 620.323 233.981 C 625.726 231.283, 634.808 223.528, 633.791 222.480 C 633.402 222.078, 631.211 222.499, 628.923 223.414 C 626.636 224.329, 622.013 225.720, 618.650 226.504 L 612.537 227.931 609.667 225.215 C 608.088 223.722, 604.778 219.688, 602.310 216.250 C 597.819 209.992, 597 209.175, 597 210.951 M 581.217 224.645 C 581.217 230.197, 580.926 235.657, 580.570 236.779 C 579.911 238.856, 571.963 242.589, 563.149 244.961 C 557.979 246.352, 558.336 247.050, 564.740 248.077 C 570.447 248.992, 581.973 247.583, 586.059 245.470 C 588.807 244.049, 589 243.563, 589 238.080 C 589 231.435, 585.916 220.353, 583.099 216.874 C 581.228 214.563, 581.217 214.605, 581.217 224.645 M 687.515 222.237 C 681.621 223.824, 673.326 232.663, 668.640 242.351 C 662.982 254.046, 662.964 255.283, 668.294 266.201 C 675.968 281.919, 682.877 288, 693.059 288 C 699.916 288, 704.441 285.672, 708.197 280.214 C 712.779 273.554, 715 265.353, 715 255.092 C 715 231.859, 703.377 217.965, 687.515 222.237 M 661.400 229.856 C 655.978 233.826, 647.081 243.499, 643.156 249.693 L 639.865 254.885 643.539 260.628 C 648.315 268.095, 657.370 277.545, 662.795 280.725 C 665.158 282.110, 667.283 283.050, 667.519 282.815 C 667.754 282.579, 666.794 280.689, 665.385 278.615 C 661.951 273.562, 657.354 263.537, 655.933 258 C 654.927 254.081, 655.048 252.790, 656.871 248 C 658.022 244.975, 660.953 239.012, 663.385 234.750 C 668.153 226.390, 667.691 225.249, 661.400 229.856 M 692.466 237.138 C 687.514 241.702, 681 251.674, 681 254.690 C 681 257.567, 687.504 267.981, 691.944 272.211 C 696.420 276.476, 700.295 277.830, 702.586 275.929 C 705.011 273.916, 707.869 267.662, 709.438 260.934 C 710.743 255.341, 710.703 254.158, 708.980 247.423 C 705.050 232.057, 700.830 229.429, 692.466 237.138 M 637.441 238.567 C 627.115 244.767, 621.243 251.846, 622.447 256.643 C 623.340 260.201, 632.404 268.913, 638.750 272.312 C 641.638 273.859, 644 274.747, 644 274.286 C 644 273.824, 642.157 270.993, 639.904 267.995 C 637.651 264.996, 634.942 260.846, 633.883 258.771 C 631.967 255.016, 631.968 254.982, 634.113 250.750 C 635.297 248.412, 638.006 244.304, 640.133 241.619 C 643.491 237.381, 644.771 235, 643.691 235 C 643.521 235, 640.709 236.605, 637.441 238.567 M 112.612 265.864 C 108.426 275.749, 105 284.098, 105 284.418 C 105 284.738, 112.200 285, 121 285 C 129.800 285, 137 284.816, 137 284.592 C 137 284.026, 121.067 248.734, 120.602 248.268 C 120.394 248.061, 116.799 255.979, 112.612 265.864 M 563 261.721 C 558.074 262.605, 558.957 263.792, 566.171 265.983 C 574.155 268.407, 579.086 270.654, 580.235 272.390 C 580.639 273, 580.986 278.450, 581.007 284.500 L 581.044 295.500 583.021 293 C 585.967 289.273, 589 278.578, 589 271.918 C 589 266.917, 588.666 265.835, 586.750 264.622 C 582.277 261.792, 570.572 260.362, 563 261.721 M 535.742 269.559 C 535.325 269.994, 538.570 272.035, 542.953 274.095 C 547.336 276.156, 553.357 279.457, 556.333 281.433 C 561.255 284.700, 561.893 285.559, 563.409 290.960 C 564.325 294.225, 565.647 301.082, 566.348 306.198 L 567.621 315.500 569.310 312.301 C 572.376 306.493, 574 297.844, 574 287.325 C 574 275.562, 574.726 276.519, 562.625 272.329 C 555.342 269.807, 537.288 267.947, 535.742 269.559 M 605.152 276.108 C 603.414 278.471, 601.077 282.851, 599.958 285.842 C 597.948 291.214, 596.256 300, 597.231 300 C 597.508 300, 598.987 298.087, 600.518 295.750 C 602.049 293.413, 605.113 289.318, 607.327 286.650 C 611.219 281.962, 611.488 281.822, 615.423 282.452 C 617.662 282.810, 622.622 284.190, 626.445 285.520 C 630.268 286.849, 633.644 287.682, 633.948 287.370 C 634.252 287.058, 632.347 284.848, 629.716 282.459 C 624.668 277.874, 616.583 273.442, 611.406 272.422 C 608.627 271.874, 607.989 272.251, 605.152 276.108 M 514.491 278.865 C 508.787 281.456, 504.278 286.964, 503.475 292.321 C 501.374 306.326, 514.583 328.246, 529.530 335.558 C 540.169 340.764, 551.039 337.560, 556.219 327.692 C 559.081 322.240, 559.292 308.915, 556.691 297.811 L 554.891 290.122 547.195 285.532 C 533.757 277.517, 522.507 275.224, 514.491 278.865 M 608.699 297.202 C 605.627 301.216, 601.986 306.975, 600.608 310 C 597.832 316.097, 595.787 324, 596.985 324 C 597.410 324, 599.933 321.453, 602.592 318.341 C 605.251 315.229, 610.080 310.729, 613.323 308.341 C 618.682 304.396, 619.749 304, 625.022 304 C 630.249 304, 642.987 305.959, 648.402 307.596 C 650.086 308.105, 649.828 307.525, 647.095 304.657 C 641.817 299.120, 628.322 292.698, 617.393 290.522 C 614.468 289.940, 613.957 290.333, 608.699 297.202 M 513.280 292.970 C 508.934 294.817, 509.239 301.711, 514.175 313.185 C 516.443 318.456, 522.976 324.915, 529.326 328.162 C 538.175 332.687, 542.231 328.273, 542.109 314.249 C 541.992 300.719, 541.650 300.050, 532.934 296.309 C 524.869 292.846, 516.798 291.475, 513.280 292.970 M 615.068 317.777 C 597.648 333.277, 593.532 348.143, 603.922 358.037 C 608.356 362.259, 613.580 364, 621.817 364 C 642.780 364, 664.052 350.153, 663.978 336.554 C 663.911 324.169, 654.087 316.157, 635.555 313.374 C 622.250 311.376, 622.267 311.372, 615.068 317.777 M 621.700 333.957 C 615.521 340.632, 612 347.132, 612 351.867 C 612 354.613, 612.524 355.321, 615.468 356.551 C 617.432 357.372, 622.133 358, 626.308 358 C 632.562 358, 634.628 357.527, 639.924 354.880 C 643.359 353.164, 647.930 350.084, 650.084 348.035 C 657.806 340.689, 654.048 334.821, 638.970 330.682 C 627.390 327.503, 627.737 327.437, 621.700 333.957" stroke="none" fill="#045c9c" fill-rule="evenodd"/></svg>