<svg xmlns="http://www.w3.org/2000/svg" width="1180" height="1100" viewBox="0 0 1180 1100" version="1.1"><path d="M 91.500 73.563 C 74.601 74.781, 54.280 77.182, 47.500 78.763 C 43.483 79.700, 58.610 80.738, 78.500 80.892 C 103.369 81.083, 165.504 85.633, 189.500 89.019 C 193.350 89.562, 203.025 90.925, 211 92.046 C 228.253 94.472, 243.306 97.068, 263 101.013 C 303.289 109.084, 333.670 117.184, 373.500 130.471 C 475.515 164.504, 567.279 217.846, 629.429 279.240 C 637.090 286.808, 643.466 293, 643.599 293 C 643.732 293, 644.142 289.962, 644.510 286.250 C 649.838 232.544, 681.071 189.787, 730 169.217 C 752.136 159.911, 776.583 154.654, 803.668 153.374 C 811.590 153, 818.271 152.371, 818.514 151.977 C 819.240 150.803, 802.583 148.939, 786 148.339 C 762.678 147.495, 741.515 150.092, 719.337 156.519 C 688.752 165.382, 656.638 184.822, 635.244 207.423 L 627.285 215.832 618.892 211.382 C 607.360 205.267, 573.445 188.384, 562.500 183.311 C 546.744 176.007, 532.926 169.673, 522.543 164.995 C 509.979 159.334, 467.872 142.430, 452.500 136.875 C 446.450 134.689, 437.900 131.585, 433.500 129.979 C 393.516 115.378, 331.571 98.115, 288 89.429 C 216.838 75.243, 146.750 69.584, 91.500 73.563 M 175 421.065 C 147.819 423.278, 130.467 430.459, 114.914 445.931 C 96.586 464.161, 89.193 485.561, 85.492 531.094 C 82.791 564.334, 84.465 628.635, 88.575 649.500 C 95.916 686.763, 110.338 704.911, 138.305 712.072 C 153.506 715.965, 183.120 715.612, 197.880 711.362 C 209.898 707.902, 219.758 700.784, 224.693 692.005 C 226.195 689.331, 227.779 687.364, 228.212 687.631 C 228.646 687.899, 229.039 690.904, 229.088 694.309 C 229.136 697.714, 229.473 702.682, 229.838 705.349 L 230.500 710.197 255.250 710.349 C 276.652 710.480, 280 710.297, 279.999 709 C 279.998 708.175, 280.110 673.412, 280.249 631.750 L 280.500 556 232.750 556 L 185 556 185 581 C 185 600.303, 185.285 606.013, 186.250 606.056 C 186.938 606.087, 192.588 606.115, 198.806 606.119 C 208.342 606.125, 210.209 606.382, 210.738 607.761 C 211.664 610.173, 209.188 637.859, 207.449 644.534 C 205.135 653.418, 201.834 659.166, 197.156 662.456 C 193.497 665.030, 192.084 665.409, 186.227 665.389 C 168.797 665.331, 164.075 655.460, 161.884 614.500 C 160.372 586.237, 161.333 514.088, 163.396 501 C 165.477 487.802, 167.788 481.305, 171.959 476.933 C 180.433 468.051, 197.130 469.445, 202.713 479.500 C 205.796 485.053, 207.165 491.671, 207.884 504.500 L 208.500 515.500 244.600 515.762 L 280.699 516.025 280.365 508.762 C 279.288 485.334, 274.035 467.483, 264.021 453.224 C 250.680 434.227, 230.690 423.764, 202.500 421.024 C 191.387 419.943, 188.718 419.947, 175 421.065 M 308.669 426.664 C 307.554 427.779, 307.951 708.852, 309.069 709.542 C 309.820 710.007, 373.231 710.488, 379.750 710.078 C 380.744 710.016, 381 680.891, 381 568 L 381 426 345.167 426 C 325.458 426, 309.034 426.299, 308.669 426.664 M 611 568 C 611 680.924, 611.256 710.003, 612.250 710.017 C 612.938 710.026, 628.482 710.139, 646.794 710.267 L 680.088 710.500 680.632 708.331 C 680.931 707.138, 681.024 700.950, 680.838 694.580 C 680.652 688.209, 680.725 683, 681 683.002 C 681.275 683.005, 682.969 685.848, 684.763 689.319 C 694.545 708.238, 710.455 716.251, 735.039 714.642 C 751.389 713.572, 761.842 709.352, 770.974 700.134 C 787.239 683.717, 795.131 650.344, 794.945 598.764 C 794.709 533.189, 780.713 501.191, 748.068 491.596 C 740.041 489.237, 719.106 489.400, 711.125 491.884 C 699.260 495.577, 690.203 503.125, 686.327 512.550 C 685.322 514.993, 684.163 516.994, 683.750 516.996 C 683.337 516.998, 683 496.525, 683 471.500 L 683 426 647 426 L 611 426 611 568 M 1018.247 568.125 L 1018.500 710.249 1053 710.214 C 1071.975 710.195, 1088.063 710.139, 1088.750 710.089 C 1089.744 710.018, 1090 680.886, 1090 568 L 1090 426 1053.997 426 L 1017.993 426 1018.247 568.125 M 471.350 491.043 C 451.655 494.530, 433.546 505.225, 422.873 519.672 C 418.185 526.018, 412.963 536.997, 410.075 546.580 C 401.855 573.860, 402.155 639.393, 410.621 665.479 C 416.828 684.606, 427.877 697.774, 444.140 705.427 C 460.309 713.036, 476.766 715.652, 502.436 714.694 C 526.467 713.797, 541.694 709.222, 555.500 698.752 C 578.821 681.067, 587.372 654.959, 587.353 601.500 C 587.330 539.176, 576.513 512.817, 544.893 498.042 C 531.910 491.975, 524.855 490.794, 499.500 490.447 C 486.850 490.273, 474.183 490.541, 471.350 491.043 M 872.762 491.927 C 854.474 495.901, 844.224 501.493, 833.224 513.497 C 823.098 524.547, 817 540.563, 817 556.107 L 817 562 847.955 562 L 878.909 562 879.401 558.750 C 879.671 556.962, 880.146 553.270, 880.455 550.543 C 881.750 539.148, 887.663 534.044, 899.602 534.016 C 908.085 533.997, 912.410 536.300, 915.417 542.440 C 918.318 548.364, 918.075 559.343, 914.917 564.984 C 912.065 570.077, 905.186 574.351, 896.345 576.521 C 853.111 587.132, 849.368 588.203, 841.232 592.290 C 821.620 602.140, 813.346 613.323, 809.631 635 C 806.994 650.386, 808.545 670.897, 813.313 683.702 C 815.586 689.807, 821.070 697.956, 825.723 702.145 C 837.251 712.521, 858.515 717.127, 880.332 713.973 C 894.091 711.983, 908.703 702.690, 914.117 692.486 C 915.426 690.019, 916.746 688, 917.050 688 C 917.355 688, 918.336 692.558, 919.231 698.129 C 920.125 703.699, 921.290 708.690, 921.819 709.219 C 922.821 710.221, 989.536 710.797, 990.521 709.813 C 990.815 709.518, 990.537 707.977, 989.902 706.389 C 985.878 696.312, 985.744 693.822, 985.023 616 C 984.252 532.767, 984.517 536.172, 977.711 522.213 C 972.453 511.428, 960.011 500.485, 948 496.080 C 936.412 491.831, 928.691 490.814, 905 490.419 C 884.671 490.081, 880.321 490.284, 872.762 491.927 M 488.452 537.351 C 479.313 541.497, 475.991 559.275, 476.009 603.950 C 476.028 652.694, 479.929 667.517, 493.265 669.517 C 501.782 670.794, 507.718 667.042, 510.983 658.317 C 514.498 648.921, 515.230 636.725, 514.730 595.849 C 514.334 563.510, 513.990 556.560, 512.536 551.500 C 510.458 544.268, 508.687 541.137, 505.211 538.549 C 501.897 536.082, 492.700 535.424, 488.452 537.351 M 694.568 545.266 C 689.702 548.031, 686.638 553.883, 685.023 563.500 C 683.223 574.218, 682.551 615.458, 683.923 630.983 C 685.331 646.899, 687.580 654.204, 692.473 658.750 C 695.687 661.736, 696.507 662, 702.581 662 C 710.420 662, 713.904 660.294, 716.880 654.999 C 720.831 647.969, 721.984 639.747, 722.630 614 C 723.542 577.586, 721.544 557.490, 716.185 549.192 C 712.344 543.246, 701.569 541.289, 694.568 545.266 M 913.831 609.598 C 912.952 610.476, 909.231 611.825, 905.561 612.594 C 886.797 616.527, 878 626.393, 878 643.503 C 878 659.545, 886.875 669.499, 899.363 667.463 C 907.792 666.089, 912.251 661.542, 915.509 651 C 917.880 643.330, 918.978 608, 916.845 608 C 916.066 608, 914.710 608.719, 913.831 609.598" stroke="none" fill="#241e20" fill-rule="evenodd"/><path d="M 456.850 15.563 C 424.202 17.592, 376.849 23.092, 359 26.928 C 356.525 27.460, 352.475 28.185, 350 28.539 C 347.525 28.893, 342.800 29.806, 339.500 30.567 C 336.200 31.329, 328.325 33.087, 322 34.475 C 307.742 37.604, 289.744 42.160, 280.500 44.980 C 258.413 51.719, 250.393 54.377, 249.500 55.258 C 248.274 56.467, 250.270 56.242, 281.500 51.660 C 310.415 47.418, 338.451 44.196, 370 41.492 C 424.770 36.796, 505.054 37.045, 559 42.079 C 565.325 42.669, 574.550 43.536, 579.500 44.005 C 622.263 48.058, 680.079 58.493, 726.500 70.536 C 750.436 76.745, 795.161 90.677, 814.500 97.948 C 831.965 104.514, 858.654 115.302, 866.500 118.966 C 868.700 119.994, 875 122.848, 880.500 125.308 C 891.788 130.358, 924.649 146.824, 936 153.117 C 988.924 182.460, 1036.132 215.170, 1076.250 250.296 C 1079.963 253.546, 1083 255.936, 1083 255.606 C 1083 254.175, 1050.486 224.277, 1033.925 210.479 C 1018.964 198.015, 986.616 172.859, 979 167.766 C 977.625 166.846, 969.975 161.588, 962 156.079 C 948.382 146.674, 922.514 130, 921.541 130 C 921.299 130, 919.100 128.650, 916.655 127 C 914.210 125.350, 911.895 124, 911.509 124 C 911.124 124, 909.614 123.169, 908.154 122.153 C 906.694 121.137, 903.025 118.953, 900 117.300 C 896.975 115.647, 892.700 113.262, 890.500 111.999 C 885.100 108.901, 839.387 86, 838.602 86 C 838.259 86, 836.071 85.125, 833.739 84.055 C 789.796 63.894, 732.008 44.490, 686 34.449 C 679.675 33.069, 671.575 31.282, 668 30.478 C 658.950 28.444, 640.969 25.443, 618 22.134 C 566.700 14.744, 508.334 12.364, 456.850 15.563 M 165.383 123.829 C 151.857 133.948, 138.508 148.826, 127.379 166.189 C 122.814 173.311, 112.773 192.890, 111.467 197.216 C 111.088 198.472, 110.183 200.850, 109.456 202.500 C 105.975 210.398, 100.449 231.115, 97.585 247 C 95.127 260.632, 92.331 293.995, 93.646 294.010 C 119.082 294.294, 487.414 293.919, 487.725 293.608 C 488.306 293.027, 483.834 292.508, 461.500 290.565 C 416.694 286.666, 368.674 282.426, 353 280.986 C 347.225 280.455, 336.875 279.564, 330 279.007 C 323.125 278.450, 313 277.556, 307.500 277.021 C 302 276.485, 291.650 275.561, 284.500 274.966 C 277.350 274.371, 264.525 273.227, 256 272.424 C 247.475 271.620, 235.325 270.532, 229 270.004 C 222.675 269.477, 210.075 268.383, 201 267.573 C 157.484 263.687, 146.911 262.755, 139.507 262.151 C 131.628 261.509, 131.505 261.457, 130.875 258.500 C 127.551 242.885, 133.994 197.410, 142.984 173.040 C 148.017 159.397, 158.827 138.217, 164.186 131.500 C 172.152 121.516, 174.133 118.800, 173.738 118.404 C 173.478 118.144, 169.718 120.585, 165.383 123.829 M 804.417 165.492 C 790.862 167.620, 784.530 169.621, 772.559 175.560 C 748.861 187.318, 730.405 208.634, 722.150 233.782 C 718.401 245.202, 717.535 251.308, 717.583 266 C 717.636 282.205, 719.654 292.549, 725.290 305.500 C 734.842 327.453, 754.449 347.592, 775.452 357.025 C 790.681 363.864, 800.806 366, 818 366 C 831.071 366, 839.510 364.776, 849.783 361.392 C 856.893 359.049, 871.003 352.463, 872 351.022 C 872.275 350.625, 873.551 349.746, 874.835 349.069 C 880.392 346.141, 892.922 334.220, 899.076 326.007 C 913.356 306.947, 919.888 284.991, 918.713 260.001 C 917.292 229.770, 903.015 202.974, 878.510 184.543 C 858.010 169.125, 828.925 161.647, 804.417 165.492 M 225.162 320.831 C 222.068 321.269, 222.710 323.810, 228.277 333.147 C 237.001 347.779, 254.489 360.593, 271 364.451 C 279.486 366.434, 296.038 366.424, 304.688 364.429 C 325.275 359.683, 346.954 340.993, 352.434 323.265 L 353.125 321.030 290.313 320.765 C 255.766 320.619, 226.448 320.649, 225.162 320.831 M 91.701 734.750 C 91.472 735.163, 91.332 762.500, 91.392 795.500 L 91.500 855.500 97.500 855.500 L 103.500 855.500 103.695 827.500 C 103.802 812.100, 103.915 798.938, 103.945 798.250 C 103.988 797.275, 111.793 797, 139.485 797 L 174.970 797 175.235 826.250 L 175.500 855.500 181.250 855.800 L 187 856.100 187 795 L 187 733.900 181.250 734.200 L 175.500 734.500 175 760.500 L 174.500 786.500 139.250 786.763 L 104 787.026 104 762.095 C 104 748.383, 103.727 736.452, 103.393 735.582 C 102.944 734.413, 101.393 734, 97.452 734 C 94.518 734, 91.930 734.337, 91.701 734.750 M 288 795 L 288 856 293 856 L 298 856 298 849 C 298 845.150, 298.337 842.027, 298.750 842.061 C 299.163 842.095, 300.867 844.007, 302.538 846.311 C 311.554 858.742, 335.811 861.871, 350.535 852.503 C 356.863 848.478, 360.550 844.139, 364.139 836.496 C 367.651 829.016, 369 822.081, 369 811.500 C 369 790.254, 361.809 776.560, 346.530 768.708 C 341.001 765.866, 339.669 765.605, 330.500 765.561 C 321.178 765.517, 320.043 765.737, 313.760 768.803 C 309.534 770.866, 305.835 773.567, 303.842 776.046 C 302.095 778.221, 300.291 780, 299.833 780 C 299.375 780, 299 769.650, 299 757 L 299 734 293.500 734 L 288 734 288 795 M 439.667 734.667 C 439.300 735.033, 439 738.647, 439 742.698 C 439 750.861, 439.376 751.331, 445.906 751.336 L 449.500 751.338 449.789 742.669 L 450.078 734 445.206 734 C 442.526 734, 440.033 734.300, 439.667 734.667 M 536.989 757.750 L 536.978 781.500 532.239 776.300 C 524.528 767.838, 514.578 764.190, 502.332 765.333 C 479.240 767.490, 465.460 787.638, 467.337 816.500 C 468.575 835.524, 475.673 847.779, 489.323 854.457 C 497.253 858.337, 509.912 859.074, 518.233 856.140 C 525.399 853.614, 532.363 848.887, 534.668 844.985 C 535.638 843.343, 536.784 842, 537.216 842 C 537.647 842, 538 845.150, 538 849 L 538 856 543 856 L 548 856 548 795 L 548 734 542.500 734 L 537 734 536.989 757.750 M 566 795 L 566 856.025 602.750 855.762 L 639.500 855.500 639.780 842.750 C 639.934 835.737, 639.709 829.941, 639.280 829.870 C 636.417 829.392, 630.392 829.201, 615.250 829.107 L 598 829 598 817.522 L 598 806.044 616.750 805.772 L 635.500 805.500 635.500 793.500 L 635.500 781.500 616.750 781.228 L 598 780.956 598 770.478 L 598 760 618.030 760 L 638.060 760 637.780 747.250 L 637.500 734.500 601.750 734.237 L 566 733.975 566 795 M 649.499 736.224 C 649.196 737.476, 649.072 764.825, 649.224 797 L 649.500 855.500 664.724 855.776 C 679.839 856.050, 679.953 856.035, 680.501 853.776 C 680.804 852.524, 680.928 825.175, 680.776 793 L 680.500 734.500 665.276 734.224 C 650.161 733.950, 650.047 733.965, 649.499 736.224 M 970.935 734.750 C 970.899 735.163, 970.693 740.131, 970.478 745.791 C 970 758.322, 969.057 757.718, 988 757.007 L 1001.500 756.500 1001.591 746.500 C 1001.641 741, 1001.480 735.938, 1001.234 735.250 C 1000.903 734.326, 996.902 734, 985.893 734 C 977.702 734, 970.971 734.337, 970.935 734.750 M 861.523 736.810 C 861.235 737.098, 861 743.084, 861 750.112 L 861 762.890 856.250 763.195 L 851.500 763.500 851.500 774 L 851.500 784.500 856 784.500 L 860.500 784.500 861 814 C 861.457 840.942, 861.673 843.841, 863.500 847.435 C 867.271 854.856, 868.989 855.456, 887.571 855.836 L 904 856.172 904 845.586 L 904 835 900.039 835 C 897.252 835, 895.474 834.351, 894.039 832.811 C 892.114 830.745, 892 829.382, 892 808.434 C 892 789.014, 892.206 786.074, 893.654 784.872 C 894.563 784.118, 895.463 783.612, 895.654 783.750 C 895.844 783.888, 897.800 784, 900 784 L 904 784 904 773.550 L 904 763.100 898.250 762.800 L 892.500 762.500 892 749.500 L 891.500 736.500 876.773 736.393 C 868.674 736.335, 861.811 736.522, 861.523 736.810 M 717.932 761.940 C 706.584 764.032, 697.733 771.663, 693.957 782.610 C 689.313 796.070, 689.328 825.788, 693.985 838.226 C 698.342 849.865, 706.174 855.320, 720.922 856.991 C 748.775 860.146, 763.085 851.106, 765.623 828.750 L 766.275 823 752.253 823 L 738.230 823 737.527 828.634 C 736.364 837.942, 729.897 841.988, 724.619 836.710 C 722.156 834.247, 721.087 828.955, 721.347 820.500 L 721.500 815.500 744 815 L 766.500 814.500 766.793 806.691 C 767.174 796.536, 764.600 781.699, 761.554 776.503 C 758.080 770.574, 752.941 765.972, 747.395 763.823 C 741.794 761.653, 725.230 760.595, 717.932 761.940 M 800.040 762.070 C 788.268 764.170, 779.490 772.259, 775.603 784.590 C 771.873 796.424, 771.142 818.747, 774.059 831.763 C 775.297 837.289, 779.310 845.601, 782.273 848.775 C 788.730 855.694, 804.359 859.070, 820.431 857.017 C 838.525 854.705, 846.315 846.153, 847.853 826.915 C 848.357 820.596, 848.245 817.648, 847.488 817.357 C 846.887 817.126, 840.568 817.064, 833.447 817.219 L 820.500 817.500 819.939 825 C 819.288 833.714, 818.719 835.277, 815.596 836.949 C 812.298 838.713, 809.008 837.913, 806.676 834.778 C 804.165 831.403, 802.835 816.612, 803.637 801 C 804.264 788.796, 805.325 784.586, 808.299 782.503 C 811.312 780.393, 813.452 780.625, 816.694 783.412 C 819.129 785.506, 819.566 786.729, 820 792.662 L 820.500 799.500 834.250 799.778 L 848 800.056 848 793.549 C 848 784.672, 844.805 775.275, 840.147 770.456 C 834.213 764.316, 827.808 761.959, 815.793 761.495 C 810.132 761.276, 803.043 761.535, 800.040 762.070 M 952.684 762.425 C 948.176 764.061, 945.679 766.165, 942.886 770.684 C 941.759 772.508, 940.472 774, 940.026 774 C 939.580 774, 939.336 771.745, 939.485 768.988 C 939.821 762.773, 939.969 762.824, 922.500 763.212 L 909.500 763.500 909.500 809.500 L 909.500 855.500 924.424 855.778 C 935.693 855.987, 939.546 855.743, 940.159 854.778 C 940.604 854.075, 940.976 841.418, 940.985 826.651 C 941.002 797.156, 941.371 794.984, 946.925 791.703 C 948.854 790.564, 952.434 789.912, 957.659 789.747 L 965.500 789.500 965.500 775.500 L 965.500 761.500 961 761.270 C 958.525 761.144, 954.783 761.664, 952.684 762.425 M 1040.305 762.009 C 1026.608 764.011, 1018.121 772.248, 1013.899 787.636 C 1012.148 794.017, 1011.796 798.063, 1011.827 811.413 C 1011.877 833.091, 1014.605 842.286, 1023.374 850.333 C 1027.690 854.294, 1031.822 855.797, 1041.800 857.037 C 1061.435 859.477, 1076.599 854.672, 1082.288 844.207 C 1085.260 838.739, 1088 827.816, 1088 821.438 L 1088 817 1074 817 L 1060 817 1060 821.557 C 1060 832.435, 1056.405 838.535, 1050.414 837.823 C 1045.898 837.286, 1043.884 833.333, 1042.788 822.855 C 1041.748 812.911, 1042.422 793.880, 1044.027 787.909 C 1045.406 782.774, 1048.129 780.614, 1052.248 781.387 C 1056.569 782.197, 1058.823 786.013, 1059.649 793.915 L 1060.285 800 1073.674 800 C 1085.225 800, 1087.150 799.772, 1087.700 798.340 C 1088.581 796.043, 1086.199 782.353, 1084.073 777.500 C 1081.948 772.648, 1076.315 766.852, 1071.509 764.571 C 1064.663 761.323, 1052.073 760.289, 1040.305 762.009 M 970.597 765.468 C 969.815 768.585, 969.861 852.474, 970.646 854.520 C 971.112 855.735, 973.879 856, 986.088 856 C 1000.684 856, 1000.972 855.958, 1001.509 853.750 C 1001.809 852.513, 1001.930 831.700, 1001.778 807.500 L 1001.500 763.500 986.365 763.225 L 971.230 762.949 970.597 765.468 M 417.187 767.926 C 410.006 770.003, 405.053 773.580, 400 780.338 L 396.500 785.019 396.211 776.509 L 395.922 768 390.961 768 L 386 768 386 812 L 386 856 390.893 856 C 394.459 856, 395.953 855.565, 396.401 854.398 C 396.739 853.516, 396.992 841.666, 396.963 828.064 C 396.920 807.579, 397.196 802.488, 398.569 798.416 C 402.513 786.718, 411.452 779.421, 423.500 778.063 L 428.500 777.500 428.500 772 C 428.500 766.853, 428.339 766.487, 426 766.300 C 424.625 766.190, 420.659 766.921, 417.187 767.926 M 200.022 769.250 C 200.034 769.938, 200.964 772.525, 202.088 775 C 203.212 777.475, 205.943 784.225, 208.157 790 C 210.372 795.775, 212.772 801.850, 213.492 803.500 C 214.211 805.150, 219.153 817.418, 224.473 830.763 C 233.792 854.138, 234.102 855.163, 232.928 858.763 C 230.438 866.406, 226.946 872.867, 223.942 875.396 C 220.771 878.063, 219.658 878.311, 212.192 878.014 L 207.884 877.842 208.192 882.671 L 208.500 887.500 213.750 887.802 L 219 888.105 219 962.073 L 219 1036.041 239.250 1035.771 L 259.500 1035.500 260.026 991 C 260.315 966.525, 260.653 946.399, 260.776 946.276 C 260.899 946.152, 262.328 945.365, 263.950 944.526 C 271.340 940.704, 277.277 944.300, 278.352 953.247 C 278.699 956.136, 278.987 975.938, 278.991 997.250 L 279 1036 299.051 1036 L 319.102 1036 318.801 985.250 L 318.500 934.500 316.111 929.212 C 311.375 918.733, 301.490 913, 288.156 913 C 278.145 913, 271.440 915.538, 265.250 921.669 C 262.363 924.529, 259.985 926.561, 259.967 926.185 C 259.948 925.808, 259.963 914.813, 259.999 901.750 L 260.064 878 248.699 878 C 242.448 878, 237.082 877.749, 236.775 877.442 C 236.468 877.135, 237.513 873.872, 239.097 870.192 C 240.682 866.511, 245.092 855.175, 248.897 845 C 255.225 828.080, 269.719 789.491, 275.471 774.250 L 277.830 768 272.075 768 L 266.320 768 264.967 772.250 C 264.222 774.587, 261.045 783.475, 257.906 792 C 250.801 811.298, 242.398 834.766, 241.524 837.750 C 240.487 841.292, 239.305 840.431, 237.093 834.520 C 235.966 831.506, 232.981 823.743, 230.460 817.270 C 227.940 810.796, 224.504 801.900, 222.826 797.500 C 221.148 793.100, 218.991 787.700, 218.035 785.500 C 217.078 783.300, 215.220 778.462, 213.906 774.750 L 211.518 768 205.759 768 C 201.807 768, 200.007 768.392, 200.022 769.250 M 439.667 768.667 C 438.834 769.500, 438.776 852.253, 439.607 854.418 C 440.046 855.562, 441.568 856, 445.107 856 L 450 856 450 812 L 450 768 445.167 768 C 442.508 768, 440.033 768.300, 439.667 768.667 M 322.841 775.387 C 316.155 776.822, 310.175 780.696, 306.533 785.953 C 295.501 801.872, 297.323 829.928, 310.141 841.509 C 315.899 846.711, 320.251 848.292, 329 848.361 C 338.643 848.438, 344.836 845.547, 350.266 838.433 C 355.131 832.059, 357.129 825.647, 357.722 814.500 C 358.502 799.853, 354.844 788.798, 346.750 781.337 C 340.189 775.289, 332.365 773.342, 322.841 775.387 M 499.954 775.376 C 492.595 777.337, 484.534 784.841, 481.560 792.500 C 473.403 813.508, 479.771 838.105, 495.487 846.291 C 501.726 849.541, 512.899 849.300, 519.638 845.771 C 526.046 842.415, 531.332 836.336, 534.153 829.079 C 535.917 824.541, 536.329 821.354, 536.360 812 C 536.404 798.959, 535.379 794.425, 530.840 787.572 C 524.097 777.392, 511.323 772.348, 499.954 775.376 M 724.590 782.497 C 722.121 785.161, 720.163 795.563, 721.818 797.218 C 722.300 797.700, 726.020 797.960, 730.086 797.797 C 738.450 797.461, 738.703 797.171, 737.516 789.257 C 736.264 780.912, 729.391 777.318, 724.590 782.497 M 130.500 875.168 C 107.635 877.452, 94.411 888.990, 88.549 911.767 C 84.708 926.693, 83.218 963.148, 85.515 986 C 89.385 1024.500, 103.513 1038.176, 139.500 1038.259 C 159.869 1038.305, 168.787 1035.703, 178.415 1026.904 C 188.732 1017.475, 193.128 1005.163, 193.357 985.058 L 193.500 972.500 173.500 972.500 L 153.500 972.500 152.812 986.307 C 151.812 1006.352, 148.322 1012.277, 138.587 1010.450 C 133.106 1009.422, 130.417 1005.225, 129.009 995.500 C 127.412 984.460, 128.138 918.063, 129.917 912.579 C 131.820 906.711, 136.002 902.995, 140.673 903.022 C 148.582 903.068, 151.149 907.628, 151.922 923 L 152.500 934.500 172.176 934.771 C 191.457 935.036, 191.865 934.999, 192.524 932.923 C 193.462 929.969, 192.158 913.696, 190.416 906.605 C 184.592 882.908, 163.547 871.866, 130.500 875.168 M 471.917 878.416 C 471.688 878.646, 471.618 914.196, 471.762 957.416 L 472.024 1036 492.012 1036 L 512 1036 512 957 L 512 878 492.167 878 C 481.258 878, 472.146 878.187, 471.917 878.416 M 542 957 L 542 1036 562 1036 L 582 1036 582 957 L 582 878 562 878 L 542 878 542 957 M 377.402 914.486 C 374.048 915.215, 369.049 916.955, 366.294 918.351 C 360.779 921.145, 353.217 928.916, 350.557 934.521 C 348.606 938.632, 346.547 950.377, 347.391 952.578 C 347.863 953.806, 350.703 954.003, 364.650 953.774 L 381.344 953.500 382.698 947.500 C 384.363 940.121, 386.665 938.053, 393.250 938.022 C 400.651 937.988, 403.874 942.448, 402.711 951.119 C 401.855 957.501, 398.791 959.337, 382.171 963.429 C 359.972 968.895, 352.473 972.934, 347.104 982.318 C 343.374 988.838, 341.890 999.702, 343.148 1011.277 C 344.169 1020.667, 347.396 1027.574, 352.707 1031.737 C 358.417 1036.213, 360.285 1036.958, 368.366 1037.983 C 382.092 1039.723, 393.518 1036.257, 399.733 1028.468 C 401.255 1026.561, 402.837 1025, 403.250 1025 C 403.663 1025, 404 1026.605, 404 1028.566 C 404 1036.071, 403.800 1036, 425.035 1036 C 436.131 1036, 444 1035.612, 444 1035.065 C 444 1034.551, 443.458 1032.863, 442.796 1031.315 C 441.948 1029.334, 441.415 1015.165, 440.997 983.500 C 440.428 940.376, 440.314 938.305, 438.271 933.830 C 433.433 923.229, 424.421 916.802, 411.050 914.417 C 401.542 912.720, 385.364 912.754, 377.402 914.486 M 640.350 914.905 C 624.612 918.774, 615.144 928.756, 610.380 946.500 C 607.662 956.621, 607.634 997.323, 610.338 1006.929 C 616.806 1029.909, 629.365 1038.157, 658 1038.235 C 685.959 1038.311, 698.816 1029.977, 704.384 1008.169 C 705.273 1004.687, 706 1000.075, 706 997.919 L 706 994 688.094 994 L 670.188 994 669.534 998.750 C 669.175 1001.362, 668.917 1003.842, 668.961 1004.260 C 669.005 1004.679, 668.402 1006.255, 667.623 1007.763 C 663.868 1015.023, 656.990 1016.450, 651.619 1011.084 C 648.505 1007.973, 648.499 1007.946, 648.168 995.484 L 647.837 983 677.418 983 L 707 983 706.965 970.750 C 706.885 942.718, 699.811 925.254, 685.675 918.195 C 675.257 912.992, 654.315 911.472, 640.350 914.905 M 785.500 915.055 C 779.734 917.305, 775.149 921.066, 772.126 926.025 L 770.007 929.500 770.004 922.750 L 770 916 750.500 916 L 731 916 731 976 L 731 1036 750.969 1036 L 770.939 1036 771.219 992.572 C 771.493 950.247, 771.553 949.073, 773.599 946.322 C 775.955 943.155, 781.383 942.064, 785.042 944.023 C 789.749 946.542, 790 949.067, 790 993.968 L 790 1036 810 1036 L 830 1036 830 986.182 C 830 928.374, 830.031 928.629, 821.965 920.807 C 818.599 917.544, 815.529 915.641, 811.881 914.557 C 804.488 912.362, 791.789 912.601, 785.500 915.055 M 883.500 913.873 C 871.395 917.032, 863.475 926.095, 859.589 941.234 C 853.969 963.136, 855.474 997.269, 862.754 1013 C 868.264 1024.905, 874.670 1030.271, 885.607 1032.142 C 898.025 1034.267, 909.933 1029.910, 915.500 1021.204 C 916.600 1019.484, 917.837 1018.060, 918.250 1018.039 C 919.315 1017.984, 919.137 1037.702, 918.028 1042.500 C 916.719 1048.171, 913.080 1051, 907.097 1051 C 901.660 1051, 898.527 1048.950, 897.459 1044.691 L 896.783 1042 878.975 1042 C 865.966 1042, 861.058 1042.325, 860.765 1043.206 C 860.227 1044.820, 862.775 1055.664, 864.455 1058.910 C 870.481 1070.551, 884.043 1076.016, 906.815 1075.983 C 926.235 1075.954, 938.268 1072.295, 946.833 1063.814 C 951.698 1058.998, 955.674 1051.133, 957.074 1043.557 C 957.616 1040.625, 957.906 1012.584, 957.758 977.482 L 957.500 916.500 938.796 916.228 L 920.092 915.956 919.796 922.728 L 919.500 929.500 917.809 926.500 C 912.794 917.606, 905.997 913.778, 894.500 913.373 C 890.100 913.218, 885.150 913.443, 883.500 913.873 M 1017.594 914.644 C 1001.053 918.190, 991.535 927.486, 986.513 945 C 982.694 958.319, 982.605 993.745, 986.356 1007.591 C 992.295 1029.515, 1005.210 1037.981, 1033 1038.167 C 1052.740 1038.300, 1062.897 1035.174, 1070.884 1026.510 C 1076.197 1020.746, 1078.815 1014.965, 1080.572 1005.114 C 1082.776 992.757, 1084.685 994, 1063.500 994 L 1045 994 1044.994 998.250 C 1044.981 1008.131, 1041.008 1014, 1034.330 1014 C 1029.922 1014, 1026.422 1011.649, 1025.075 1007.785 C 1024.484 1006.089, 1024 999.819, 1024 993.851 L 1024 983 1053.644 983 L 1083.287 983 1082.732 967.750 C 1082.416 959.072, 1081.469 949.530, 1080.534 945.609 C 1076.345 928.040, 1066.559 917.863, 1050.500 914.374 C 1042.598 912.657, 1026.235 912.791, 1017.594 914.644 M 652.761 939.384 C 649.887 941.566, 648 947.544, 648 954.468 L 648 961 658.500 961 L 669 961 669 953.968 C 669 946.179, 667.223 940.725, 664.150 939.080 C 661.389 937.602, 654.879 937.776, 652.761 939.384 M 1027.960 940.040 C 1024.929 943.071, 1024 946.361, 1024 954.065 L 1024 961 1034.500 961 L 1045 961 1045 954.520 C 1045 946.708, 1042.809 940.690, 1039.399 939.136 C 1035.449 937.336, 1030.253 937.747, 1027.960 940.040 M 902.033 945.813 C 897.886 949.960, 896.731 957.210, 897.162 976.390 C 897.468 989.980, 897.836 993.126, 899.512 996.500 C 904.203 1005.940, 914.190 1004.405, 917.059 993.803 C 918.584 988.165, 918.563 957.805, 917.030 952.111 C 914.637 943.226, 907.583 940.263, 902.033 945.813 M 399 980.902 C 398.175 981.365, 395.878 982.034, 393.896 982.390 C 391.914 982.745, 388.582 984.514, 386.492 986.321 C 383.254 989.119, 382.590 990.405, 381.999 995.012 C 381.617 997.985, 381.663 1002.012, 382.100 1003.959 C 383.853 1011.764, 392.539 1014.615, 397.983 1009.171 C 401.730 1005.424, 402.988 1000.426, 402.994 989.250 C 403 979.780, 402.577 978.896, 399 980.902" stroke="none" fill="#f8fbf4" fill-rule="evenodd"/><path d="M 0 550.001 L 0 1100.002 590.250 1099.751 L 1180.500 1099.500 1180.751 549.750 L 1181.002 0 590.501 0 L 0 0 0 550.001 M 0.496 550.500 C 0.496 853, 0.611 976.601, 0.750 825.168 C 0.889 673.735, 0.889 426.235, 0.750 275.168 C 0.611 124.101, 0.496 248, 0.496 550.500 M 456.850 15.563 C 424.202 17.592, 376.849 23.092, 359 26.928 C 356.525 27.460, 352.475 28.185, 350 28.539 C 347.525 28.893, 342.800 29.806, 339.500 30.567 C 336.200 31.329, 328.325 33.087, 322 34.475 C 307.742 37.604, 289.744 42.160, 280.500 44.980 C 258.413 51.719, 250.393 54.377, 249.500 55.258 C 248.274 56.467, 250.270 56.242, 281.500 51.660 C 310.415 47.418, 338.451 44.196, 370 41.492 C 424.770 36.796, 505.054 37.045, 559 42.079 C 565.325 42.669, 574.550 43.536, 579.500 44.005 C 622.263 48.058, 680.079 58.493, 726.500 70.536 C 750.436 76.745, 795.161 90.677, 814.500 97.948 C 831.965 104.514, 858.654 115.302, 866.500 118.966 C 868.700 119.994, 875 122.848, 880.500 125.308 C 891.788 130.358, 924.649 146.824, 936 153.117 C 988.924 182.460, 1036.132 215.170, 1076.250 250.296 C 1079.963 253.546, 1083 255.936, 1083 255.606 C 1083 254.175, 1050.486 224.277, 1033.925 210.479 C 1018.964 198.015, 986.616 172.859, 979 167.766 C 977.625 166.846, 969.975 161.588, 962 156.079 C 948.382 146.674, 922.514 130, 921.541 130 C 921.299 130, 919.100 128.650, 916.655 127 C 914.210 125.350, 911.895 124, 911.509 124 C 911.124 124, 909.614 123.169, 908.154 122.153 C 906.694 121.137, 903.025 118.953, 900 117.300 C 896.975 115.647, 892.700 113.262, 890.500 111.999 C 885.100 108.901, 839.387 86, 838.602 86 C 838.259 86, 836.071 85.125, 833.739 84.055 C 789.796 63.894, 732.008 44.490, 686 34.449 C 679.675 33.069, 671.575 31.282, 668 30.478 C 658.950 28.444, 640.969 25.443, 618 22.134 C 566.700 14.744, 508.334 12.364, 456.850 15.563 M 91.500 73.563 C 74.601 74.781, 54.280 77.182, 47.500 78.763 C 43.483 79.700, 58.610 80.738, 78.500 80.892 C 103.369 81.083, 165.504 85.633, 189.500 89.019 C 193.350 89.562, 203.025 90.925, 211 92.046 C 228.253 94.472, 243.306 97.068, 263 101.013 C 303.289 109.084, 333.670 117.184, 373.500 130.471 C 475.515 164.504, 567.279 217.846, 629.429 279.240 C 637.090 286.808, 643.466 293, 643.599 293 C 643.732 293, 644.142 289.962, 644.510 286.250 C 649.838 232.544, 681.071 189.787, 730 169.217 C 752.136 159.911, 776.583 154.654, 803.668 153.374 C 811.590 153, 818.271 152.371, 818.514 151.977 C 819.240 150.803, 802.583 148.939, 786 148.339 C 762.678 147.495, 741.515 150.092, 719.337 156.519 C 688.752 165.382, 656.638 184.822, 635.244 207.423 L 627.285 215.832 618.892 211.382 C 607.360 205.267, 573.445 188.384, 562.500 183.311 C 546.744 176.007, 532.926 169.673, 522.543 164.995 C 509.979 159.334, 467.872 142.430, 452.500 136.875 C 446.450 134.689, 437.900 131.585, 433.500 129.979 C 393.516 115.378, 331.571 98.115, 288 89.429 C 216.838 75.243, 146.750 69.584, 91.500 73.563 M 165.383 123.829 C 151.857 133.948, 138.508 148.826, 127.379 166.189 C 122.814 173.311, 112.773 192.890, 111.467 197.216 C 111.088 198.472, 110.183 200.850, 109.456 202.500 C 105.975 210.398, 100.449 231.115, 97.585 247 C 95.127 260.632, 92.331 293.995, 93.646 294.010 C 119.082 294.294, 487.414 293.919, 487.725 293.608 C 488.306 293.027, 483.834 292.508, 461.500 290.565 C 416.694 286.666, 368.674 282.426, 353 280.986 C 347.225 280.455, 336.875 279.564, 330 279.007 C 323.125 278.450, 313 277.556, 307.500 277.021 C 302 276.485, 291.650 275.561, 284.500 274.966 C 277.350 274.371, 264.525 273.227, 256 272.424 C 247.475 271.620, 235.325 270.532, 229 270.004 C 222.675 269.477, 210.075 268.383, 201 267.573 C 157.484 263.687, 146.911 262.755, 139.507 262.151 C 131.628 261.509, 131.505 261.457, 130.875 258.500 C 127.551 242.885, 133.994 197.410, 142.984 173.040 C 148.017 159.397, 158.827 138.217, 164.186 131.500 C 172.152 121.516, 174.133 118.800, 173.738 118.404 C 173.478 118.144, 169.718 120.585, 165.383 123.829 M 804.417 165.492 C 790.862 167.620, 784.530 169.621, 772.559 175.560 C 748.861 187.318, 730.405 208.634, 722.150 233.782 C 718.401 245.202, 717.535 251.308, 717.583 266 C 717.636 282.205, 719.654 292.549, 725.290 305.500 C 734.842 327.453, 754.449 347.592, 775.452 357.025 C 790.681 363.864, 800.806 366, 818 366 C 831.071 366, 839.510 364.776, 849.783 361.392 C 856.893 359.049, 871.003 352.463, 872 351.022 C 872.275 350.625, 873.551 349.746, 874.835 349.069 C 880.392 346.141, 892.922 334.220, 899.076 326.007 C 913.356 306.947, 919.888 284.991, 918.713 260.001 C 917.292 229.770, 903.015 202.974, 878.510 184.543 C 858.010 169.125, 828.925 161.647, 804.417 165.492 M 225.162 320.831 C 222.068 321.269, 222.710 323.810, 228.277 333.147 C 237.001 347.779, 254.489 360.593, 271 364.451 C 279.486 366.434, 296.038 366.424, 304.688 364.429 C 325.275 359.683, 346.954 340.993, 352.434 323.265 L 353.125 321.030 290.313 320.765 C 255.766 320.619, 226.448 320.649, 225.162 320.831 M 175 421.065 C 147.819 423.278, 130.467 430.459, 114.914 445.931 C 96.586 464.161, 89.193 485.561, 85.492 531.094 C 82.791 564.334, 84.465 628.635, 88.575 649.500 C 95.916 686.763, 110.338 704.911, 138.305 712.072 C 153.506 715.965, 183.120 715.612, 197.880 711.362 C 209.898 707.902, 219.758 700.784, 224.693 692.005 C 226.195 689.331, 227.779 687.364, 228.212 687.631 C 228.646 687.899, 229.039 690.904, 229.088 694.309 C 229.136 697.714, 229.473 702.682, 229.838 705.349 L 230.500 710.197 255.250 710.349 C 276.652 710.480, 280 710.297, 279.999 709 C 279.998 708.175, 280.110 673.412, 280.249 631.750 L 280.500 556 232.750 556 L 185 556 185 581 C 185 600.303, 185.285 606.013, 186.250 606.056 C 186.938 606.087, 192.588 606.115, 198.806 606.119 C 208.342 606.125, 210.209 606.382, 210.738 607.761 C 211.664 610.173, 209.188 637.859, 207.449 644.534 C 205.135 653.418, 201.834 659.166, 197.156 662.456 C 193.497 665.030, 192.084 665.409, 186.227 665.389 C 168.797 665.331, 164.075 655.460, 161.884 614.500 C 160.372 586.237, 161.333 514.088, 163.396 501 C 165.477 487.802, 167.788 481.305, 171.959 476.933 C 180.433 468.051, 197.130 469.445, 202.713 479.500 C 205.796 485.053, 207.165 491.671, 207.884 504.500 L 208.500 515.500 244.600 515.762 L 280.699 516.025 280.365 508.762 C 279.288 485.334, 274.035 467.483, 264.021 453.224 C 250.680 434.227, 230.690 423.764, 202.500 421.024 C 191.387 419.943, 188.718 419.947, 175 421.065 M 308.669 426.664 C 307.554 427.779, 307.951 708.852, 309.069 709.542 C 309.820 710.007, 373.231 710.488, 379.750 710.078 C 380.744 710.016, 381 680.891, 381 568 L 381 426 345.167 426 C 325.458 426, 309.034 426.299, 308.669 426.664 M 611 568 C 611 680.924, 611.256 710.003, 612.250 710.017 C 612.938 710.026, 628.482 710.139, 646.794 710.267 L 680.088 710.500 680.632 708.331 C 680.931 707.138, 681.024 700.950, 680.838 694.580 C 680.652 688.209, 680.725 683, 681 683.002 C 681.275 683.005, 682.969 685.848, 684.763 689.319 C 694.545 708.238, 710.455 716.251, 735.039 714.642 C 751.389 713.572, 761.842 709.352, 770.974 700.134 C 787.239 683.717, 795.131 650.344, 794.945 598.764 C 794.709 533.189, 780.713 501.191, 748.068 491.596 C 740.041 489.237, 719.106 489.400, 711.125 491.884 C 699.260 495.577, 690.203 503.125, 686.327 512.550 C 685.322 514.993, 684.163 516.994, 683.750 516.996 C 683.337 516.998, 683 496.525, 683 471.500 L 683 426 647 426 L 611 426 611 568 M 1018.247 568.125 L 1018.500 710.249 1053 710.214 C 1071.975 710.195, 1088.063 710.139, 1088.750 710.089 C 1089.744 710.018, 1090 680.886, 1090 568 L 1090 426 1053.997 426 L 1017.993 426 1018.247 568.125 M 471.350 491.043 C 451.655 494.530, 433.546 505.225, 422.873 519.672 C 418.185 526.018, 412.963 536.997, 410.075 546.580 C 401.855 573.860, 402.155 639.393, 410.621 665.479 C 416.828 684.606, 427.877 697.774, 444.140 705.427 C 460.309 713.036, 476.766 715.652, 502.436 714.694 C 526.467 713.797, 541.694 709.222, 555.500 698.752 C 578.821 681.067, 587.372 654.959, 587.353 601.500 C 587.330 539.176, 576.513 512.817, 544.893 498.042 C 531.910 491.975, 524.855 490.794, 499.500 490.447 C 486.850 490.273, 474.183 490.541, 471.350 491.043 M 872.762 491.927 C 854.474 495.901, 844.224 501.493, 833.224 513.497 C 823.098 524.547, 817 540.563, 817 556.107 L 817 562 847.955 562 L 878.909 562 879.401 558.750 C 879.671 556.962, 880.146 553.270, 880.455 550.543 C 881.750 539.148, 887.663 534.044, 899.602 534.016 C 908.085 533.997, 912.410 536.300, 915.417 542.440 C 918.318 548.364, 918.075 559.343, 914.917 564.984 C 912.065 570.077, 905.186 574.351, 896.345 576.521 C 853.111 587.132, 849.368 588.203, 841.232 592.290 C 821.620 602.140, 813.346 613.323, 809.631 635 C 806.994 650.386, 808.545 670.897, 813.313 683.702 C 815.586 689.807, 821.070 697.956, 825.723 702.145 C 837.251 712.521, 858.515 717.127, 880.332 713.973 C 894.091 711.983, 908.703 702.690, 914.117 692.486 C 915.426 690.019, 916.746 688, 917.050 688 C 917.355 688, 918.336 692.558, 919.231 698.129 C 920.125 703.699, 921.290 708.690, 921.819 709.219 C 922.821 710.221, 989.536 710.797, 990.521 709.813 C 990.815 709.518, 990.537 707.977, 989.902 706.389 C 985.878 696.312, 985.744 693.822, 985.023 616 C 984.252 532.767, 984.517 536.172, 977.711 522.213 C 972.453 511.428, 960.011 500.485, 948 496.080 C 936.412 491.831, 928.691 490.814, 905 490.419 C 884.671 490.081, 880.321 490.284, 872.762 491.927 M 488.452 537.351 C 479.313 541.497, 475.991 559.275, 476.009 603.950 C 476.028 652.694, 479.929 667.517, 493.265 669.517 C 501.782 670.794, 507.718 667.042, 510.983 658.317 C 514.498 648.921, 515.230 636.725, 514.730 595.849 C 514.334 563.510, 513.990 556.560, 512.536 551.500 C 510.458 544.268, 508.687 541.137, 505.211 538.549 C 501.897 536.082, 492.700 535.424, 488.452 537.351 M 694.568 545.266 C 689.702 548.031, 686.638 553.883, 685.023 563.500 C 683.223 574.218, 682.551 615.458, 683.923 630.983 C 685.331 646.899, 687.580 654.204, 692.473 658.750 C 695.687 661.736, 696.507 662, 702.581 662 C 710.420 662, 713.904 660.294, 716.880 654.999 C 720.831 647.969, 721.984 639.747, 722.630 614 C 723.542 577.586, 721.544 557.490, 716.185 549.192 C 712.344 543.246, 701.569 541.289, 694.568 545.266 M 913.831 609.598 C 912.952 610.476, 909.231 611.825, 905.561 612.594 C 886.797 616.527, 878 626.393, 878 643.503 C 878 659.545, 886.875 669.499, 899.363 667.463 C 907.792 666.089, 912.251 661.542, 915.509 651 C 917.880 643.330, 918.978 608, 916.845 608 C 916.066 608, 914.710 608.719, 913.831 609.598 M 91.701 734.750 C 91.472 735.163, 91.332 762.500, 91.392 795.500 L 91.500 855.500 97.500 855.500 L 103.500 855.500 103.695 827.500 C 103.802 812.100, 103.915 798.938, 103.945 798.250 C 103.988 797.275, 111.793 797, 139.485 797 L 174.970 797 175.235 826.250 L 175.500 855.500 181.250 855.800 L 187 856.100 187 795 L 187 733.900 181.250 734.200 L 175.500 734.500 175 760.500 L 174.500 786.500 139.250 786.763 L 104 787.026 104 762.095 C 104 748.383, 103.727 736.452, 103.393 735.582 C 102.944 734.413, 101.393 734, 97.452 734 C 94.518 734, 91.930 734.337, 91.701 734.750 M 288 795 L 288 856 293 856 L 298 856 298 849 C 298 845.150, 298.337 842.027, 298.750 842.061 C 299.163 842.095, 300.867 844.007, 302.538 846.311 C 311.554 858.742, 335.811 861.871, 350.535 852.503 C 356.863 848.478, 360.550 844.139, 364.139 836.496 C 367.651 829.016, 369 822.081, 369 811.500 C 369 790.254, 361.809 776.560, 346.530 768.708 C 341.001 765.866, 339.669 765.605, 330.500 765.561 C 321.178 765.517, 320.043 765.737, 313.760 768.803 C 309.534 770.866, 305.835 773.567, 303.842 776.046 C 302.095 778.221, 300.291 780, 299.833 780 C 299.375 780, 299 769.650, 299 757 L 299 734 293.500 734 L 288 734 288 795 M 439.667 734.667 C 439.300 735.033, 439 738.647, 439 742.698 C 439 750.861, 439.376 751.331, 445.906 751.336 L 449.500 751.338 449.789 742.669 L 450.078 734 445.206 734 C 442.526 734, 440.033 734.300, 439.667 734.667 M 536.989 757.750 L 536.978 781.500 532.239 776.300 C 524.528 767.838, 514.578 764.190, 502.332 765.333 C 479.240 767.490, 465.460 787.638, 467.337 816.500 C 468.575 835.524, 475.673 847.779, 489.323 854.457 C 497.253 858.337, 509.912 859.074, 518.233 856.140 C 525.399 853.614, 532.363 848.887, 534.668 844.985 C 535.638 843.343, 536.784 842, 537.216 842 C 537.647 842, 538 845.150, 538 849 L 538 856 543 856 L 548 856 548 795 L 548 734 542.500 734 L 537 734 536.989 757.750 M 566 795 L 566 856.025 602.750 855.762 L 639.500 855.500 639.780 842.750 C 639.934 835.737, 639.709 829.941, 639.280 829.870 C 636.417 829.392, 630.392 829.201, 615.250 829.107 L 598 829 598 817.522 L 598 806.044 616.750 805.772 L 635.500 805.500 635.500 793.500 L 635.500 781.500 616.750 781.228 L 598 780.956 598 770.478 L 598 760 618.030 760 L 638.060 760 637.780 747.250 L 637.500 734.500 601.750 734.237 L 566 733.975 566 795 M 649.499 736.224 C 649.196 737.476, 649.072 764.825, 649.224 797 L 649.500 855.500 664.724 855.776 C 679.839 856.050, 679.953 856.035, 680.501 853.776 C 680.804 852.524, 680.928 825.175, 680.776 793 L 680.500 734.500 665.276 734.224 C 650.161 733.950, 650.047 733.965, 649.499 736.224 M 970.935 734.750 C 970.899 735.163, 970.693 740.131, 970.478 745.791 C 970 758.322, 969.057 757.718, 988 757.007 L 1001.500 756.500 1001.591 746.500 C 1001.641 741, 1001.480 735.938, 1001.234 735.250 C 1000.903 734.326, 996.902 734, 985.893 734 C 977.702 734, 970.971 734.337, 970.935 734.750 M 861.523 736.810 C 861.235 737.098, 861 743.084, 861 750.112 L 861 762.890 856.250 763.195 L 851.500 763.500 851.500 774 L 851.500 784.500 856 784.500 L 860.500 784.500 861 814 C 861.457 840.942, 861.673 843.841, 863.500 847.435 C 867.271 854.856, 868.989 855.456, 887.571 855.836 L 904 856.172 904 845.586 L 904 835 900.039 835 C 897.252 835, 895.474 834.351, 894.039 832.811 C 892.114 830.745, 892 829.382, 892 808.434 C 892 789.014, 892.206 786.074, 893.654 784.872 C 894.563 784.118, 895.463 783.612, 895.654 783.750 C 895.844 783.888, 897.800 784, 900 784 L 904 784 904 773.550 L 904 763.100 898.250 762.800 L 892.500 762.500 892 749.500 L 891.500 736.500 876.773 736.393 C 868.674 736.335, 861.811 736.522, 861.523 736.810 M 717.932 761.940 C 706.584 764.032, 697.733 771.663, 693.957 782.610 C 689.313 796.070, 689.328 825.788, 693.985 838.226 C 698.342 849.865, 706.174 855.320, 720.922 856.991 C 748.775 860.146, 763.085 851.106, 765.623 828.750 L 766.275 823 752.253 823 L 738.230 823 737.527 828.634 C 736.364 837.942, 729.897 841.988, 724.619 836.710 C 722.156 834.247, 721.087 828.955, 721.347 820.500 L 721.500 815.500 744 815 L 766.500 814.500 766.793 806.691 C 767.174 796.536, 764.600 781.699, 761.554 776.503 C 758.080 770.574, 752.941 765.972, 747.395 763.823 C 741.794 761.653, 725.230 760.595, 717.932 761.940 M 800.040 762.070 C 788.268 764.170, 779.490 772.259, 775.603 784.590 C 771.873 796.424, 771.142 818.747, 774.059 831.763 C 775.297 837.289, 779.310 845.601, 782.273 848.775 C 788.730 855.694, 804.359 859.070, 820.431 857.017 C 838.525 854.705, 846.315 846.153, 847.853 826.915 C 848.357 820.596, 848.245 817.648, 847.488 817.357 C 846.887 817.126, 840.568 817.064, 833.447 817.219 L 820.500 817.500 819.939 825 C 819.288 833.714, 818.719 835.277, 815.596 836.949 C 812.298 838.713, 809.008 837.913, 806.676 834.778 C 804.165 831.403, 802.835 816.612, 803.637 801 C 804.264 788.796, 805.325 784.586, 808.299 782.503 C 811.312 780.393, 813.452 780.625, 816.694 783.412 C 819.129 785.506, 819.566 786.729, 820 792.662 L 820.500 799.500 834.250 799.778 L 848 800.056 848 793.549 C 848 784.672, 844.805 775.275, 840.147 770.456 C 834.213 764.316, 827.808 761.959, 815.793 761.495 C 810.132 761.276, 803.043 761.535, 800.040 762.070 M 952.684 762.425 C 948.176 764.061, 945.679 766.165, 942.886 770.684 C 941.759 772.508, 940.472 774, 940.026 774 C 939.580 774, 939.336 771.745, 939.485 768.988 C 939.821 762.773, 939.969 762.824, 922.500 763.212 L 909.500 763.500 909.500 809.500 L 909.500 855.500 924.424 855.778 C 935.693 855.987, 939.546 855.743, 940.159 854.778 C 940.604 854.075, 940.976 841.418, 940.985 826.651 C 941.002 797.156, 941.371 794.984, 946.925 791.703 C 948.854 790.564, 952.434 789.912, 957.659 789.747 L 965.500 789.500 965.500 775.500 L 965.500 761.500 961 761.270 C 958.525 761.144, 954.783 761.664, 952.684 762.425 M 1040.305 762.009 C 1026.608 764.011, 1018.121 772.248, 1013.899 787.636 C 1012.148 794.017, 1011.796 798.063, 1011.827 811.413 C 1011.877 833.091, 1014.605 842.286, 1023.374 850.333 C 1027.690 854.294, 1031.822 855.797, 1041.800 857.037 C 1061.435 859.477, 1076.599 854.672, 1082.288 844.207 C 1085.260 838.739, 1088 827.816, 1088 821.438 L 1088 817 1074 817 L 1060 817 1060 821.557 C 1060 832.435, 1056.405 838.535, 1050.414 837.823 C 1045.898 837.286, 1043.884 833.333, 1042.788 822.855 C 1041.748 812.911, 1042.422 793.880, 1044.027 787.909 C 1045.406 782.774, 1048.129 780.614, 1052.248 781.387 C 1056.569 782.197, 1058.823 786.013, 1059.649 793.915 L 1060.285 800 1073.674 800 C 1085.225 800, 1087.150 799.772, 1087.700 798.340 C 1088.581 796.043, 1086.199 782.353, 1084.073 777.500 C 1081.948 772.648, 1076.315 766.852, 1071.509 764.571 C 1064.663 761.323, 1052.073 760.289, 1040.305 762.009 M 970.597 765.468 C 969.815 768.585, 969.861 852.474, 970.646 854.520 C 971.112 855.735, 973.879 856, 986.088 856 C 1000.684 856, 1000.972 855.958, 1001.509 853.750 C 1001.809 852.513, 1001.930 831.700, 1001.778 807.500 L 1001.500 763.500 986.365 763.225 L 971.230 762.949 970.597 765.468 M 417.187 767.926 C 410.006 770.003, 405.053 773.580, 400 780.338 L 396.500 785.019 396.211 776.509 L 395.922 768 390.961 768 L 386 768 386 812 L 386 856 390.893 856 C 394.459 856, 395.953 855.565, 396.401 854.398 C 396.739 853.516, 396.992 841.666, 396.963 828.064 C 396.920 807.579, 397.196 802.488, 398.569 798.416 C 402.513 786.718, 411.452 779.421, 423.500 778.063 L 428.500 777.500 428.500 772 C 428.500 766.853, 428.339 766.487, 426 766.300 C 424.625 766.190, 420.659 766.921, 417.187 767.926 M 200.022 769.250 C 200.034 769.938, 200.964 772.525, 202.088 775 C 203.212 777.475, 205.943 784.225, 208.157 790 C 210.372 795.775, 212.772 801.850, 213.492 803.500 C 214.211 805.150, 219.153 817.418, 224.473 830.763 C 233.792 854.138, 234.102 855.163, 232.928 858.763 C 230.438 866.406, 226.946 872.867, 223.942 875.396 C 220.771 878.063, 219.658 878.311, 212.192 878.014 L 207.884 877.842 208.192 882.671 L 208.500 887.500 213.750 887.802 L 219 888.105 219 962.073 L 219 1036.041 239.250 1035.771 L 259.500 1035.500 260.026 991 C 260.315 966.525, 260.653 946.399, 260.776 946.276 C 260.899 946.152, 262.328 945.365, 263.950 944.526 C 271.340 940.704, 277.277 944.300, 278.352 953.247 C 278.699 956.136, 278.987 975.938, 278.991 997.250 L 279 1036 299.051 1036 L 319.102 1036 318.801 985.250 L 318.500 934.500 316.111 929.212 C 311.375 918.733, 301.490 913, 288.156 913 C 278.145 913, 271.440 915.538, 265.250 921.669 C 262.363 924.529, 259.985 926.561, 259.967 926.185 C 259.948 925.808, 259.963 914.813, 259.999 901.750 L 260.064 878 248.699 878 C 242.448 878, 237.082 877.749, 236.775 877.442 C 236.468 877.135, 237.513 873.872, 239.097 870.192 C 240.682 866.511, 245.092 855.175, 248.897 845 C 255.225 828.080, 269.719 789.491, 275.471 774.250 L 277.830 768 272.075 768 L 266.320 768 264.967 772.250 C 264.222 774.587, 261.045 783.475, 257.906 792 C 250.801 811.298, 242.398 834.766, 241.524 837.750 C 240.487 841.292, 239.305 840.431, 237.093 834.520 C 235.966 831.506, 232.981 823.743, 230.460 817.270 C 227.940 810.796, 224.504 801.900, 222.826 797.500 C 221.148 793.100, 218.991 787.700, 218.035 785.500 C 217.078 783.300, 215.220 778.462, 213.906 774.750 L 211.518 768 205.759 768 C 201.807 768, 200.007 768.392, 200.022 769.250 M 439.667 768.667 C 438.834 769.500, 438.776 852.253, 439.607 854.418 C 440.046 855.562, 441.568 856, 445.107 856 L 450 856 450 812 L 450 768 445.167 768 C 442.508 768, 440.033 768.300, 439.667 768.667 M 322.841 775.387 C 316.155 776.822, 310.175 780.696, 306.533 785.953 C 295.501 801.872, 297.323 829.928, 310.141 841.509 C 315.899 846.711, 320.251 848.292, 329 848.361 C 338.643 848.438, 344.836 845.547, 350.266 838.433 C 355.131 832.059, 357.129 825.647, 357.722 814.500 C 358.502 799.853, 354.844 788.798, 346.750 781.337 C 340.189 775.289, 332.365 773.342, 322.841 775.387 M 499.954 775.376 C 492.595 777.337, 484.534 784.841, 481.560 792.500 C 473.403 813.508, 479.771 838.105, 495.487 846.291 C 501.726 849.541, 512.899 849.300, 519.638 845.771 C 526.046 842.415, 531.332 836.336, 534.153 829.079 C 535.917 824.541, 536.329 821.354, 536.360 812 C 536.404 798.959, 535.379 794.425, 530.840 787.572 C 524.097 777.392, 511.323 772.348, 499.954 775.376 M 724.590 782.497 C 722.121 785.161, 720.163 795.563, 721.818 797.218 C 722.300 797.700, 726.020 797.960, 730.086 797.797 C 738.450 797.461, 738.703 797.171, 737.516 789.257 C 736.264 780.912, 729.391 777.318, 724.590 782.497 M 130.500 875.168 C 107.635 877.452, 94.411 888.990, 88.549 911.767 C 84.708 926.693, 83.218 963.148, 85.515 986 C 89.385 1024.500, 103.513 1038.176, 139.500 1038.259 C 159.869 1038.305, 168.787 1035.703, 178.415 1026.904 C 188.732 1017.475, 193.128 1005.163, 193.357 985.058 L 193.500 972.500 173.500 972.500 L 153.500 972.500 152.812 986.307 C 151.812 1006.352, 148.322 1012.277, 138.587 1010.450 C 133.106 1009.422, 130.417 1005.225, 129.009 995.500 C 127.412 984.460, 128.138 918.063, 129.917 912.579 C 131.820 906.711, 136.002 902.995, 140.673 903.022 C 148.582 903.068, 151.149 907.628, 151.922 923 L 152.500 934.500 172.176 934.771 C 191.457 935.036, 191.865 934.999, 192.524 932.923 C 193.462 929.969, 192.158 913.696, 190.416 906.605 C 184.592 882.908, 163.547 871.866, 130.500 875.168 M 471.917 878.416 C 471.688 878.646, 471.618 914.196, 471.762 957.416 L 472.024 1036 492.012 1036 L 512 1036 512 957 L 512 878 492.167 878 C 481.258 878, 472.146 878.187, 471.917 878.416 M 542 957 L 542 1036 562 1036 L 582 1036 582 957 L 582 878 562 878 L 542 878 542 957 M 377.402 914.486 C 374.048 915.215, 369.049 916.955, 366.294 918.351 C 360.779 921.145, 353.217 928.916, 350.557 934.521 C 348.606 938.632, 346.547 950.377, 347.391 952.578 C 347.863 953.806, 350.703 954.003, 364.650 953.774 L 381.344 953.500 382.698 947.500 C 384.363 940.121, 386.665 938.053, 393.250 938.022 C 400.651 937.988, 403.874 942.448, 402.711 951.119 C 401.855 957.501, 398.791 959.337, 382.171 963.429 C 359.972 968.895, 352.473 972.934, 347.104 982.318 C 343.374 988.838, 341.890 999.702, 343.148 1011.277 C 344.169 1020.667, 347.396 1027.574, 352.707 1031.737 C 358.417 1036.213, 360.285 1036.958, 368.366 1037.983 C 382.092 1039.723, 393.518 1036.257, 399.733 1028.468 C 401.255 1026.561, 402.837 1025, 403.250 1025 C 403.663 1025, 404 1026.605, 404 1028.566 C 404 1036.071, 403.800 1036, 425.035 1036 C 436.131 1036, 444 1035.612, 444 1035.065 C 444 1034.551, 443.458 1032.863, 442.796 1031.315 C 441.948 1029.334, 441.415 1015.165, 440.997 983.500 C 440.428 940.376, 440.314 938.305, 438.271 933.830 C 433.433 923.229, 424.421 916.802, 411.050 914.417 C 401.542 912.720, 385.364 912.754, 377.402 914.486 M 640.350 914.905 C 624.612 918.774, 615.144 928.756, 610.380 946.500 C 607.662 956.621, 607.634 997.323, 610.338 1006.929 C 616.806 1029.909, 629.365 1038.157, 658 1038.235 C 685.959 1038.311, 698.816 1029.977, 704.384 1008.169 C 705.273 1004.687, 706 1000.075, 706 997.919 L 706 994 688.094 994 L 670.188 994 669.534 998.750 C 669.175 1001.362, 668.917 1003.842, 668.961 1004.260 C 669.005 1004.679, 668.402 1006.255, 667.623 1007.763 C 663.868 1015.023, 656.990 1016.450, 651.619 1011.084 C 648.505 1007.973, 648.499 1007.946, 648.168 995.484 L 647.837 983 677.418 983 L 707 983 706.965 970.750 C 706.885 942.718, 699.811 925.254, 685.675 918.195 C 675.257 912.992, 654.315 911.472, 640.350 914.905 M 785.500 915.055 C 779.734 917.305, 775.149 921.066, 772.126 926.025 L 770.007 929.500 770.004 922.750 L 770 916 750.500 916 L 731 916 731 976 L 731 1036 750.969 1036 L 770.939 1036 771.219 992.572 C 771.493 950.247, 771.553 949.073, 773.599 946.322 C 775.955 943.155, 781.383 942.064, 785.042 944.023 C 789.749 946.542, 790 949.067, 790 993.968 L 790 1036 810 1036 L 830 1036 830 986.182 C 830 928.374, 830.031 928.629, 821.965 920.807 C 818.599 917.544, 815.529 915.641, 811.881 914.557 C 804.488 912.362, 791.789 912.601, 785.500 915.055 M 883.500 913.873 C 871.395 917.032, 863.475 926.095, 859.589 941.234 C 853.969 963.136, 855.474 997.269, 862.754 1013 C 868.264 1024.905, 874.670 1030.271, 885.607 1032.142 C 898.025 1034.267, 909.933 1029.910, 915.500 1021.204 C 916.600 1019.484, 917.837 1018.060, 918.250 1018.039 C 919.315 1017.984, 919.137 1037.702, 918.028 1042.500 C 916.719 1048.171, 913.080 1051, 907.097 1051 C 901.660 1051, 898.527 1048.950, 897.459 1044.691 L 896.783 1042 878.975 1042 C 865.966 1042, 861.058 1042.325, 860.765 1043.206 C 860.227 1044.820, 862.775 1055.664, 864.455 1058.910 C 870.481 1070.551, 884.043 1076.016, 906.815 1075.983 C 926.235 1075.954, 938.268 1072.295, 946.833 1063.814 C 951.698 1058.998, 955.674 1051.133, 957.074 1043.557 C 957.616 1040.625, 957.906 1012.584, 957.758 977.482 L 957.500 916.500 938.796 916.228 L 920.092 915.956 919.796 922.728 L 919.500 929.500 917.809 926.500 C 912.794 917.606, 905.997 913.778, 894.500 913.373 C 890.100 913.218, 885.150 913.443, 883.500 913.873 M 1017.594 914.644 C 1001.053 918.190, 991.535 927.486, 986.513 945 C 982.694 958.319, 982.605 993.745, 986.356 1007.591 C 992.295 1029.515, 1005.210 1037.981, 1033 1038.167 C 1052.740 1038.300, 1062.897 1035.174, 1070.884 1026.510 C 1076.197 1020.746, 1078.815 1014.965, 1080.572 1005.114 C 1082.776 992.757, 1084.685 994, 1063.500 994 L 1045 994 1044.994 998.250 C 1044.981 1008.131, 1041.008 1014, 1034.330 1014 C 1029.922 1014, 1026.422 1011.649, 1025.075 1007.785 C 1024.484 1006.089, 1024 999.819, 1024 993.851 L 1024 983 1053.644 983 L 1083.287 983 1082.732 967.750 C 1082.416 959.072, 1081.469 949.530, 1080.534 945.609 C 1076.345 928.040, 1066.559 917.863, 1050.500 914.374 C 1042.598 912.657, 1026.235 912.791, 1017.594 914.644 M 652.761 939.384 C 649.887 941.566, 648 947.544, 648 954.468 L 648 961 658.500 961 L 669 961 669 953.968 C 669 946.179, 667.223 940.725, 664.150 939.080 C 661.389 937.602, 654.879 937.776, 652.761 939.384 M 1027.960 940.040 C 1024.929 943.071, 1024 946.361, 1024 954.065 L 1024 961 1034.500 961 L 1045 961 1045 954.520 C 1045 946.708, 1042.809 940.690, 1039.399 939.136 C 1035.449 937.336, 1030.253 937.747, 1027.960 940.040 M 902.033 945.813 C 897.886 949.960, 896.731 957.210, 897.162 976.390 C 897.468 989.980, 897.836 993.126, 899.512 996.500 C 904.203 1005.940, 914.190 1004.405, 917.059 993.803 C 918.584 988.165, 918.563 957.805, 917.030 952.111 C 914.637 943.226, 907.583 940.263, 902.033 945.813 M 399 980.902 C 398.175 981.365, 395.878 982.034, 393.896 982.390 C 391.914 982.745, 388.582 984.514, 386.492 986.321 C 383.254 989.119, 382.590 990.405, 381.999 995.012 C 381.617 997.985, 381.663 1002.012, 382.100 1003.959 C 383.853 1011.764, 392.539 1014.615, 397.983 1009.171 C 401.730 1005.424, 402.988 1000.426, 402.994 989.250 C 403 979.780, 402.577 978.896, 399 980.902" stroke="none" fill="#8cc243" fill-rule="evenodd"/></svg>