<svg xmlns="http://www.w3.org/2000/svg" width="256" height="256" viewBox="0 0 256 256" version="1.1"><path d="M 119.677 28.678 C 115.455 32.928, 112.016 36.651, 112.035 36.952 C 112.054 37.254, 115.627 41.064, 119.976 45.420 L 127.883 53.339 135.942 45.434 C 140.374 41.085, 144 37.236, 144 36.880 C 144 36.144, 129.293 21.646, 128.119 21.226 C 127.698 21.075, 123.899 24.428, 119.677 28.678 M 127.775 81.178 L 98.050 111.192 106.015 119.136 C 112.600 125.703, 114.286 126.907, 115.740 126.082 C 116.708 125.533, 130.418 112.098, 146.207 96.227 L 174.914 67.370 166.686 59.185 C 162.161 54.683, 158.243 51.037, 157.979 51.082 C 157.716 51.127, 144.124 64.670, 127.775 81.178 M 134.750 134.973 C 105.738 164.013, 82 188.201, 82 188.724 C 82 189.694, 96.708 205, 97.640 205 C 98.417 205, 205 98.311, 205 97.533 C 205 96.372, 189.714 81.995, 188.577 82.087 C 187.985 82.134, 163.762 105.933, 134.750 134.973 M 165.420 165.436 C 136.039 194.825, 112 219.184, 112 219.565 C 112 219.947, 115.676 223.762, 120.169 228.043 L 128.338 235.826 181.735 182.362 C 211.104 152.957, 234.990 128.521, 234.816 128.059 C 234.333 126.777, 220.230 112, 219.490 112 C 219.133 112, 194.801 136.046, 165.420 165.436" stroke="none" fill="#842c92" fill-rule="evenodd"/><path d="M 126.405 21.155 C 125.942 21.903, 126.133 22.036, 126.947 21.532 C 127.766 21.026, 130.692 23.148, 135.352 27.628 L 142.500 34.500 135.527 27.250 C 131.692 23.262, 128.231 20, 127.836 20 C 127.441 20, 126.797 20.520, 126.405 21.155 M 120 27.500 C 117.571 29.975, 115.809 32, 116.084 32 C 116.359 32, 118.571 29.975, 121 27.500 C 123.429 25.025, 125.191 23, 124.916 23 C 124.641 23, 122.429 25.025, 120 27.500 M 112.405 35.250 L 110.500 37.500 112.750 35.595 C 114.864 33.805, 115.455 33, 114.655 33 C 114.465 33, 113.453 34.013, 112.405 35.250 M 166 58.500 C 170.651 63.175, 174.681 67, 174.956 67 C 175.231 67, 171.651 63.175, 167 58.500 C 162.349 53.825, 158.319 50, 158.044 50 C 157.769 50, 161.349 53.825, 166 58.500 M 88.495 59.005 L 80.536 67.011 95.505 82.005 C 103.739 90.252, 110.839 97, 111.284 97 C 111.729 97, 115.728 93.350, 120.172 88.888 L 128.251 80.776 113.388 65.888 C 105.213 57.700, 98.059 51, 97.489 51 C 96.919 51, 92.872 54.602, 88.495 59.005 M 147.946 60.750 L 144.500 64.500 148.250 61.054 C 150.313 59.158, 152 57.471, 152 57.304 C 152 56.540, 151.154 57.260, 147.946 60.750 M 131.946 76.750 L 128.500 80.500 132.250 77.054 C 134.313 75.158, 136 73.471, 136 73.304 C 136 72.540, 135.154 73.260, 131.946 76.750 M 58.727 88.772 C 54.477 93.047, 51 96.987, 51 97.528 C 51 98.070, 64.275 111.782, 80.500 128 C 96.725 144.218, 110 157.965, 110 158.549 C 110 159.133, 114.134 155.631, 119.186 150.768 L 128.372 141.925 121.564 135.065 C 117.113 130.579, 115.025 127.769, 115.532 126.947 C 116.035 126.135, 115.903 125.942, 115.160 126.401 C 114.476 126.824, 110.809 123.917, 106.086 119.206 L 98.160 111.302 101.330 107.924 L 104.500 104.546 101.445 107.273 C 99.765 108.773, 97.959 110, 97.432 110 C 96.905 110, 89.961 103.475, 82 95.500 C 74.039 87.525, 67.284 81, 66.989 81 C 66.694 81, 62.976 84.497, 58.727 88.772 M 193 85.500 C 194.292 86.875, 195.574 88, 195.849 88 C 196.124 88, 195.292 86.875, 194 85.500 C 192.708 84.125, 191.426 83, 191.151 83 C 190.876 83, 191.708 84.125, 193 85.500 M 178.405 91.250 L 176.500 93.500 178.750 91.595 C 179.988 90.547, 181 89.535, 181 89.345 C 181 88.545, 180.195 89.136, 178.405 91.250 M 148.872 92.750 C 147.629 94.336, 147.664 94.371, 149.250 93.128 C 150.213 92.373, 151 91.585, 151 91.378 C 151 90.555, 150.179 91.084, 148.872 92.750 M 136 106.488 C 130.775 111.981, 126.926 116.131, 127.446 115.709 C 127.966 115.287, 131.398 117.925, 135.072 121.571 L 141.753 128.201 150.793 119.100 C 155.764 114.095, 159.294 110, 158.635 110 C 157.425 110, 146.546 99.349, 145.867 97.500 C 145.665 96.950, 141.225 100.995, 136 106.488 M 162.405 107.250 L 160.500 109.500 162.750 107.595 C 163.988 106.547, 165 105.535, 165 105.345 C 165 104.545, 164.195 105.136, 162.405 107.250 M 217.872 112.750 C 216.629 114.336, 216.664 114.371, 218.250 113.128 C 219.213 112.373, 220 111.585, 220 111.378 C 220 110.555, 219.179 111.084, 217.872 112.750 M 27.489 120.011 L 19.525 128.022 52.463 160.761 C 70.579 178.767, 84.636 192.565, 83.701 191.421 C 82.765 190.278, 82 188.870, 82 188.292 C 82 187.715, 85.075 184.342, 88.832 180.797 C 92.590 177.252, 96.023 173.771, 96.462 173.062 C 97.011 172.172, 87.978 162.486, 67.386 141.886 C 50.956 125.449, 37.049 112, 36.483 112 C 35.916 112, 31.869 115.605, 27.489 120.011 M 229.427 121.697 C 234.714 127.244, 235.190 128.083, 233.971 129.697 C 232.668 131.423, 232.691 131.425, 234.532 129.737 C 236.408 128.017, 236.298 127.823, 229.988 121.737 L 223.522 115.500 229.427 121.697 M 176.872 125.750 C 175.629 127.336, 175.664 127.371, 177.250 126.128 C 178.213 125.373, 179 124.585, 179 124.378 C 179 123.555, 178.179 124.084, 176.872 125.750 M 165.748 137.103 C 160.935 141.996, 157.574 146, 158.280 146 C 158.985 146, 162.234 148.700, 165.500 152 C 168.766 155.300, 171.748 158, 172.127 158 C 172.991 158, 190 141.349, 190 140.503 C 190 140.161, 189.628 140.112, 189.173 140.393 C 188.719 140.674, 185.469 138, 181.952 134.452 C 178.435 130.903, 175.320 128.046, 175.029 128.103 C 174.738 128.159, 170.562 132.209, 165.748 137.103 M 217.405 146.250 L 215.500 148.500 217.750 146.595 C 219.864 144.805, 220.455 144, 219.655 144 C 219.465 144, 218.453 145.012, 217.405 146.250 M 136.723 166.348 L 127.947 175.294 134.830 182.397 L 141.714 189.500 149.607 181.232 C 153.948 176.685, 157.700 172.735, 157.944 172.455 C 158.188 172.175, 155.653 169.145, 152.310 165.723 C 148.968 162.300, 146.068 159.028, 145.866 158.451 C 145.665 157.875, 141.551 161.428, 136.723 166.348 M 106.405 163.250 L 104.500 165.500 106.750 163.595 C 108.864 161.805, 109.455 161, 108.655 161 C 108.465 161, 107.453 162.012, 106.405 163.250 M 177.405 186.250 L 175.500 188.500 177.750 186.595 C 178.988 185.547, 180 184.535, 180 184.345 C 180 183.545, 179.195 184.136, 177.405 186.250 M 105.842 197.182 L 97.346 205.863 104.315 212.832 L 111.283 219.800 119.691 211.277 L 128.100 202.754 121.219 195.627 L 114.338 188.500 105.842 197.182 M 93.500 202 C 94.495 203.100, 95.535 204, 95.810 204 C 96.085 204, 95.495 203.100, 94.500 202 C 93.505 200.900, 92.465 200, 92.190 200 C 91.915 200, 92.505 200.900, 93.500 202 M 161.872 201.750 C 160.629 203.336, 160.664 203.371, 162.250 202.128 C 163.916 200.821, 164.445 200, 163.622 200 C 163.415 200, 162.627 200.787, 161.872 201.750 M 145.872 217.750 C 144.629 219.336, 144.664 219.371, 146.250 218.128 C 147.916 216.821, 148.445 216, 147.622 216 C 147.415 216, 146.627 216.787, 145.872 217.750 M 117.500 226 C 118.495 227.100, 119.535 228, 119.810 228 C 120.085 228, 119.495 227.100, 118.500 226 C 117.505 224.900, 116.465 224, 116.190 224 C 115.915 224, 116.505 224.900, 117.500 226 M 122.500 231 C 123.495 232.100, 124.535 233, 124.810 233 C 125.085 233, 124.495 232.100, 123.500 231 C 122.505 229.900, 121.465 229, 121.190 229 C 120.915 229, 121.505 229.900, 122.500 231" stroke="none" fill="#d86239" fill-rule="evenodd"/><path d="M -0 128.004 L -0 256.008 128.250 255.754 L 256.500 255.500 256.754 127.750 L 257.008 0 128.504 0 L 0 0 -0 128.004 M 0.485 128.500 C 0.485 198.900, 0.604 227.553, 0.750 192.172 C 0.896 156.792, 0.896 99.192, 0.750 64.172 C 0.604 29.153, 0.485 58.100, 0.485 128.500 M 119.221 28.278 L 110.987 36.555 118.965 44.528 C 123.353 48.912, 127.419 52.500, 128 52.500 C 128.581 52.500, 132.647 48.912, 137.035 44.528 L 145.013 36.555 136.779 28.278 C 132.250 23.725, 128.299 20, 128 20 C 127.701 20, 123.750 23.725, 119.221 28.278 M 143.242 65.250 L 128.008 80.483 113.242 65.742 C 105.121 57.634, 98.021 51, 97.464 51 C 96.908 51, 92.872 54.603, 88.494 59.006 L 80.536 67.011 95.776 82.276 L 111.017 97.541 104.732 103.770 C 101.275 107.197, 98.014 110, 97.485 110 C 96.957 110, 89.884 103.371, 81.768 95.268 L 67.011 80.536 59.005 88.495 C 54.602 92.872, 51 96.916, 51 97.483 C 51 98.049, 64.275 111.782, 80.500 128 C 96.725 144.218, 110 157.953, 110 158.523 C 110 159.092, 107.180 162.353, 103.733 165.769 L 97.467 171.979 67.490 141.990 C 51.002 125.495, 37.049 112, 36.483 112 C 35.916 112, 31.869 115.605, 27.489 120.011 L 19.525 128.022 73.762 182.260 L 128 236.498 182.246 182.252 L 236.492 128.006 227.990 119.504 L 219.488 111.003 204.214 126.212 L 188.940 141.422 182.231 134.712 L 175.521 128.003 190.766 112.735 L 206.010 97.466 197.500 89 L 188.990 80.535 174.233 95.267 C 166.117 103.370, 159.044 110, 158.517 110 C 157.201 110, 146 98.818, 146 97.504 C 146 96.922, 152.525 89.961, 160.500 82.034 C 168.475 74.108, 175 67.360, 175 67.039 C 175 66.718, 171.282 62.757, 166.738 58.236 L 158.475 50.017 143.242 65.250 M 121.337 121.333 L 114.500 127.975 121.250 134.728 L 128 141.481 134.741 134.741 L 141.481 128 134.827 121.346 L 128.173 114.692 121.337 121.333 M 151.719 151.779 C 148.573 154.957, 146 158.008, 146 158.558 C 146 159.108, 148.825 162.357, 152.277 165.779 L 158.554 172 165.279 165.223 L 172.004 158.446 165.725 152.223 C 162.272 148.800, 158.994 146, 158.442 146 C 157.889 146, 154.864 148.601, 151.719 151.779 M 120.990 182.510 L 114.538 189.020 121.269 195.751 L 128 202.481 134.731 195.751 L 141.462 189.020 135.010 182.510 C 131.461 178.929, 128.307 176, 128 176 C 127.693 176, 124.539 178.929, 120.990 182.510" stroke="none" fill="#fbfafa" fill-rule="evenodd"/></svg>