<svg xmlns="http://www.w3.org/2000/svg" width="681" height="538" viewBox="0 0 681 538" version="1.1"><path d="M 349.087 45.838 C 346.779 50.149, 351.776 54.881, 355.905 52.295 C 357.941 51.020, 358.508 47.317, 356.954 45.445 C 355.230 43.367, 350.277 43.615, 349.087 45.838 M 362.223 45.557 C 359.524 47.447, 359.369 50.119, 361.829 52.345 C 365.345 55.527, 370 53.824, 370 49.357 C 370 47.450, 366.780 44, 365 44 C 364.695 44, 363.445 44.701, 362.223 45.557 M 293.571 59.571 C 290.512 62.631, 292.741 68, 297.071 68 C 298.966 68, 303 64.749, 303 63.223 C 303 62.795, 302.299 61.445, 301.443 60.223 C 299.628 57.630, 295.827 57.316, 293.571 59.571 M 364 62.452 C 360.189 65.332, 359.423 66.500, 359 70.075 C 358.514 74.178, 358.387 74.307, 354.500 74.644 C 342.316 75.700, 340.759 77.116, 338.080 89.563 C 337.023 94.478, 335.878 99.211, 335.537 100.079 C 334.995 101.460, 337.278 101.808, 353.709 102.846 C 375.845 104.245, 387.992 105.951, 404.899 110.038 C 411.719 111.687, 417.374 112.915, 417.467 112.768 C 417.560 112.620, 419.452 106.200, 421.671 98.500 C 424.792 87.671, 425.400 84.427, 424.353 84.177 C 423.609 83.999, 420.525 84.986, 417.500 86.371 C 413.055 88.406, 412 89.351, 412 91.295 C 412 93.353, 410.264 99.805, 409.432 100.836 C 409.165 101.168, 394 97.987, 394 97.599 C 394 97.489, 394.890 93.371, 395.978 88.449 C 397.066 83.527, 397.966 78.727, 397.978 77.781 C 398.004 75.755, 396.624 76.140, 390.016 80.001 C 386.237 82.209, 385.489 83.162, 385.258 86.061 C 385.107 87.952, 384.608 90.850, 384.149 92.500 C 383.351 95.366, 383.094 95.488, 378.407 95.233 C 375.708 95.086, 372.442 94.729, 371.150 94.439 L 368.800 93.912 369.445 80.206 C 369.800 72.668, 370.335 64.813, 370.633 62.750 C 371.324 57.978, 369.997 57.918, 364 62.452 M 390.750 60.080 C 388.740 61.251, 388.401 66.001, 390.200 67.800 C 393.352 70.952, 399.838 67.215, 398.505 63.014 C 398.133 61.843, 396.713 60.461, 395.349 59.943 C 392.430 58.833, 392.917 58.818, 390.750 60.080 M 295.072 80.538 C 292.405 87.666, 292.432 87.970, 296.035 91.371 C 300.705 95.779, 302.292 99.608, 301.757 105.176 C 301.195 111.024, 299.447 113.131, 292.773 116.002 C 289.007 117.622, 288.053 118.420, 289.094 119.079 C 291.428 120.557, 298.248 120.070, 302.541 118.120 C 313.243 113.259, 315.973 101.641, 309.515 88.442 C 306.746 82.782, 300.211 75, 298.227 75 C 297.631 75, 296.211 77.492, 295.072 80.538 M 265.033 82.675 C 249.220 89.207, 247.316 92.311, 250.994 105.567 C 252.204 109.930, 253.529 113.856, 253.939 114.292 C 254.348 114.727, 258.630 113.939, 263.453 112.542 C 268.277 111.144, 272.407 110, 272.631 110 C 272.855 110, 272.743 111.237, 272.383 112.750 C 271.150 117.929, 268.654 120.967, 264.251 122.648 C 261.876 123.555, 260.095 124.793, 260.293 125.399 C 260.892 127.224, 266.016 127.266, 270.685 125.483 C 276.772 123.158, 280.572 119.688, 282.468 114.722 C 284.018 110.662, 283.980 110.154, 281.483 101.500 C 276.421 83.963, 274.798 79.001, 274.153 79.089 C 273.794 79.138, 269.690 80.752, 265.033 82.675 M 351.693 84.700 C 350.699 84.958, 349.462 86.285, 348.943 87.649 C 347.151 92.364, 347.633 93, 353 93 L 358 93 358 88.500 C 358 83.764, 357.189 83.276, 351.693 84.700 M 233.279 91.208 C 232.709 91.918, 231.266 94.436, 230.074 96.803 L 227.905 101.107 230.544 106.501 C 233.012 111.545, 233.145 114, 230.951 114 C 230.440 114, 223.379 117.176, 215.260 121.059 L 200.500 128.117 198 124.921 C 195.373 121.563, 189.125 112.751, 183.710 104.768 C 181.944 102.165, 179.993 100.028, 179.373 100.018 C 178.753 100.008, 177.544 102.786, 176.687 106.191 L 175.127 112.381 177.814 115.444 C 179.291 117.129, 184.213 123.743, 188.750 130.143 C 196.063 140.456, 197 142.276, 197 146.166 C 197 151.229, 195.151 154.354, 190.832 156.587 C 187.008 158.564, 184.035 157.848, 179.485 153.852 C 174.735 149.682, 173.501 151.238, 178.166 155.514 C 185.544 162.275, 195.362 162.297, 202.495 155.569 C 205.715 152.532, 208.473 145.657, 207.593 142.857 C 205.536 136.305, 205.232 136.685, 217.267 130.754 C 223.445 127.709, 232.435 123.706, 237.243 121.859 C 242.052 120.011, 245.990 118.094, 245.993 117.597 C 246.003 116.342, 235.976 91.681, 235.060 90.708 C 234.651 90.272, 233.849 90.497, 233.279 91.208 M 440.945 92.818 C 438.989 94.293, 436.341 96.196, 435.059 97.046 C 432.785 98.555, 433.027 98.721, 445.115 103.978 C 458.549 109.820, 461 111.378, 461 114.073 C 461 118.848, 460.362 118.817, 446.712 113.378 C 428.111 105.967, 428.439 106.014, 426.553 110.527 C 425.699 112.572, 425.007 114.527, 425.015 114.872 C 425.023 115.217, 430.986 117.729, 438.265 120.454 C 445.544 123.179, 456.900 128.129, 463.500 131.454 L 475.500 137.500 475.662 143.130 C 475.928 152.352, 480.043 157.857, 488.341 160.092 C 498.031 162.701, 509 154.494, 509 144.634 C 509 142.628, 507.587 138.501, 505.646 134.835 L 502.291 128.500 494.967 128.203 C 490.939 128.039, 486.426 128.409, 484.938 129.026 C 482.611 129.990, 481.378 129.715, 476.116 127.059 C 472.752 125.361, 470.005 123.640, 470.011 123.236 C 470.017 122.831, 470.703 120.252, 471.537 117.505 C 472.370 114.759, 472.783 111.290, 472.456 109.797 C 471.571 105.771, 466.354 101.771, 457.149 98.060 C 452.642 96.243, 448.112 93.686, 447.083 92.378 C 446.054 91.070, 445.052 90.031, 444.856 90.068 C 444.660 90.106, 442.900 91.344, 440.945 92.818 M 263.223 94.557 C 261.631 95.672, 261 97.128, 261 99.688 C 261 103.244, 261.018 103.259, 264.664 102.667 C 269.577 101.870, 270.139 101.087, 268.933 96.720 C 267.809 92.649, 266.600 92.191, 263.223 94.557 M 397.571 118.571 C 395.427 120.716, 395.599 123.327, 398.030 125.527 C 402.399 129.481, 408.731 122.995, 404.950 118.440 C 403.372 116.538, 399.536 116.606, 397.571 118.571 M 408.408 122.500 C 406.891 124.816, 406.891 125.184, 408.408 127.500 C 411.347 131.986, 418 129.880, 418 124.464 C 418 119.828, 411.086 118.413, 408.408 122.500 M 247.200 126.200 C 244.518 128.882, 246.908 135, 250.637 135 C 255.231 135, 257.919 129.319, 254.800 126.200 C 253.253 124.653, 248.747 124.653, 247.200 126.200 M 236.571 130.571 C 234.706 132.436, 234.517 136.117, 236.200 137.800 C 236.860 138.460, 238.570 139, 240 139 C 244.880 139, 246.802 133.941, 243.171 130.655 C 240.875 128.577, 238.595 128.548, 236.571 130.571 M 487.571 140.571 C 485.697 142.445, 485.626 143.421, 487.150 146.316 C 489.368 150.531, 492.813 151.187, 496 148 C 499.816 144.184, 497.512 139, 492 139 C 490.429 139, 488.436 139.707, 487.571 140.571 M 155.995 162.692 C 152.423 165.824, 148.669 169.087, 147.652 169.943 C 142.774 174.054, 124.101 195.352, 116.481 205.497 C 82.654 250.534, 63.049 304.962, 60.345 361.346 L 59.690 375 67.691 375 L 75.692 375 76.358 361.250 C 79.505 296.256, 106.912 234.251, 152.981 187.898 C 160.417 180.418, 167.991 173.110, 169.814 171.659 L 173.128 169.022 168.453 163.261 C 165.882 160.092, 163.489 157.387, 163.134 157.248 C 162.779 157.110, 159.567 159.559, 155.995 162.692 M 516.591 162.987 L 511.935 168.914 527.813 184.707 C 551.727 208.493, 565.574 227.080, 578.975 253.385 C 596.903 288.574, 608 331.533, 608 365.744 L 608 375 616 375 L 624 375 624 366.674 C 624 347.813, 619.649 319.270, 613.379 297 C 599.757 248.615, 571.057 201.873, 534.234 168.105 C 520.625 155.625, 522.050 156.039, 516.591 162.987 M 317 258.113 C 282.317 295.850, 283.391 294.561, 285.021 296.525 C 285.694 297.336, 286.776 298, 287.424 298 C 288.073 298, 300.435 284.692, 314.896 268.427 C 329.357 252.162, 341.350 239.016, 341.547 239.214 C 341.925 239.592, 313.694 319.068, 312.489 321.017 C 311.834 322.078, 315.559 327, 317.016 327 C 317.383 327, 324.307 307.071, 332.401 282.713 C 340.496 258.355, 347.537 237.767, 348.047 236.963 C 348.768 235.826, 366.085 252.723, 425.737 312.769 L 502.500 390.037 532.751 390.269 C 549.389 390.396, 563.001 390.254, 563.001 389.953 C 563 389.652, 561.294 387.740, 559.208 385.703 L 555.416 382 531.458 381.962 L 507.500 381.924 472 347.292 C 452.475 328.245, 419.850 296.375, 399.500 276.471 C 362.689 240.466, 348.354 226.720, 347.138 226.258 C 346.787 226.124, 333.225 240.459, 317 258.113 M 237.483 280.273 C 230.874 286.448, 206.799 308.556, 183.983 329.403 C 132.633 376.322, 133.300 375.705, 132.522 376.964 C 132.111 377.630, 133.781 377.995, 137.191 377.986 C 143.237 377.970, 142.884 378.232, 162.500 359.162 C 168.550 353.281, 185.200 337.235, 199.500 323.504 C 213.800 309.773, 229.909 294.255, 235.297 289.019 C 240.685 283.784, 245.472 279.367, 245.935 279.204 C 246.766 278.911, 243.890 288.492, 231.412 327.586 C 227.885 338.634, 225 348.352, 225 349.181 C 225 350.833, 228.062 354, 229.660 354 C 230.211 354, 235.502 336.563, 241.419 315.250 C 247.335 293.938, 252.375 276.298, 252.620 276.051 C 252.864 275.804, 254.334 276.929, 255.887 278.551 C 257.440 280.173, 270.327 293.650, 284.526 308.500 C 298.726 323.350, 316.204 341.476, 323.368 348.781 L 336.392 362.062 338.946 359.508 L 341.500 356.954 324.500 340.174 C 290.730 306.843, 251.849 269.495, 250.687 269.273 C 250.034 269.148, 244.092 274.098, 237.483 280.273 M 454.313 278.097 C 451.116 280.952, 444.939 286.487, 440.586 290.395 C 436.234 294.303, 432.047 297.962, 431.283 298.526 C 430.146 299.364, 430.375 300.002, 432.541 302.026 L 435.188 304.500 446.147 293 C 458.428 280.114, 458.282 279.856, 450.372 300.477 L 445.010 314.454 447.461 316.727 C 448.810 317.977, 450.270 318.997, 450.706 318.993 C 451.143 318.989, 453.705 311.002, 456.400 301.243 C 459.095 291.484, 461.516 283.110, 461.781 282.634 C 462.045 282.158, 486.631 306.134, 516.415 335.915 L 570.569 390.063 597.785 390.281 L 625 390.500 625 386.250 L 625 382 600.250 381.974 L 575.500 381.948 567.500 374.292 C 563.100 370.081, 555.890 363.230, 551.479 359.068 C 547.067 354.906, 526.367 335.260, 505.479 315.411 C 484.590 295.562, 465.841 277.878, 463.813 276.113 L 460.127 272.904 454.313 278.097 M 208.105 344.061 C 205.461 346.263, 185.663 364.516, 177.010 372.730 L 171.500 377.960 176.176 377.980 L 180.852 378 193.143 365.050 C 199.903 357.928, 205.581 352.248, 205.761 352.428 C 205.941 352.608, 202.908 360.718, 199.020 370.450 C 195.133 380.182, 191.850 388.621, 191.726 389.203 C 191.602 389.786, 193.343 390.428, 195.596 390.629 L 199.692 390.996 205.530 371.748 C 208.741 361.162, 211.675 352.133, 212.050 351.685 C 212.424 351.236, 220.554 359.561, 230.115 370.185 C 239.677 380.808, 247.752 389.622, 248.060 389.770 C 248.368 389.919, 269.626 390.144, 295.299 390.270 L 341.979 390.500 342.887 388 C 343.387 386.625, 344.115 384.712, 344.505 383.750 C 345.174 382.098, 342.626 382, 299.198 382 L 253.183 382 232.099 362 C 220.503 351, 210.899 342.015, 210.758 342.033 C 210.616 342.052, 209.422 342.964, 208.105 344.061 M 353.410 351.179 C 347.960 356.228, 339.320 364.328, 334.212 369.179 L 324.924 378 329.762 378 L 334.599 378 347.464 364.998 C 354.540 357.847, 360.415 352.109, 360.520 352.248 C 360.626 352.387, 357.626 360.375, 353.854 370 C 350.082 379.625, 346.774 388.185, 346.503 389.023 C 346.113 390.227, 346.897 390.541, 350.255 390.523 C 355.223 390.496, 354.503 392.042, 361.372 366.660 L 365.658 350.821 383.021 370.160 C 392.570 380.797, 400.461 389.627, 400.556 389.782 C 400.890 390.324, 495 390.495, 495 389.953 C 495 389.652, 493.294 387.740, 491.208 385.703 L 487.416 382 446.825 382 L 406.235 382 402.368 378.240 C 385.273 361.618, 364.479 342, 363.957 342 C 363.607 342, 358.861 346.131, 353.410 351.179 M 60 385.985 L 60 389.971 123.096 390.235 C 157.799 390.381, 186.496 390.275, 186.866 390 C 187.713 389.372, 190 384.230, 190 382.953 C 190 382.359, 165.527 382, 125 382 L 60 382 60 385.985 M 438.500 410.217 C 431.172 412.803, 424.516 419.525, 420.235 428.662 C 417.799 433.861, 417.500 435.649, 417.500 445 C 417.500 454.231, 417.816 456.173, 420.111 461.067 C 425.503 472.565, 433.991 478.130, 447.153 478.797 C 454.824 479.186, 456.431 478.949, 461.315 476.713 C 466.861 474.174, 473.489 468.185, 474.589 464.718 C 475.742 461.086, 473.897 461.670, 469.724 466.259 C 463.859 472.707, 459.007 475, 451.225 475 C 435.032 475, 426.087 462.252, 427.210 440.775 C 428.195 421.945, 435.729 413.075, 450.782 413.022 C 461.566 412.984, 467.168 416.968, 470.520 427.059 C 472.774 433.848, 474.517 432.295, 473.528 424.379 C 472.615 417.074, 468.847 412.923, 461.016 410.597 C 454.989 408.808, 443.064 408.606, 438.500 410.217 M 176 410.799 C 176 411.239, 177.579 412.169, 179.510 412.867 C 181.683 413.653, 183.630 415.319, 184.625 417.241 C 186.032 419.963, 193.921 442.057, 203.195 469.250 C 204.836 474.063, 206.733 478, 207.411 478 C 208.121 478, 211.575 469.326, 215.571 457.504 C 219.382 446.231, 222.746 437.006, 223.046 437.004 C 223.346 437.002, 224.545 439.813, 225.710 443.250 C 232.558 463.458, 237.898 477.466, 238.877 477.792 C 239.494 477.998, 240.201 477.566, 240.449 476.833 C 243.481 467.842, 262.010 414.053, 262.524 412.750 C 263.063 411.382, 262.699 411.002, 260.857 411.008 C 258.701 411.015, 258.041 412.397, 253.107 427.258 C 244.147 454.242, 241.790 460.377, 240.957 458.876 C 240.537 458.119, 237.407 449.400, 234.002 439.500 C 230.597 429.600, 226.744 419.646, 225.440 417.380 C 222.465 412.213, 217.660 409.783, 211.235 410.197 L 206.500 410.502 210.172 412.167 C 214.480 414.121, 216.299 416.622, 218.820 424.053 L 220.667 429.500 215.655 444.750 C 212.898 453.137, 210.386 459.998, 210.071 459.996 C 209.757 459.994, 206.350 450.934, 202.500 439.861 C 194.691 417.402, 193.428 414.841, 188.759 411.995 C 185.521 410.020, 176 409.128, 176 410.799 M 62 413 C 60.485 414.515, 60 416.333, 60 420.500 C 60 423.525, 60.450 426, 61 426 C 61.550 426, 62 425.303, 62 424.450 C 62 421.590, 64.825 417.401, 67.675 416.037 C 71.498 414.207, 101 413.231, 101 414.935 C 101 415.582, 96.573 422.500, 91.162 430.306 C 85.750 438.113, 76.525 451.417, 70.662 459.870 C 64.798 468.324, 60 475.636, 60 476.120 C 60 476.605, 72.125 477, 87 477 C 113.333 477, 114 476.951, 114 475 C 114 473.065, 113.333 473, 93.429 473 L 72.859 473 82.267 459.250 C 87.441 451.688, 96.608 438.300, 102.636 429.500 C 108.665 420.700, 113.940 412.938, 114.358 412.250 C 114.958 411.263, 109.745 411, 89.559 411 C 65.333 411, 63.896 411.104, 62 413 M 119.500 412 C 119.840 412.550, 121.130 413, 122.368 413 C 123.605 413, 125.491 413.638, 126.559 414.418 C 128.395 415.760, 128.516 417.490, 128.804 446.439 L 129.108 477.042 148.804 476.771 L 168.500 476.500 171.313 470.695 C 174.955 463.178, 174.546 460.064, 170.684 465.902 C 166.733 471.871, 163.370 473, 149.532 473 L 138 473 138 459 L 138 445 151.500 445 C 164.333 445, 165 444.901, 165 443 C 165 441.099, 164.333 441, 151.471 441 L 137.942 441 138.221 427.750 L 138.500 414.500 144.500 414.177 C 147.800 413.999, 153.376 414.154, 156.890 414.521 C 164.109 415.276, 167.609 417.793, 168.645 422.974 C 169.611 427.805, 171 426.477, 171 420.723 C 171 417.564, 170.375 414.552, 169.443 413.223 C 167.907 411.029, 167.571 411, 143.384 411 C 127.304 411, 119.094 411.344, 119.500 412 M 273.985 418.750 C 259.156 453.652, 250.715 473.785, 250.260 475.338 C 249.833 476.793, 250.189 477.105, 251.972 476.838 C 253.764 476.569, 254.984 474.664, 257.952 467.500 L 261.680 458.500 275.958 458.500 L 290.235 458.500 292.195 463.500 C 293.273 466.250, 295.237 469.922, 296.560 471.661 C 299.273 475.226, 306.294 478.327, 310.528 477.830 C 313.706 477.458, 315.221 475, 312.272 475 C 307.401 475, 305.385 471.257, 290.046 433.750 C 282.958 416.417, 280.330 411, 279.010 411 C 277.799 411, 276.286 413.332, 273.985 418.750 M 320.210 442.582 C 320.547 479.299, 319.814 477, 331.191 477 C 335.064 477, 338 476.569, 338 476 C 338 475.450, 336.961 475, 335.691 475 C 334.421 475, 332.509 474.362, 331.441 473.582 C 329.604 472.240, 329.484 470.518, 329.209 441.582 L 328.917 411 324.418 411 L 319.919 411 320.210 442.582 M 340.500 412 C 340.840 412.550, 342.147 413, 343.404 413 C 344.661 413, 346.435 413.823, 347.345 414.829 C 348.808 416.445, 349 420.157, 349 446.829 L 349 477 371.500 477 C 393.333 477, 394 476.941, 394 475 C 394 473.074, 393.333 473, 376 473 L 358 473 358 444.223 C 358 409.446, 358.496 411, 347.384 411 C 342.637 411, 340.109 411.367, 340.500 412 M 488 440.435 C 488 469.205, 488.482 474.415, 491.313 476.214 C 493.099 477.351, 506 477.162, 506 476 C 506 475.450, 504.676 475, 503.057 475 C 497.215 475, 497 473.787, 497 440.777 L 497 411 492.500 411 L 488 411 488 440.435 M 509.039 413.189 C 507.518 414.822, 507 416.726, 507 420.689 C 507 426.453, 508.444 427.807, 509.494 423.027 C 510.296 419.374, 515.223 415.054, 518.827 414.843 C 520.297 414.757, 522.850 414.569, 524.500 414.425 C 531.411 413.823, 531 411.820, 531 446.067 L 531 477 535.486 477 L 539.972 477 540.236 445.750 L 540.500 414.500 550.500 414.402 C 567.569 414.236, 568.263 414.703, 582.235 435.771 L 590.943 448.902 591.221 462.701 L 591.500 476.500 596.250 476.805 L 601 477.110 601 462.643 L 601 448.177 611.788 430.839 C 617.721 421.302, 622.923 412.938, 623.347 412.250 C 623.882 411.383, 623.383 411, 621.720 411 C 619.710 411, 617.912 413.306, 610.590 425.268 C 605.788 433.116, 601.071 440.580, 600.109 441.855 L 598.360 444.174 589.591 430.613 C 584.768 423.154, 579.272 415.690, 577.376 414.026 L 573.930 411 542.504 411 C 511.463 411, 511.053 411.027, 509.039 413.189 M 269.580 439.528 C 266.358 446.968, 263.949 453.282, 264.227 453.560 C 264.505 453.838, 269.921 453.938, 276.263 453.783 L 287.794 453.500 282.225 439.750 C 279.162 432.188, 276.382 426, 276.047 426 C 275.712 426, 272.802 432.087, 269.580 439.528" stroke="none" fill="#f1f8f9" fill-rule="evenodd"/><path d="M -0 269.001 L -0 538.003 340.750 537.751 L 681.500 537.500 681.752 268.750 L 682.004 0 341.002 0 L 0 0 -0 269.001 M 0.493 269.500 C 0.493 417.450, 0.608 477.826, 0.750 403.669 C 0.891 329.513, 0.891 208.463, 0.750 134.669 C 0.608 60.876, 0.493 121.550, 0.493 269.500 M 349.087 45.838 C 346.779 50.149, 351.776 54.881, 355.905 52.295 C 357.941 51.020, 358.508 47.317, 356.954 45.445 C 355.230 43.367, 350.277 43.615, 349.087 45.838 M 362.223 45.557 C 359.524 47.447, 359.369 50.119, 361.829 52.345 C 365.345 55.527, 370 53.824, 370 49.357 C 370 47.450, 366.780 44, 365 44 C 364.695 44, 363.445 44.701, 362.223 45.557 M 293.571 59.571 C 290.512 62.631, 292.741 68, 297.071 68 C 298.966 68, 303 64.749, 303 63.223 C 303 62.795, 302.299 61.445, 301.443 60.223 C 299.628 57.630, 295.827 57.316, 293.571 59.571 M 364 62.452 C 360.189 65.332, 359.423 66.500, 359 70.075 C 358.514 74.178, 358.387 74.307, 354.500 74.644 C 342.316 75.700, 340.759 77.116, 338.080 89.563 C 337.023 94.478, 335.878 99.211, 335.537 100.079 C 334.995 101.460, 337.278 101.808, 353.709 102.846 C 375.845 104.245, 387.992 105.951, 404.899 110.038 C 411.719 111.687, 417.374 112.915, 417.467 112.768 C 417.560 112.620, 419.452 106.200, 421.671 98.500 C 424.792 87.671, 425.400 84.427, 424.353 84.177 C 423.609 83.999, 420.525 84.986, 417.500 86.371 C 413.055 88.406, 412 89.351, 412 91.295 C 412 93.353, 410.264 99.805, 409.432 100.836 C 409.165 101.168, 394 97.987, 394 97.599 C 394 97.489, 394.890 93.371, 395.978 88.449 C 397.066 83.527, 397.966 78.727, 397.978 77.781 C 398.004 75.755, 396.624 76.140, 390.016 80.001 C 386.237 82.209, 385.489 83.162, 385.258 86.061 C 385.107 87.952, 384.608 90.850, 384.149 92.500 C 383.351 95.366, 383.094 95.488, 378.407 95.233 C 375.708 95.086, 372.442 94.729, 371.150 94.439 L 368.800 93.912 369.445 80.206 C 369.800 72.668, 370.335 64.813, 370.633 62.750 C 371.324 57.978, 369.997 57.918, 364 62.452 M 390.750 60.080 C 388.740 61.251, 388.401 66.001, 390.200 67.800 C 393.352 70.952, 399.838 67.215, 398.505 63.014 C 398.133 61.843, 396.713 60.461, 395.349 59.943 C 392.430 58.833, 392.917 58.818, 390.750 60.080 M 295.072 80.538 C 292.405 87.666, 292.432 87.970, 296.035 91.371 C 300.705 95.779, 302.292 99.608, 301.757 105.176 C 301.195 111.024, 299.447 113.131, 292.773 116.002 C 289.007 117.622, 288.053 118.420, 289.094 119.079 C 291.428 120.557, 298.248 120.070, 302.541 118.120 C 313.243 113.259, 315.973 101.641, 309.515 88.442 C 306.746 82.782, 300.211 75, 298.227 75 C 297.631 75, 296.211 77.492, 295.072 80.538 M 265.033 82.675 C 249.220 89.207, 247.316 92.311, 250.994 105.567 C 252.204 109.930, 253.529 113.856, 253.939 114.292 C 254.348 114.727, 258.630 113.939, 263.453 112.542 C 268.277 111.144, 272.407 110, 272.631 110 C 272.855 110, 272.743 111.237, 272.383 112.750 C 271.150 117.929, 268.654 120.967, 264.251 122.648 C 261.876 123.555, 260.095 124.793, 260.293 125.399 C 260.892 127.224, 266.016 127.266, 270.685 125.483 C 276.772 123.158, 280.572 119.688, 282.468 114.722 C 284.018 110.662, 283.980 110.154, 281.483 101.500 C 276.421 83.963, 274.798 79.001, 274.153 79.089 C 273.794 79.138, 269.690 80.752, 265.033 82.675 M 351.693 84.700 C 350.699 84.958, 349.462 86.285, 348.943 87.649 C 347.151 92.364, 347.633 93, 353 93 L 358 93 358 88.500 C 358 83.764, 357.189 83.276, 351.693 84.700 M 233.279 91.208 C 232.709 91.918, 231.266 94.436, 230.074 96.803 L 227.905 101.107 230.544 106.501 C 233.012 111.545, 233.145 114, 230.951 114 C 230.440 114, 223.379 117.176, 215.260 121.059 L 200.500 128.117 198 124.921 C 195.373 121.563, 189.125 112.751, 183.710 104.768 C 181.944 102.165, 179.993 100.028, 179.373 100.018 C 178.753 100.008, 177.544 102.786, 176.687 106.191 L 175.127 112.381 177.814 115.444 C 179.291 117.129, 184.213 123.743, 188.750 130.143 C 196.063 140.456, 197 142.276, 197 146.166 C 197 151.229, 195.151 154.354, 190.832 156.587 C 187.008 158.564, 184.035 157.848, 179.485 153.852 C 174.735 149.682, 173.501 151.238, 178.166 155.514 C 185.544 162.275, 195.362 162.297, 202.495 155.569 C 205.715 152.532, 208.473 145.657, 207.593 142.857 C 205.536 136.305, 205.232 136.685, 217.267 130.754 C 223.445 127.709, 232.435 123.706, 237.243 121.859 C 242.052 120.011, 245.990 118.094, 245.993 117.597 C 246.003 116.342, 235.976 91.681, 235.060 90.708 C 234.651 90.272, 233.849 90.497, 233.279 91.208 M 440.945 92.818 C 438.989 94.293, 436.341 96.196, 435.059 97.046 C 432.785 98.555, 433.027 98.721, 445.115 103.978 C 458.549 109.820, 461 111.378, 461 114.073 C 461 118.848, 460.362 118.817, 446.712 113.378 C 428.111 105.967, 428.439 106.014, 426.553 110.527 C 425.699 112.572, 425.007 114.527, 425.015 114.872 C 425.023 115.217, 430.986 117.729, 438.265 120.454 C 445.544 123.179, 456.900 128.129, 463.500 131.454 L 475.500 137.500 475.662 143.130 C 475.928 152.352, 480.043 157.857, 488.341 160.092 C 498.031 162.701, 509 154.494, 509 144.634 C 509 142.628, 507.587 138.501, 505.646 134.835 L 502.291 128.500 494.967 128.203 C 490.939 128.039, 486.426 128.409, 484.938 129.026 C 482.611 129.990, 481.378 129.715, 476.116 127.059 C 472.752 125.361, 470.005 123.640, 470.011 123.236 C 470.017 122.831, 470.703 120.252, 471.537 117.505 C 472.370 114.759, 472.783 111.290, 472.456 109.797 C 471.571 105.771, 466.354 101.771, 457.149 98.060 C 452.642 96.243, 448.112 93.686, 447.083 92.378 C 446.054 91.070, 445.052 90.031, 444.856 90.068 C 444.660 90.106, 442.900 91.344, 440.945 92.818 M 263.223 94.557 C 261.631 95.672, 261 97.128, 261 99.688 C 261 103.244, 261.018 103.259, 264.664 102.667 C 269.577 101.870, 270.139 101.087, 268.933 96.720 C 267.809 92.649, 266.600 92.191, 263.223 94.557 M 397.571 118.571 C 395.427 120.716, 395.599 123.327, 398.030 125.527 C 402.399 129.481, 408.731 122.995, 404.950 118.440 C 403.372 116.538, 399.536 116.606, 397.571 118.571 M 408.408 122.500 C 406.891 124.816, 406.891 125.184, 408.408 127.500 C 411.347 131.986, 418 129.880, 418 124.464 C 418 119.828, 411.086 118.413, 408.408 122.500 M 247.200 126.200 C 244.518 128.882, 246.908 135, 250.637 135 C 255.231 135, 257.919 129.319, 254.800 126.200 C 253.253 124.653, 248.747 124.653, 247.200 126.200 M 236.571 130.571 C 234.706 132.436, 234.517 136.117, 236.200 137.800 C 236.860 138.460, 238.570 139, 240 139 C 244.880 139, 246.802 133.941, 243.171 130.655 C 240.875 128.577, 238.595 128.548, 236.571 130.571 M 487.571 140.571 C 485.697 142.445, 485.626 143.421, 487.150 146.316 C 489.368 150.531, 492.813 151.187, 496 148 C 499.816 144.184, 497.512 139, 492 139 C 490.429 139, 488.436 139.707, 487.571 140.571 M 155.995 162.692 C 152.423 165.824, 148.669 169.087, 147.652 169.943 C 142.774 174.054, 124.101 195.352, 116.481 205.497 C 82.654 250.534, 63.049 304.962, 60.345 361.346 L 59.690 375 67.691 375 L 75.692 375 76.358 361.250 C 79.505 296.256, 106.912 234.251, 152.981 187.898 C 160.417 180.418, 167.991 173.110, 169.814 171.659 L 173.128 169.022 168.453 163.261 C 165.882 160.092, 163.489 157.387, 163.134 157.248 C 162.779 157.110, 159.567 159.559, 155.995 162.692 M 516.591 162.987 L 511.935 168.914 527.813 184.707 C 551.727 208.493, 565.574 227.080, 578.975 253.385 C 596.903 288.574, 608 331.533, 608 365.744 L 608 375 616 375 L 624 375 624 366.674 C 624 347.813, 619.649 319.270, 613.379 297 C 599.757 248.615, 571.057 201.873, 534.234 168.105 C 520.625 155.625, 522.050 156.039, 516.591 162.987 M 317 258.113 C 282.317 295.850, 283.391 294.561, 285.021 296.525 C 285.694 297.336, 286.776 298, 287.424 298 C 288.073 298, 300.435 284.692, 314.896 268.427 C 329.357 252.162, 341.350 239.016, 341.547 239.214 C 341.925 239.592, 313.694 319.068, 312.489 321.017 C 311.834 322.078, 315.559 327, 317.016 327 C 317.383 327, 324.307 307.071, 332.401 282.713 C 340.496 258.355, 347.537 237.767, 348.047 236.963 C 348.768 235.826, 366.085 252.723, 425.737 312.769 L 502.500 390.037 532.751 390.269 C 549.389 390.396, 563.001 390.254, 563.001 389.953 C 563 389.652, 561.294 387.740, 559.208 385.703 L 555.416 382 531.458 381.962 L 507.500 381.924 472 347.292 C 452.475 328.245, 419.850 296.375, 399.500 276.471 C 362.689 240.466, 348.354 226.720, 347.138 226.258 C 346.787 226.124, 333.225 240.459, 317 258.113 M 237.483 280.273 C 230.874 286.448, 206.799 308.556, 183.983 329.403 C 132.633 376.322, 133.300 375.705, 132.522 376.964 C 132.111 377.630, 133.781 377.995, 137.191 377.986 C 143.237 377.970, 142.884 378.232, 162.500 359.162 C 168.550 353.281, 185.200 337.235, 199.500 323.504 C 213.800 309.773, 229.909 294.255, 235.297 289.019 C 240.685 283.784, 245.472 279.367, 245.935 279.204 C 246.766 278.911, 243.890 288.492, 231.412 327.586 C 227.885 338.634, 225 348.352, 225 349.181 C 225 350.833, 228.062 354, 229.660 354 C 230.211 354, 235.502 336.563, 241.419 315.250 C 247.335 293.938, 252.375 276.298, 252.620 276.051 C 252.864 275.804, 254.334 276.929, 255.887 278.551 C 257.440 280.173, 270.327 293.650, 284.526 308.500 C 298.726 323.350, 316.204 341.476, 323.368 348.781 L 336.392 362.062 338.946 359.508 L 341.500 356.954 324.500 340.174 C 290.730 306.843, 251.849 269.495, 250.687 269.273 C 250.034 269.148, 244.092 274.098, 237.483 280.273 M 454.313 278.097 C 451.116 280.952, 444.939 286.487, 440.586 290.395 C 436.234 294.303, 432.047 297.962, 431.283 298.526 C 430.146 299.364, 430.375 300.002, 432.541 302.026 L 435.188 304.500 446.147 293 C 458.428 280.114, 458.282 279.856, 450.372 300.477 L 445.010 314.454 447.461 316.727 C 448.810 317.977, 450.270 318.997, 450.706 318.993 C 451.143 318.989, 453.705 311.002, 456.400 301.243 C 459.095 291.484, 461.516 283.110, 461.781 282.634 C 462.045 282.158, 486.631 306.134, 516.415 335.915 L 570.569 390.063 597.785 390.281 L 625 390.500 625 386.250 L 625 382 600.250 381.974 L 575.500 381.948 567.500 374.292 C 563.100 370.081, 555.890 363.230, 551.479 359.068 C 547.067 354.906, 526.367 335.260, 505.479 315.411 C 484.590 295.562, 465.841 277.878, 463.813 276.113 L 460.127 272.904 454.313 278.097 M 208.105 344.061 C 205.461 346.263, 185.663 364.516, 177.010 372.730 L 171.500 377.960 176.176 377.980 L 180.852 378 193.143 365.050 C 199.903 357.928, 205.581 352.248, 205.761 352.428 C 205.941 352.608, 202.908 360.718, 199.020 370.450 C 195.133 380.182, 191.850 388.621, 191.726 389.203 C 191.602 389.786, 193.343 390.428, 195.596 390.629 L 199.692 390.996 205.530 371.748 C 208.741 361.162, 211.675 352.133, 212.050 351.685 C 212.424 351.236, 220.554 359.561, 230.115 370.185 C 239.677 380.808, 247.752 389.622, 248.060 389.770 C 248.368 389.919, 269.626 390.144, 295.299 390.270 L 341.979 390.500 342.887 388 C 343.387 386.625, 344.115 384.712, 344.505 383.750 C 345.174 382.098, 342.626 382, 299.198 382 L 253.183 382 232.099 362 C 220.503 351, 210.899 342.015, 210.758 342.033 C 210.616 342.052, 209.422 342.964, 208.105 344.061 M 353.410 351.179 C 347.960 356.228, 339.320 364.328, 334.212 369.179 L 324.924 378 329.762 378 L 334.599 378 347.464 364.998 C 354.540 357.847, 360.415 352.109, 360.520 352.248 C 360.626 352.387, 357.626 360.375, 353.854 370 C 350.082 379.625, 346.774 388.185, 346.503 389.023 C 346.113 390.227, 346.897 390.541, 350.255 390.523 C 355.223 390.496, 354.503 392.042, 361.372 366.660 L 365.658 350.821 383.021 370.160 C 392.570 380.797, 400.461 389.627, 400.556 389.782 C 400.890 390.324, 495 390.495, 495 389.953 C 495 389.652, 493.294 387.740, 491.208 385.703 L 487.416 382 446.825 382 L 406.235 382 402.368 378.240 C 385.273 361.618, 364.479 342, 363.957 342 C 363.607 342, 358.861 346.131, 353.410 351.179 M 60 385.985 L 60 389.971 123.096 390.235 C 157.799 390.381, 186.496 390.275, 186.866 390 C 187.713 389.372, 190 384.230, 190 382.953 C 190 382.359, 165.527 382, 125 382 L 60 382 60 385.985 M 438.500 410.217 C 431.172 412.803, 424.516 419.525, 420.235 428.662 C 417.799 433.861, 417.500 435.649, 417.500 445 C 417.500 454.231, 417.816 456.173, 420.111 461.067 C 425.503 472.565, 433.991 478.130, 447.153 478.797 C 454.824 479.186, 456.431 478.949, 461.315 476.713 C 466.861 474.174, 473.489 468.185, 474.589 464.718 C 475.742 461.086, 473.897 461.670, 469.724 466.259 C 463.859 472.707, 459.007 475, 451.225 475 C 435.032 475, 426.087 462.252, 427.210 440.775 C 428.195 421.945, 435.729 413.075, 450.782 413.022 C 461.566 412.984, 467.168 416.968, 470.520 427.059 C 472.774 433.848, 474.517 432.295, 473.528 424.379 C 472.615 417.074, 468.847 412.923, 461.016 410.597 C 454.989 408.808, 443.064 408.606, 438.500 410.217 M 176 410.799 C 176 411.239, 177.579 412.169, 179.510 412.867 C 181.683 413.653, 183.630 415.319, 184.625 417.241 C 186.032 419.963, 193.921 442.057, 203.195 469.250 C 204.836 474.063, 206.733 478, 207.411 478 C 208.121 478, 211.575 469.326, 215.571 457.504 C 219.382 446.231, 222.746 437.006, 223.046 437.004 C 223.346 437.002, 224.545 439.813, 225.710 443.250 C 232.558 463.458, 237.898 477.466, 238.877 477.792 C 239.494 477.998, 240.201 477.566, 240.449 476.833 C 243.481 467.842, 262.010 414.053, 262.524 412.750 C 263.063 411.382, 262.699 411.002, 260.857 411.008 C 258.701 411.015, 258.041 412.397, 253.107 427.258 C 244.147 454.242, 241.790 460.377, 240.957 458.876 C 240.537 458.119, 237.407 449.400, 234.002 439.500 C 230.597 429.600, 226.744 419.646, 225.440 417.380 C 222.465 412.213, 217.660 409.783, 211.235 410.197 L 206.500 410.502 210.172 412.167 C 214.480 414.121, 216.299 416.622, 218.820 424.053 L 220.667 429.500 215.655 444.750 C 212.898 453.137, 210.386 459.998, 210.071 459.996 C 209.757 459.994, 206.350 450.934, 202.500 439.861 C 194.691 417.402, 193.428 414.841, 188.759 411.995 C 185.521 410.020, 176 409.128, 176 410.799 M 62 413 C 60.485 414.515, 60 416.333, 60 420.500 C 60 423.525, 60.450 426, 61 426 C 61.550 426, 62 425.303, 62 424.450 C 62 421.590, 64.825 417.401, 67.675 416.037 C 71.498 414.207, 101 413.231, 101 414.935 C 101 415.582, 96.573 422.500, 91.162 430.306 C 85.750 438.113, 76.525 451.417, 70.662 459.870 C 64.798 468.324, 60 475.636, 60 476.120 C 60 476.605, 72.125 477, 87 477 C 113.333 477, 114 476.951, 114 475 C 114 473.065, 113.333 473, 93.429 473 L 72.859 473 82.267 459.250 C 87.441 451.688, 96.608 438.300, 102.636 429.500 C 108.665 420.700, 113.940 412.938, 114.358 412.250 C 114.958 411.263, 109.745 411, 89.559 411 C 65.333 411, 63.896 411.104, 62 413 M 119.500 412 C 119.840 412.550, 121.130 413, 122.368 413 C 123.605 413, 125.491 413.638, 126.559 414.418 C 128.395 415.760, 128.516 417.490, 128.804 446.439 L 129.108 477.042 148.804 476.771 L 168.500 476.500 171.313 470.695 C 174.955 463.178, 174.546 460.064, 170.684 465.902 C 166.733 471.871, 163.370 473, 149.532 473 L 138 473 138 459 L 138 445 151.500 445 C 164.333 445, 165 444.901, 165 443 C 165 441.099, 164.333 441, 151.471 441 L 137.942 441 138.221 427.750 L 138.500 414.500 144.500 414.177 C 147.800 413.999, 153.376 414.154, 156.890 414.521 C 164.109 415.276, 167.609 417.793, 168.645 422.974 C 169.611 427.805, 171 426.477, 171 420.723 C 171 417.564, 170.375 414.552, 169.443 413.223 C 167.907 411.029, 167.571 411, 143.384 411 C 127.304 411, 119.094 411.344, 119.500 412 M 273.985 418.750 C 259.156 453.652, 250.715 473.785, 250.260 475.338 C 249.833 476.793, 250.189 477.105, 251.972 476.838 C 253.764 476.569, 254.984 474.664, 257.952 467.500 L 261.680 458.500 275.958 458.500 L 290.235 458.500 292.195 463.500 C 293.273 466.250, 295.237 469.922, 296.560 471.661 C 299.273 475.226, 306.294 478.327, 310.528 477.830 C 313.706 477.458, 315.221 475, 312.272 475 C 307.401 475, 305.385 471.257, 290.046 433.750 C 282.958 416.417, 280.330 411, 279.010 411 C 277.799 411, 276.286 413.332, 273.985 418.750 M 320.210 442.582 C 320.547 479.299, 319.814 477, 331.191 477 C 335.064 477, 338 476.569, 338 476 C 338 475.450, 336.961 475, 335.691 475 C 334.421 475, 332.509 474.362, 331.441 473.582 C 329.604 472.240, 329.484 470.518, 329.209 441.582 L 328.917 411 324.418 411 L 319.919 411 320.210 442.582 M 340.500 412 C 340.840 412.550, 342.147 413, 343.404 413 C 344.661 413, 346.435 413.823, 347.345 414.829 C 348.808 416.445, 349 420.157, 349 446.829 L 349 477 371.500 477 C 393.333 477, 394 476.941, 394 475 C 394 473.074, 393.333 473, 376 473 L 358 473 358 444.223 C 358 409.446, 358.496 411, 347.384 411 C 342.637 411, 340.109 411.367, 340.500 412 M 488 440.435 C 488 469.205, 488.482 474.415, 491.313 476.214 C 493.099 477.351, 506 477.162, 506 476 C 506 475.450, 504.676 475, 503.057 475 C 497.215 475, 497 473.787, 497 440.777 L 497 411 492.500 411 L 488 411 488 440.435 M 509.039 413.189 C 507.518 414.822, 507 416.726, 507 420.689 C 507 426.453, 508.444 427.807, 509.494 423.027 C 510.296 419.374, 515.223 415.054, 518.827 414.843 C 520.297 414.757, 522.850 414.569, 524.500 414.425 C 531.411 413.823, 531 411.820, 531 446.067 L 531 477 535.486 477 L 539.972 477 540.236 445.750 L 540.500 414.500 550.500 414.402 C 567.569 414.236, 568.263 414.703, 582.235 435.771 L 590.943 448.902 591.221 462.701 L 591.500 476.500 596.250 476.805 L 601 477.110 601 462.643 L 601 448.177 611.788 430.839 C 617.721 421.302, 622.923 412.938, 623.347 412.250 C 623.882 411.383, 623.383 411, 621.720 411 C 619.710 411, 617.912 413.306, 610.590 425.268 C 605.788 433.116, 601.071 440.580, 600.109 441.855 L 598.360 444.174 589.591 430.613 C 584.768 423.154, 579.272 415.690, 577.376 414.026 L 573.930 411 542.504 411 C 511.463 411, 511.053 411.027, 509.039 413.189 M 269.580 439.528 C 266.358 446.968, 263.949 453.282, 264.227 453.560 C 264.505 453.838, 269.921 453.938, 276.263 453.783 L 287.794 453.500 282.225 439.750 C 279.162 432.188, 276.382 426, 276.047 426 C 275.712 426, 272.802 432.087, 269.580 439.528" stroke="none" fill="#049cb3" fill-rule="evenodd"/></svg>