<svg xmlns="http://www.w3.org/2000/svg" width="1495" height="1580" viewBox="0 0 1495 1580" version="1.1"><path d="" stroke="none" fill="#085484" fill-rule="evenodd"/><path d="M 744 1.055 C 656.601 4.188, 558.279 22.269, 513.322 43.476 C 498.430 50.500, 488.777 58.186, 487.491 64.043 C 485.564 72.814, 497.053 83.768, 513.043 88.407 C 528.109 92.777, 534.696 93.162, 608.500 93.982 C 681.414 94.793, 696.927 95.534, 735.032 100.028 C 828.789 111.086, 893.632 133.422, 909.762 160.217 C 921.846 180.292, 921.041 207.958, 907.401 241.393 C 888.629 287.406, 846.981 343.011, 784.490 405.493 C 741.369 448.609, 703.852 481.612, 639 533.480 C 597.589 566.600, 582.492 579.576, 564.519 597.500 C 543.428 618.533, 537.064 627.814, 537.022 637.602 C 536.981 647.115, 543.488 653.010, 554 652.983 C 575.966 652.926, 619.773 635.773, 671.500 606.975 C 819.137 524.780, 950.168 412.068, 1019.223 307.866 C 1043.296 271.540, 1058.197 239.757, 1066.489 207.043 C 1073.979 177.495, 1074.111 147.134, 1066.857 122.500 C 1047.840 57.915, 967.249 15.213, 842.259 3.494 C 808.764 0.354, 782.055 -0.309, 744 1.055 M 1170.500 516.032 C 1093.054 520.968, 1033.541 537.591, 990.500 566.309 C 960.452 586.358, 937.281 613.161, 926.253 640.626 C 919.271 658.014, 916.925 673.904, 918.150 695.510 C 919.043 711.262, 921.927 724.912, 928.542 744.690 C 940.166 779.447, 958.560 813.890, 991.563 862.700 C 1014.312 896.345, 1033.813 922.393, 1112.063 1023.655 C 1149.198 1071.711, 1155.372 1079.892, 1168.518 1098.459 C 1212.826 1161.043, 1230.058 1203.478, 1223.577 1234.047 C 1219.976 1251.036, 1211.345 1261.403, 1193.670 1269.974 C 1157.760 1287.386, 1094.506 1296.367, 975 1301.023 C 960.975 1301.569, 942.525 1302.461, 934 1303.005 C 925.475 1303.549, 900.950 1304.674, 879.500 1305.505 C 808.461 1308.258, 772.043 1310.556, 751.679 1313.570 C 732.744 1316.372, 728.160 1318.074, 721.799 1324.665 C 710.526 1336.345, 713.161 1351.863, 728.154 1362.088 C 740.056 1370.205, 753.856 1374.258, 794 1381.427 C 886.095 1397.874, 972.280 1406.431, 1058.500 1407.691 C 1191.190 1409.629, 1279.713 1391.121, 1336 1349.674 C 1368.366 1325.842, 1389.065 1294.382, 1397.181 1256.688 C 1400.382 1241.821, 1400.361 1215.197, 1397.135 1199 C 1389.393 1160.130, 1368.346 1117.244, 1329.653 1061.500 C 1308.495 1031.017, 1245.358 947.842, 1202.506 894 C 1163.320 844.764, 1160.064 840.578, 1146.797 822.386 C 1105.129 765.251, 1088.387 723.882, 1091.897 686.720 C 1094.956 654.317, 1125.928 636.153, 1193.500 627.132 C 1230.535 622.188, 1266.698 620.136, 1353.500 618.052 C 1426.192 616.307, 1440.487 615.488, 1459.026 612.005 C 1474.607 609.077, 1487.648 603.001, 1491.794 596.736 C 1500.020 584.305, 1488 566.699, 1463.622 555.472 C 1432.885 541.316, 1343.684 523.955, 1268.500 517.496 C 1246.887 515.640, 1189.993 514.789, 1170.500 516.032 M 451.500 722.035 C 402.958 725.256, 346.546 733.379, 298.500 744.066 C 225.574 760.286, 181.931 778.522, 175.454 795.480 C 173.912 799.519, 173.902 800.264, 175.335 804.469 C 178.357 813.338, 185.495 819.347, 197.864 823.435 C 218.129 830.133, 234.029 831.575, 281 830.977 C 343.118 830.187, 410.224 830.580, 432.500 831.866 C 463.896 833.677, 501.898 837.672, 525.500 841.643 C 586.832 851.960, 626.854 867.899, 650.596 891.464 C 667.544 908.285, 675.006 928.444, 674.996 957.381 C 674.978 1012.376, 640.864 1079.923, 574.939 1155.500 C 559.219 1173.521, 512.671 1219.912, 494 1236.164 C 398.871 1318.971, 301.316 1376.827, 246.475 1382.959 C 236.458 1384.080, 227.658 1383.133, 223.644 1380.503 C 209.775 1371.415, 221.129 1325.378, 257.352 1243.825 C 279.985 1192.869, 303.663 1145.641, 357.032 1045 C 383.605 994.889, 396.928 960.360, 396.983 941.462 C 397.003 934.429, 394.143 927.815, 389.675 924.559 C 385.811 921.742, 373.701 921.808, 366.400 924.684 C 350.898 930.792, 330.805 950.266, 310.357 979 C 294.061 1001.900, 235.384 1094.110, 199.317 1153.500 C 140.156 1250.916, 106.450 1313.251, 51.973 1426 C 7.920 1517.172, -5.466 1556.595, 2.439 1571.882 C 7.617 1581.895, 35.945 1581.884, 80 1571.852 C 196.653 1545.287, 385.179 1454.967, 515.292 1363.310 C 643.579 1272.939, 738.832 1170.465, 796.298 1061 C 818.599 1018.521, 838.757 963.209, 843.494 931.500 C 848.421 898.520, 841.187 863.120, 823.851 835.382 C 817.272 824.856, 805.039 810.050, 797.861 803.926 C 780.434 789.058, 758.688 775.657, 735 765.186 C 685.349 743.239, 627.288 729.575, 557.500 723.411 C 536.575 721.563, 471.370 720.716, 451.500 722.035" stroke="none" fill="#045484" fill-rule="evenodd"/></svg>