<svg xmlns="http://www.w3.org/2000/svg" width="3840" height="2160" viewBox="0 0 3840 2160" version="1.1"><path d="M 1919.669 498.621 C 1919.576 498.690, 1914.056 499.029, 1907.403 499.373 C 1879.188 500.834, 1857.700 503.787, 1819 511.521 C 1817.625 511.796, 1815.150 512.259, 1813.500 512.551 C 1796.669 515.524, 1741.303 532.321, 1726.689 538.888 C 1724.385 539.923, 1716.650 543.248, 1709.500 546.277 C 1660.296 567.118, 1616.428 593.200, 1574.261 626.683 C 1516.738 672.361, 1469.614 725.747, 1432.753 787 C 1414.253 817.742, 1399.353 848.402, 1384.886 885.500 C 1377.379 904.751, 1362.959 954.168, 1360.667 968.500 C 1360.403 970.150, 1359.488 974.875, 1358.633 979 C 1353.683 1002.875, 1349.544 1034.731, 1348.432 1057.500 C 1348.137 1063.550, 1347.723 1070.862, 1347.511 1073.750 L 1347.127 1079 1637.564 1079 L 1928 1079 1928 1369.525 L 1928 1660.050 1934.250 1659.575 C 1937.688 1659.313, 1945.225 1658.821, 1951 1658.480 C 1961.361 1657.869, 1963.687 1657.681, 1975.500 1656.505 C 2002.526 1653.815, 2035.627 1647.586, 2071 1638.536 C 2087.700 1634.263, 2124.923 1621.074, 2146.500 1611.784 C 2241.527 1570.872, 2321.333 1509.031, 2384.965 1427 C 2438.874 1357.503, 2478.625 1271.470, 2495.856 1187 C 2501.772 1157.998, 2506.267 1125.449, 2507.526 1102.500 C 2507.858 1096.450, 2508.289 1088.688, 2508.485 1085.250 L 2508.841 1079 2218.420 1079 L 1928 1079 1928 788.649 L 1928 498.299 1923.919 498.397 C 1921.674 498.451, 1919.762 498.552, 1919.669 498.621" stroke="none" fill="#0092cc" fill-rule="evenodd"/><path d="M 1849.500 67.567 C 1828.773 69.286, 1803.638 72.077, 1803 72.730 C 1802.543 73.197, 1812.448 72.487, 1821 71.438 C 1831.153 70.194, 1860.419 67.958, 1874 67.388 C 1882.525 67.031, 1889.688 66.573, 1889.917 66.369 C 1890.847 65.544, 1864.459 66.326, 1849.500 67.567 M 1966.083 66.370 C 1966.313 66.574, 1973.475 67.037, 1982 67.400 C 1990.525 67.763, 2002.225 68.477, 2008 68.985 C 2013.775 69.494, 2022.100 70.203, 2026.500 70.562 C 2030.900 70.921, 2035.222 71.353, 2036.105 71.522 C 2039.696 72.210, 2053.465 73.191, 2053 72.726 C 2052.295 72.021, 2026.940 69.281, 2004.671 67.503 C 1987.462 66.129, 1965.072 65.472, 1966.083 66.370 M 1730.500 83.691 C 1729.400 83.943, 1720.625 85.914, 1711 88.071 C 1691.863 92.359, 1678.744 95.768, 1680.833 95.910 C 1681.567 95.959, 1685.617 95.119, 1689.833 94.043 C 1694.050 92.966, 1706.050 90.296, 1716.500 88.109 C 1726.950 85.923, 1736.400 83.931, 1737.500 83.683 C 1738.600 83.435, 1737.925 83.232, 1736 83.232 C 1734.075 83.232, 1731.600 83.438, 1730.500 83.691 M 2126 84.977 C 2157.735 92.336, 2176.512 96.186, 2167.500 93.487 C 2158.733 90.861, 2128.484 84.127, 2122.892 83.556 C 2118.438 83.102, 2118.979 83.349, 2126 84.977 M 1893 87.686 C 1881.745 88.217, 1849.361 90.136, 1845.500 90.502 C 1843.300 90.710, 1838.125 91.160, 1834 91.503 C 1829.875 91.846, 1815.925 93.456, 1803 95.082 C 1696.141 108.521, 1597.794 137.461, 1498.500 184.685 C 1464.323 200.939, 1427.611 221.425, 1394.064 242.960 C 1307.301 298.656, 1238.199 359.626, 1165.076 445 C 1136.125 478.801, 1097.345 533.977, 1072.042 577.366 C 1017.468 670.951, 980.567 765.966, 958.004 871 C 934.366 981.037, 929.861 1094.728, 944.550 1210.500 C 948.617 1242.549, 957.298 1287.379, 966.625 1324.500 C 976.494 1363.776, 993.825 1416.376, 1009.294 1454 C 1050.417 1554.024, 1107.381 1646.648, 1177.606 1727.680 C 1196.156 1749.084, 1199.052 1752.189, 1223.912 1777.340 C 1288.918 1843.105, 1367.504 1902.975, 1443.750 1944.825 C 1449.938 1948.221, 1459.838 1953.654, 1465.750 1956.897 C 1486.614 1968.342, 1556.147 2000.086, 1569 2004.034 C 1570.375 2004.457, 1577.374 2007.045, 1584.552 2009.786 C 1634.351 2028.798, 1704.768 2047.581, 1761.500 2056.984 C 1780.202 2060.084, 1820.967 2065.425, 1834 2066.483 C 1838.125 2066.818, 1843.525 2067.284, 1846 2067.520 C 1867.309 2069.549, 1892.671 2070.443, 1928.500 2070.427 C 1978.811 2070.404, 2008.230 2068.638, 2053.952 2062.898 C 2142.503 2051.781, 2232.814 2027.560, 2312.315 1993.608 C 2322.114 1989.424, 2330.332 1986, 2330.577 1986 C 2332.052 1986, 2382.536 1961.069, 2397.954 1952.726 C 2431.539 1934.553, 2450.329 1923.125, 2484.500 1900.089 C 2557.476 1850.893, 2624.940 1790.375, 2684.142 1721 C 2772.174 1617.841, 2840.074 1493.121, 2877.958 1365 C 2880.804 1355.375, 2883.997 1344.575, 2885.054 1341 C 2888.164 1330.482, 2896.555 1294.892, 2900.380 1276 C 2910.239 1227.307, 2916.339 1177.824, 2918.933 1125.500 C 2919.810 1107.801, 2919.499 1039.132, 2918.461 1021.500 C 2908.502 852.276, 2855.360 687.651, 2765.302 547.034 C 2737.914 504.271, 2712.954 470.611, 2681.434 433.937 C 2660.962 410.118, 2656.173 404.937, 2632.631 381.142 C 2551.129 298.764, 2459.527 233.566, 2354.844 183.425 C 2341.724 177.141, 2330.797 172, 2330.561 172 C 2330.324 172, 2322.114 168.568, 2312.315 164.374 C 2238.313 132.699, 2158.561 110.619, 2069 97.009 C 2045.832 93.489, 2004.275 89.676, 1971.500 88.063 C 1956.688 87.335, 1905.657 87.089, 1893 87.686 M 1915.733 100.600 C 1915.558 100.775, 1908.234 101.013, 1899.458 101.130 C 1837.704 101.950, 1764.269 111.755, 1694 128.564 C 1648.246 139.509, 1586.644 160.151, 1542 179.497 C 1440.687 223.399, 1348.328 283.130, 1267.500 357.022 C 1251.178 371.943, 1213.563 409.818, 1199.898 425.092 C 1145.915 485.425, 1099.921 551.466, 1061.854 623.305 C 1014.022 713.569, 979.976 814.293, 962.947 915.916 C 959.278 937.813, 953.937 980.888, 952.583 999.500 C 948.805 1051.417, 948.808 1110.309, 952.589 1158.500 C 954.148 1178.377, 959.464 1221.255, 962.952 1242.088 C 979.908 1343.374, 1014.159 1444.768, 1061.730 1534.500 C 1107.558 1620.944, 1161.853 1695.181, 1229.488 1763.871 C 1303.241 1838.775, 1378.980 1895.419, 1470.768 1944.324 C 1579.433 2002.221, 1707.335 2040.941, 1828 2052.471 C 1831.575 2052.812, 1836.525 2053.287, 1839 2053.525 C 1890.954 2058.526, 1972.580 2058.527, 2017 2053.527 C 2018.925 2053.310, 2023.650 2052.853, 2027.500 2052.511 C 2041.054 2051.306, 2073.726 2046.860, 2094 2043.462 C 2236.155 2019.634, 2375.368 1961.739, 2494.694 1876.822 C 2558.968 1831.083, 2620.092 1775.139, 2672.592 1714 C 2723.031 1655.261, 2769.360 1585.180, 2804.311 1514.749 C 2884.012 1354.142, 2916.984 1182.504, 2903.388 999 C 2902.121 981.897, 2896.727 938.057, 2893.422 918 C 2880.402 838.980, 2855.861 756.796, 2823.671 684.414 C 2780.673 587.729, 2725.393 502.397, 2654.645 423.500 C 2631.759 397.978, 2591.704 359.040, 2563 334.411 C 2469.093 253.836, 2353.998 188.840, 2237.040 150.337 C 2154.835 123.275, 2081.493 109.024, 1991 102.529 C 1973.092 101.243, 1916.539 99.794, 1915.733 100.600 M 1651.500 102.498 C 1650.950 102.685, 1644.321 104.758, 1636.769 107.105 C 1629.217 109.451, 1623.209 111.543, 1623.419 111.753 C 1623.862 112.196, 1655.004 103.329, 1655.800 102.533 C 1656.372 101.961, 1653.155 101.935, 1651.500 102.498 M 2200.105 102.389 C 2200.937 103.289, 2238.277 114.056, 2238.790 113.544 C 2239.016 113.317, 2237.469 112.656, 2235.351 112.075 C 2233.233 111.493, 2225.966 109.230, 2219.202 107.045 C 2206.975 103.096, 2198.949 101.139, 2200.105 102.389 M 1597 120.012 C 1581.228 125.243, 1562.143 132.478, 1561.133 133.610 C 1560.785 134, 1561.400 133.965, 1562.500 133.532 C 1563.600 133.100, 1575.300 128.939, 1588.500 124.286 C 1601.700 119.633, 1612.688 115.640, 1612.917 115.413 C 1613.776 114.562, 1611.120 115.329, 1597 120.012 M 2246.083 116.416 C 2246.313 116.644, 2256.625 120.415, 2269 124.794 C 2281.375 129.173, 2292.400 133.108, 2293.500 133.537 C 2294.600 133.967, 2295.215 134, 2294.867 133.610 C 2293.835 132.453, 2274.512 125.148, 2260 120.426 C 2246.194 115.935, 2245.361 115.695, 2246.083 116.416 M 1542.500 140.463 C 1539.200 141.714, 1528.850 146.219, 1519.500 150.472 C 1510.150 154.726, 1500.475 159.036, 1498 160.051 C 1490.998 162.920, 1453.783 181.923, 1441 189.157 C 1434.675 192.736, 1425.626 197.754, 1420.891 200.308 C 1411.962 205.124, 1406.628 208.909, 1408.691 208.967 C 1409.346 208.985, 1410.142 208.578, 1410.461 208.063 C 1410.779 207.548, 1412.268 206.483, 1413.770 205.697 C 1415.271 204.911, 1420.325 202.036, 1425 199.308 C 1448.397 185.658, 1491.909 163.679, 1518.574 152.042 C 1525.133 149.179, 1531.850 146.237, 1533.500 145.503 C 1535.150 144.769, 1539.537 142.958, 1543.250 141.478 C 1546.963 139.998, 1550 138.610, 1550 138.394 C 1550 137.744, 1548.786 138.079, 1542.500 140.463 M 2311.083 140.348 C 2311.561 140.747, 2320.283 144.617, 2337.500 152.070 C 2351.717 158.224, 2390.750 177.265, 2407 185.973 C 2424.342 195.267, 2444.931 207.080, 2445.560 208.097 C 2445.867 208.594, 2446.568 209, 2447.118 209 C 2450.265 209, 2442.510 204.009, 2424.628 194.526 C 2419.748 191.939, 2412.544 187.949, 2408.619 185.661 C 2398.744 179.903, 2361.399 161.423, 2344.500 153.930 C 2316.382 141.464, 2312.947 140, 2311.817 140 C 2311.184 140, 2310.854 140.157, 2311.083 140.348 M 1831 155.018 C 1817.525 156.575, 1803.350 158.146, 1799.500 158.510 C 1788.327 159.567, 1770.917 161.749, 1770.534 162.141 C 1770.230 162.452, 1767.007 241.389, 1765.496 285.500 C 1764.813 305.457, 1764.076 325.051, 1763.502 338.500 C 1761.864 376.929, 1759.855 436.189, 1760.180 436.481 C 1760.356 436.639, 1767.475 435.763, 1776 434.533 C 1784.525 433.304, 1800.388 431.027, 1811.250 429.472 L 1831 426.645 1831.009 424.072 C 1831.014 422.658, 1832.115 393.600, 1833.455 359.500 C 1834.795 325.400, 1836.193 287.375, 1836.562 275 C 1836.931 262.625, 1837.541 250.700, 1837.918 248.500 L 1838.603 244.500 1842.219 255 C 1844.208 260.775, 1847.215 269.325, 1848.901 274 C 1850.587 278.675, 1861.664 310.175, 1873.517 344 C 1885.370 377.825, 1896.780 410.225, 1898.873 416 L 1902.679 426.500 1928.072 426.500 L 1953.466 426.500 1957.215 416 C 1959.277 410.225, 1970.661 377.825, 1982.513 344 C 2016.441 247.168, 2017.400 244.581, 2018.116 247.989 C 2018.454 249.601, 2019.030 261.176, 2019.396 273.710 C 2019.762 286.245, 2020.260 301.225, 2020.503 307 C 2020.746 312.775, 2021.187 324.475, 2021.484 333 C 2021.781 341.525, 2022.236 353, 2022.495 358.500 C 2022.753 364, 2023.203 375.475, 2023.494 384 C 2023.785 392.525, 2024.297 405.612, 2024.631 413.082 L 2025.239 426.664 2044.370 429.414 C 2054.891 430.926, 2069.800 433.037, 2077.500 434.105 C 2085.200 435.173, 2092.568 436.284, 2093.873 436.573 L 2096.247 437.100 2095.600 421.300 C 2095.244 412.610, 2094.732 399.200, 2094.462 391.500 C 2094.192 383.800, 2093.312 360.175, 2092.507 339 C 2091.702 317.825, 2090.801 293.300, 2090.504 284.500 C 2089.927 267.435, 2087.481 203.832, 2086.401 177.802 L 2085.749 162.104 2083.124 161.589 C 2080.800 161.133, 2069.155 159.802, 2056 158.489 C 2053.525 158.242, 2041.600 156.926, 2029.500 155.565 C 2017.400 154.204, 2004.533 152.800, 2000.906 152.445 L 1994.312 151.800 1990.749 162.150 C 1988.789 167.843, 1982.187 187.125, 1976.079 205 C 1969.970 222.875, 1961.412 247.850, 1957.062 260.500 C 1952.712 273.150, 1944.506 297.109, 1938.826 313.742 C 1933.147 330.376, 1928.274 343.988, 1927.998 343.992 C 1927.722 343.997, 1922.864 330.387, 1917.203 313.750 C 1911.541 297.113, 1903.338 273.150, 1898.973 260.500 C 1894.609 247.850, 1886.038 222.875, 1879.926 205 C 1859.494 145.238, 1862.210 151.986, 1858.628 152.094 C 1856.908 152.146, 1844.475 153.462, 1831 155.018 M 1396.500 215.087 C 1381.809 223.933, 1369.034 232.389, 1369.016 233.280 C 1369.007 233.710, 1372.263 231.879, 1376.250 229.212 C 1380.237 226.545, 1388.787 221.101, 1395.250 217.114 C 1405.142 211.011, 1408.239 208.835, 1406.750 209.033 C 1406.612 209.052, 1402 211.776, 1396.500 215.087 M 2449 209.351 C 2449 209.633, 2454.287 213.129, 2460.750 217.118 C 2467.213 221.108, 2477.675 227.817, 2484 232.027 C 2498.908 241.950, 2504 245.137, 2504 244.544 C 2504 243.888, 2494.130 236.665, 2490.841 234.915 C 2489.378 234.137, 2484.428 230.998, 2479.841 227.940 C 2475.253 224.882, 2467.900 220.216, 2463.500 217.572 C 2459.100 214.928, 2454.037 211.881, 2452.250 210.801 C 2450.463 209.721, 2449 209.068, 2449 209.351 M 1364.500 235.530 C 1362.850 236.346, 1359.025 238.894, 1356 241.193 C 1352.975 243.491, 1346.975 247.776, 1342.668 250.715 C 1329.416 259.757, 1296.671 284.625, 1293.500 288.055 C 1291.850 289.839, 1295.918 287.070, 1302.540 281.900 C 1309.162 276.730, 1315.912 271.496, 1317.540 270.269 C 1323.856 265.507, 1356.797 242.108, 1362.250 238.511 C 1365.412 236.424, 1368 234.556, 1368 234.358 C 1368 233.832, 1367.787 233.904, 1364.500 235.530 M 2505.047 245.776 C 2505.072 246.174, 2509.661 249.650, 2515.245 253.500 C 2526.623 261.346, 2546.665 276.277, 2558 285.352 C 2562.461 288.924, 2564.285 290.031, 2562.500 288.085 C 2557.155 282.254, 2504.919 243.788, 2505.047 245.776 M 1256.878 318.266 C 1252.687 322.245, 1243.237 331.095, 1235.878 337.934 C 1215.042 357.299, 1200 371.952, 1200 372.884 C 1200 373.352, 1196.287 377.257, 1191.750 381.562 C 1187.213 385.867, 1183.040 390.191, 1182.477 391.171 C 1181.612 392.679, 1177.166 397.603, 1161.295 414.634 C 1160.083 415.935, 1159.461 417, 1159.913 417 C 1160.365 417, 1168.398 408.563, 1177.764 398.250 C 1197.219 376.829, 1233.036 341.234, 1253.243 323.239 C 1260.802 316.508, 1266.427 311.007, 1265.743 311.016 C 1265.060 311.025, 1261.070 314.287, 1256.878 318.266 M 2599.153 319.988 C 2625.856 343.659, 2663.557 381.347, 2686.853 407.660 C 2691.800 413.247, 2696.044 417.623, 2696.284 417.383 C 2696.833 416.833, 2693.606 413.085, 2683.639 402.695 C 2679.316 398.188, 2675.041 393.355, 2674.139 391.955 C 2673.238 390.555, 2669.012 386.110, 2664.750 382.078 C 2660.488 378.045, 2657 374.384, 2657 373.942 C 2657 371.935, 2593.116 311.806, 2590.295 311.158 C 2589.475 310.970, 2593.461 314.943, 2599.153 319.988 M 2526.329 366.760 C 2524.685 368.817, 2519.077 376.125, 2513.868 383 C 2508.659 389.875, 2489.146 415.525, 2470.506 440 C 2451.866 464.475, 2432.343 490.125, 2427.123 497 C 2419.166 507.479, 2383.722 554.004, 2368.330 574.174 L 2364 579.849 2389.392 603.410 L 2414.785 626.971 2427.643 621.128 C 2453.920 609.186, 2464.066 604.551, 2487 594.013 C 2509.590 583.633, 2552.550 563.945, 2564 558.725 C 2567.025 557.346, 2575.059 553.665, 2581.854 550.546 C 2588.648 547.426, 2594.414 545.080, 2594.666 545.332 C 2594.918 545.584, 2587.559 555.697, 2578.312 567.804 C 2569.065 579.911, 2548.900 606.367, 2533.500 626.596 C 2518.100 646.824, 2498.819 672.127, 2490.652 682.826 C 2477.834 699.618, 2475.938 702.565, 2476.777 704.388 C 2478.307 707.711, 2509.018 760.396, 2510.011 761.400 C 2511.148 762.551, 2518.530 759.281, 2602.500 720.434 C 2621.200 711.783, 2640.775 702.815, 2646 700.506 C 2651.225 698.197, 2664.275 692.234, 2675 687.255 C 2685.725 682.277, 2703.050 674.302, 2713.500 669.534 C 2723.950 664.765, 2738.392 658.159, 2745.593 654.853 L 2758.686 648.843 2751.499 636.671 C 2747.546 629.977, 2740.132 617.268, 2735.024 608.429 C 2729.915 599.590, 2725.181 591.600, 2724.503 590.674 C 2723.381 589.139, 2722.217 589.488, 2711.386 594.612 C 2704.849 597.704, 2692.300 603.494, 2683.500 607.479 C 2674.700 611.463, 2656.475 619.797, 2643 625.999 C 2611.818 640.349, 2581.762 654, 2581.349 654 C 2580.709 654, 2610.112 615.125, 2666.246 541.753 C 2680.397 523.257, 2681.976 520.810, 2680.809 519.188 C 2680.089 518.188, 2670.105 505.650, 2658.623 491.327 L 2637.746 465.285 2624.623 471.242 C 2612.015 476.965, 2572.497 495.112, 2532.500 513.545 C 2494.146 531.222, 2486 534.881, 2486 534.436 C 2486 533.783, 2494.104 522.917, 2515.106 495.407 C 2525.223 482.156, 2540.475 462.144, 2549 450.935 C 2557.525 439.726, 2568.052 425.898, 2572.394 420.206 L 2580.289 409.857 2576.894 406.765 C 2575.027 405.064, 2564.273 395.084, 2552.996 384.586 C 2541.718 374.089, 2531.777 364.942, 2530.905 364.260 C 2529.566 363.213, 2528.852 363.603, 2526.329 366.760 M 1305.516 396.590 C 1293.317 399.325, 1279.501 406.809, 1272.500 414.476 C 1271.400 415.681, 1245.273 448.129, 1214.439 486.583 C 1183.605 525.037, 1151.543 564.999, 1143.189 575.387 C 1134.835 585.774, 1128.035 594.549, 1128.079 594.887 C 1128.173 595.619, 1340.401 765.300, 1341.811 765.770 C 1342.563 766.021, 1414.912 677.109, 1424.500 664.151 C 1426.221 661.825, 1459.122 620.747, 1481.888 592.500 C 1491.942 580.025, 1497.747 570.387, 1501.347 560.194 C 1504.204 552.104, 1504.415 550.562, 1504.382 538 C 1504.351 526.131, 1504.026 523.525, 1501.688 516.434 C 1493.015 490.122, 1471.743 470.656, 1445.952 465.430 C 1426.237 461.435, 1403.381 466.586, 1386.627 478.799 C 1382.742 481.631, 1381.868 481.961, 1382.317 480.426 C 1384.519 472.902, 1385.089 468.832, 1385.074 460.724 C 1385.053 449.462, 1383.260 442.115, 1377.824 431.012 C 1374.542 424.311, 1371.966 420.836, 1365.584 414.498 C 1356.798 405.774, 1349.772 401.507, 1338.500 398.047 C 1329.102 395.162, 1314.723 394.527, 1305.516 396.590 M 1136.531 444.741 C 1135.024 446.249, 1127.922 455.362, 1120.749 464.991 C 1113.577 474.621, 1107.099 483, 1106.354 483.610 C 1105.609 484.221, 1105 485.233, 1105 485.860 C 1105 486.487, 1104.550 487, 1104 487 C 1103.450 487, 1103 487.481, 1103 488.070 C 1103 489.199, 1097.920 496.926, 1095.699 499.175 C 1093.499 501.402, 1086 512.823, 1086 513.945 C 1086 514.525, 1085.657 515, 1085.237 515 C 1084.818 515, 1084.030 515.852, 1083.487 516.893 C 1081.902 519.934, 1070.619 537.083, 1069.250 538.533 C 1068.563 539.261, 1068 540.302, 1068 540.845 C 1068 541.389, 1067.658 541.983, 1067.241 542.167 C 1066.824 542.350, 1065.260 544.882, 1063.766 547.793 C 1059.985 555.164, 1061.901 553.467, 1066.944 544.978 C 1079.392 524.024, 1110.145 479.839, 1128.351 456.750 C 1134.748 448.637, 1139.822 442, 1139.627 442 C 1139.432 442, 1138.039 443.234, 1136.531 444.741 M 2727.087 456 C 2750.826 486.154, 2787.069 539.549, 2803.449 568.500 C 2805.005 571.250, 2808.955 578.225, 2812.227 584 C 2827.214 610.450, 2847.181 651.013, 2860.120 681.296 C 2863.458 689.108, 2866.371 695.687, 2866.594 695.917 C 2867.720 697.073, 2867.770 695.106, 2866.670 692.954 C 2865.980 691.604, 2864.789 688.925, 2864.023 687 C 2863.258 685.075, 2860.419 678.775, 2857.714 673 C 2855.010 667.225, 2851.303 658.900, 2849.478 654.500 C 2845.724 645.454, 2821.907 598.101, 2819.102 594.108 C 2818.095 592.673, 2815.023 587.225, 2812.275 582 C 2806.252 570.547, 2802.239 563.691, 2796.369 554.828 C 2793.939 551.159, 2791.468 546.771, 2790.877 545.078 C 2790.287 543.385, 2789.398 542, 2788.902 542 C 2788.406 542, 2788 541.362, 2788 540.583 C 2788 539.804, 2787.662 539.017, 2787.250 538.833 C 2786.838 538.650, 2784.052 534.675, 2781.059 530 C 2778.066 525.325, 2774.800 520.567, 2773.800 519.426 C 2772.800 518.285, 2772.286 517.048, 2772.658 516.676 C 2773.029 516.304, 2772.808 516, 2772.167 516 C 2771.525 516, 2771 515.572, 2771 515.048 C 2771 514.053, 2762.501 501.473, 2760.276 499.175 C 2758.027 496.852, 2753 489.180, 2753 488.070 C 2753 487.481, 2752.550 487, 2752 487 C 2751.450 487, 2751 486.487, 2751 485.860 C 2751 485.233, 2750.402 484.221, 2749.671 483.610 C 2748.939 483, 2742.302 474.466, 2734.921 464.648 C 2719.881 444.642, 2720.218 445.063, 2717.586 443 C 2716.533 442.175, 2720.809 448.025, 2727.087 456 M 1302.332 465.790 C 1299.490 466.806, 1295.588 468.840, 1293.661 470.310 C 1290.745 472.534, 1212.914 568.677, 1212.302 570.810 C 1212.138 571.383, 1251.889 603.624, 1257.904 607.796 C 1259.618 608.986, 1262.962 605.111, 1298.470 560.796 C 1319.753 534.233, 1338.346 510.250, 1339.786 507.500 C 1341.977 503.318, 1342.406 501.191, 1342.406 494.500 C 1342.406 487.793, 1341.976 485.671, 1339.748 481.372 C 1338.286 478.551, 1335.610 474.764, 1333.801 472.955 C 1326.214 465.368, 1312.346 462.211, 1302.332 465.790 M 1898 468.248 C 1897.725 468.515, 1891.524 469.032, 1884.221 469.398 C 1839.770 471.625, 1779.280 483.655, 1732 499.671 C 1673.261 519.569, 1612.676 551.394, 1563.467 588.202 C 1520.593 620.271, 1481.056 658.715, 1447.591 700.874 C 1394.862 767.304, 1355.028 848.328, 1335.138 929.609 C 1329.558 952.414, 1328.290 958.157, 1326.110 970.500 C 1313.055 1044.411, 1313.779 1126.634, 1328.108 1197.500 C 1348.410 1297.903, 1389.800 1385.945, 1453.864 1465 C 1500.346 1522.359, 1559.542 1572.541, 1625 1610.076 C 1641.330 1619.440, 1680.614 1638.731, 1695 1644.450 C 1700.225 1646.528, 1706.566 1649.058, 1709.092 1650.073 C 1757.814 1669.662, 1829.112 1685.425, 1884 1688.744 C 1900.233 1689.726, 1954.810 1689.718, 1971.531 1688.731 C 1986.197 1687.866, 2007.712 1685.540, 2019.676 1683.526 C 2020.872 1683.324, 2025.372 1682.630, 2029.676 1681.983 C 2045.553 1679.596, 2077.740 1672.249, 2098 1666.386 C 2120.512 1659.871, 2124.967 1658.346, 2155.500 1646.703 C 2167.076 1642.288, 2183.509 1634.787, 2203 1625.019 C 2360.993 1545.839, 2478.576 1399.095, 2520.962 1228.201 C 2526.639 1205.312, 2529.806 1189.625, 2532.511 1171 C 2537.829 1134.379, 2538.438 1125.090, 2538.470 1080 C 2538.501 1036.638, 2538.075 1028.924, 2533.896 997 C 2526.308 939.048, 2508.439 876.937, 2484.666 825.880 C 2475.867 806.984, 2473.522 802.299, 2465.205 787 C 2414.489 693.711, 2338.119 613.120, 2248.366 558.177 C 2175.227 513.404, 2096.238 485.069, 2012.500 473.566 C 2002.600 472.207, 1990.900 470.816, 1986.500 470.476 C 1982.100 470.137, 1977.150 469.639, 1975.500 469.372 C 1971.371 468.701, 1898.621 467.647, 1898 468.248 M 1919.669 498.621 C 1919.576 498.690, 1914.056 499.029, 1907.403 499.373 C 1879.188 500.834, 1857.700 503.787, 1819 511.521 C 1817.625 511.796, 1815.150 512.259, 1813.500 512.551 C 1796.669 515.524, 1741.303 532.321, 1726.689 538.888 C 1724.385 539.923, 1716.650 543.248, 1709.500 546.277 C 1660.296 567.118, 1616.428 593.200, 1574.261 626.683 C 1516.738 672.361, 1469.614 725.747, 1432.753 787 C 1414.253 817.742, 1399.353 848.402, 1384.886 885.500 C 1377.379 904.751, 1362.959 954.168, 1360.667 968.500 C 1360.403 970.150, 1359.488 974.875, 1358.633 979 C 1353.683 1002.875, 1349.544 1034.731, 1348.432 1057.500 C 1348.137 1063.550, 1347.723 1070.862, 1347.511 1073.750 L 1347.127 1079 1637.564 1079 L 1928 1079 1928 1369.525 L 1928 1660.050 1934.250 1659.575 C 1937.688 1659.313, 1945.225 1658.821, 1951 1658.480 C 1961.361 1657.869, 1963.687 1657.681, 1975.500 1656.505 C 2002.526 1653.815, 2035.627 1647.586, 2071 1638.536 C 2087.700 1634.263, 2124.923 1621.074, 2146.500 1611.784 C 2241.527 1570.872, 2321.333 1509.031, 2384.965 1427 C 2438.874 1357.503, 2478.625 1271.470, 2495.856 1187 C 2501.772 1157.998, 2506.267 1125.449, 2507.526 1102.500 C 2507.858 1096.450, 2508.289 1088.688, 2508.485 1085.250 L 2508.841 1079 2218.420 1079 L 1928 1079 1928 788.649 L 1928 498.299 1923.919 498.397 C 1921.674 498.451, 1919.762 498.552, 1919.669 498.621 M 1396.308 527.880 C 1393.452 528.942, 1389.522 531.026, 1387.575 532.511 C 1384.297 535.011, 1301.588 637.305, 1300.453 640.262 C 1299.808 641.943, 1346.778 679.648, 1347.949 678.389 C 1349.745 676.457, 1429.655 576.300, 1431.750 573.354 C 1434.970 568.827, 1437.337 558.747, 1436.503 553.113 C 1433.635 533.742, 1413.885 521.344, 1396.308 527.880 M 1040.890 587.250 C 1039.707 589.587, 1037.913 592.673, 1036.903 594.108 C 1034.108 598.077, 1010.293 645.414, 1006.520 654.500 C 1004.693 658.900, 1001.128 666.890, 998.599 672.256 C 996.070 677.622, 994 682.208, 994 682.446 C 994 682.685, 992.682 685.714, 991.071 689.178 C 989.461 692.642, 988.336 695.669, 988.571 695.905 C 989.287 696.620, 989.600 695.995, 995.880 681.296 C 1007.732 653.557, 1024.934 618.237, 1040.221 590.250 C 1042.399 586.263, 1043.924 583, 1043.611 583 C 1043.297 583, 1042.073 584.913, 1040.890 587.250 M 978.262 722.205 C 974.973 730.617, 971.556 739.750, 970.670 742.500 C 969.784 745.250, 966.540 755.150, 963.463 764.500 C 958.846 778.528, 953.277 796.368, 950.352 806.500 C 949.957 807.869, 950.103 808.185, 950.816 807.500 C 951.388 806.950, 953.481 800.875, 955.466 794 C 959.967 778.414, 974.352 735.474, 980.405 719.557 C 982.903 712.988, 984.789 707.456, 984.595 707.262 C 984.402 707.069, 981.552 713.793, 978.262 722.205 M 2871.528 708.500 C 2871.901 709.600, 2875.254 718.825, 2878.979 729 C 2886.456 749.426, 2896.089 778.529, 2900.991 795.500 C 2902.738 801.550, 2904.631 806.950, 2905.196 807.500 C 2905.895 808.180, 2906.040 807.859, 2905.648 806.500 C 2902.723 796.368, 2897.154 778.528, 2892.537 764.500 C 2889.460 755.150, 2886.216 745.250, 2885.329 742.500 C 2883.093 735.569, 2873.020 709.830, 2871.827 708 C 2871.079 706.852, 2871.008 706.970, 2871.528 708.500 M 943.049 836.254 C 936.708 861.992, 931.716 885.050, 932.349 885.682 C 932.991 886.325, 933.501 884.402, 936.479 870.085 C 937.900 863.257, 940.443 851.864, 942.130 844.768 C 943.817 837.671, 945.005 831.672, 944.770 831.436 C 944.534 831.201, 943.760 833.369, 943.049 836.254 M 2911.089 831.642 C 2911.040 832.271, 2912.328 838.346, 2913.952 845.142 C 2915.575 851.939, 2918.074 863.125, 2919.504 870 C 2922.499 884.402, 2923.008 886.325, 2923.651 885.682 C 2923.908 885.425, 2922.971 879.878, 2921.567 873.357 C 2916.529 849.948, 2911.289 829.087, 2911.089 831.642 M 923.521 939.250 C 921.265 946.016, 914.954 1014.854, 915.154 1030.500 L 915.295 1041.500 916.111 1026 C 917.133 1006.599, 920.547 968.711, 922.848 951.250 C 924.449 939.101, 924.626 935.933, 923.521 939.250 M 2932.091 940.500 C 2932.054 941.600, 2932.883 949.475, 2933.934 958 C 2936.284 977.064, 2938.855 1006.523, 2939.910 1026.500 L 2940.703 1041.500 2940.845 1030.500 C 2941.003 1018.226, 2938.115 982.171, 2934.957 957 C 2932.899 940.593, 2932.219 936.679, 2932.091 940.500 M 915.154 1127.500 C 914.996 1139.867, 917.997 1177.189, 921.003 1200.244 C 922.097 1208.635, 923.030 1216.400, 923.075 1217.500 C 923.121 1218.600, 923.377 1218.961, 923.645 1218.302 C 923.913 1217.642, 923.218 1209.542, 922.101 1200.302 C 919.561 1179.291, 917.186 1152.188, 916.116 1132 L 915.295 1116.500 915.154 1127.500 M 2939.737 1133 C 2938.893 1151.269, 2935.842 1185.853, 2933.408 1204.746 C 2932.541 1211.481, 2932.058 1217.556, 2932.336 1218.246 C 2932.615 1218.936, 2932.879 1218.600, 2932.925 1217.500 C 2932.970 1216.400, 2933.905 1208.614, 2935.003 1200.198 C 2938.095 1176.487, 2941.103 1138.342, 2940.786 1126.868 C 2940.513 1116.974, 2940.465 1117.254, 2939.737 1133 M 932.030 1272.670 C 931.975 1274.805, 940.966 1314.439, 942.880 1320.500 C 944.925 1326.973, 943.823 1320.525, 940.127 1304.400 C 937.997 1295.105, 935.682 1284.575, 934.982 1281 C 933.779 1274.859, 932.097 1270.111, 932.030 1272.670 M 2922.643 1273.675 C 2922.347 1274.679, 2920.962 1280.987, 2919.567 1287.694 C 2918.172 1294.400, 2915.899 1304.678, 2914.515 1310.532 C 2912.022 1321.083, 2911.295 1326.275, 2913.120 1320.500 C 2915.780 1312.079, 2924.352 1273.018, 2923.686 1272.353 C 2923.409 1272.076, 2922.940 1272.671, 2922.643 1273.675 M 950.397 1351.750 C 950.690 1352.713, 952.496 1358.675, 954.411 1365 C 958.201 1377.516, 961.279 1385.973, 960.600 1382 C 959.657 1376.488, 951.450 1350, 950.685 1350 C 950.234 1350, 950.105 1350.787, 950.397 1351.750 M 2901.621 1360.250 C 2898.054 1373.278, 2881.591 1422.769, 2875.610 1438.443 C 2873.104 1445.012, 2871.211 1450.544, 2871.405 1450.738 C 2871.803 1451.137, 2882.872 1423.130, 2885.330 1415.500 C 2886.216 1412.750, 2889.460 1402.850, 2892.537 1393.500 C 2895.615 1384.150, 2899.694 1371.325, 2901.602 1365 C 2903.509 1358.675, 2905.310 1352.713, 2905.603 1351.750 C 2905.895 1350.787, 2905.751 1350, 2905.281 1350 C 2904.812 1350, 2903.165 1354.612, 2901.621 1360.250 M 961 1385.484 C 961 1385.934, 962.826 1391.747, 965.058 1398.401 C 967.289 1405.055, 969.827 1412.750, 970.698 1415.500 C 973.025 1422.852, 984.185 1451.148, 984.595 1450.738 C 984.789 1450.544, 982.974 1445.186, 980.563 1438.831 C 978.151 1432.475, 972.970 1417.895, 969.048 1406.430 C 962.430 1387.082, 961 1383.361, 961 1385.484 M 988.275 1462.750 C 989.394 1464.882, 993 1473.041, 993 1473.438 C 993 1473.691, 995.296 1478.759, 998.101 1484.699 C 1000.907 1490.640, 1004.697 1499.100, 1006.522 1503.500 C 1010.366 1512.763, 1033.044 1557.650, 1038.352 1566.500 C 1043.893 1575.740, 1044.478 1576.222, 1040.172 1568 C 1018.736 1527.070, 1007.291 1503.448, 995.481 1475.750 C 992.257 1468.188, 989.228 1462, 988.750 1462 C 988.273 1462, 988.059 1462.338, 988.275 1462.750 M 2860.537 1475.750 C 2845.050 1512.200, 2823.824 1554.389, 2802.803 1590.500 C 2795.014 1603.881, 2794.553 1604.778, 2796.898 1602 C 2799.455 1598.972, 2806.771 1586.562, 2812.815 1575 C 2815.260 1570.325, 2818.086 1565.327, 2819.096 1563.892 C 2821.895 1559.920, 2845.709 1512.581, 2849.478 1503.500 C 2851.303 1499.100, 2855.010 1490.775, 2857.714 1485 C 2860.419 1479.225, 2863.245 1472.925, 2863.994 1471 C 2864.743 1469.075, 2865.951 1466.612, 2866.678 1465.527 C 2868.184 1463.280, 2868.370 1462, 2867.189 1462 C 2866.744 1462, 2863.750 1468.188, 2860.537 1475.750 M 1044.915 1578.250 C 1046.038 1581.172, 1054.013 1594.674, 1059.635 1603.172 C 1062.063 1606.841, 1064.532 1611.229, 1065.123 1612.922 C 1065.713 1614.615, 1066.602 1616, 1067.098 1616 C 1067.594 1616, 1068 1616.638, 1068 1617.417 C 1068 1618.196, 1068.338 1618.983, 1068.750 1619.167 C 1069.162 1619.350, 1071.948 1623.325, 1074.941 1628 C 1077.934 1632.675, 1081.200 1637.433, 1082.200 1638.574 C 1083.200 1639.715, 1083.714 1640.952, 1083.342 1641.324 C 1082.971 1641.696, 1083.192 1642, 1083.833 1642 C 1084.475 1642, 1085 1642.428, 1085 1642.952 C 1085 1643.947, 1093.499 1656.527, 1095.724 1658.825 C 1097.973 1661.148, 1103 1668.820, 1103 1669.930 C 1103 1670.519, 1103.450 1671, 1104 1671 C 1104.550 1671, 1105 1671.513, 1105 1672.140 C 1105 1672.767, 1105.609 1673.779, 1106.354 1674.390 C 1107.099 1675, 1113.736 1683.536, 1121.104 1693.359 C 1136.028 1713.255, 1135.755 1712.914, 1138.406 1715 C 1139.454 1715.825, 1134.702 1709.300, 1127.846 1700.500 C 1101.119 1666.194, 1072.298 1623.423, 1049.513 1584.250 C 1044.639 1575.871, 1043.356 1574.196, 1044.915 1578.250 M 2788.390 1614.250 C 2768.522 1645.999, 2741.764 1683.955, 2721.596 1709 C 2718.274 1713.125, 2716.443 1715.825, 2717.528 1715 C 2720.316 1712.879, 2720.057 1713.200, 2735.363 1692.893 C 2742.988 1682.777, 2749.626 1674.350, 2750.113 1674.167 C 2750.601 1673.983, 2751 1673.196, 2751 1672.417 C 2751 1671.638, 2751.450 1671, 2752 1671 C 2752.550 1671, 2753 1670.519, 2753 1669.930 C 2753 1668.826, 2758.010 1661.171, 2760.268 1658.825 C 2762.736 1656.261, 2771 1644.129, 2771 1643.071 C 2771 1642.482, 2771.525 1642, 2772.167 1642 C 2772.808 1642, 2773.029 1641.696, 2772.658 1641.324 C 2772.286 1640.952, 2772.800 1639.715, 2773.800 1638.574 C 2774.800 1637.433, 2778.066 1632.675, 2781.059 1628 C 2784.052 1623.325, 2786.838 1619.350, 2787.250 1619.167 C 2787.662 1618.983, 2788 1618.233, 2788 1617.500 C 2788 1616.767, 2788.342 1616.017, 2788.759 1615.833 C 2789.565 1615.479, 2795.158 1605, 2794.542 1605 C 2794.342 1605, 2791.574 1609.162, 2788.390 1614.250 M 1161.865 1744.055 C 1163.314 1745.736, 1168.037 1750.798, 1172.361 1755.305 C 1176.684 1759.812, 1180.959 1764.641, 1181.861 1766.036 C 1182.762 1767.430, 1187.213 1772.103, 1191.750 1776.418 C 1196.287 1780.734, 1200 1784.688, 1200 1785.204 C 1200 1785.720, 1200.563 1786.680, 1201.250 1787.336 C 1240.720 1825.017, 1264.547 1847, 1265.917 1847 C 1266.506 1847, 1260.802 1841.493, 1253.243 1834.763 C 1233.003 1816.741, 1196.137 1780.093, 1177.280 1759.250 C 1168.199 1749.213, 1160.423 1741, 1160 1741 C 1159.577 1741, 1160.416 1742.375, 1161.865 1744.055 M 2678.712 1759.250 C 2659.665 1780.293, 2622.729 1817.022, 2602.757 1834.780 C 2595.198 1841.501, 2589.585 1847, 2590.283 1847 C 2590.982 1847, 2593.342 1845.190, 2595.527 1842.979 C 2597.712 1840.767, 2602.650 1836.230, 2606.500 1832.897 C 2618.145 1822.814, 2657 1785.209, 2657 1784.021 C 2657 1783.559, 2660.825 1779.602, 2665.500 1775.228 C 2670.175 1770.854, 2674.001 1766.876, 2674.001 1766.388 C 2674.002 1765.899, 2677.939 1761.362, 2682.751 1756.305 C 2693.661 1744.839, 2696.984 1741, 2696 1741 C 2695.577 1741, 2687.798 1749.213, 2678.712 1759.250 M 1293.500 1869.945 C 1298.435 1875.284, 1352.512 1915.256, 1350.589 1912.144 C 1350.281 1911.646, 1343.386 1906.437, 1335.265 1900.569 C 1316.436 1886.961, 1316.801 1887.233, 1302.540 1876.100 C 1295.918 1870.930, 1291.850 1868.161, 1293.500 1869.945 M 2561 1870.096 C 2542.931 1885.661, 2493.568 1920.536, 2460.750 1940.922 C 2454.287 1944.937, 2449 1948.433, 2449 1948.692 C 2449 1948.951, 2450.463 1948.279, 2452.250 1947.199 C 2454.037 1946.119, 2459.100 1943.072, 2463.500 1940.428 C 2467.900 1937.784, 2475.268 1933.118, 2479.874 1930.060 C 2484.480 1927.002, 2490.050 1923.494, 2492.253 1922.265 C 2494.455 1921.036, 2498.111 1918.512, 2500.378 1916.656 C 2502.645 1914.801, 2508.325 1910.683, 2513 1907.506 C 2533.065 1893.872, 2567.851 1866.770, 2564.937 1867.041 C 2564.697 1867.063, 2562.925 1868.438, 2561 1870.096 M 1352 1913.409 C 1352 1914.102, 1361.751 1921.271, 1365.159 1923.085 C 1366.622 1923.863, 1371.572 1927.002, 1376.159 1930.060 C 1380.747 1933.118, 1388.100 1937.784, 1392.500 1940.428 C 1396.900 1943.072, 1401.963 1946.119, 1403.750 1947.199 C 1405.537 1948.279, 1407 1948.932, 1407 1948.649 C 1407 1948.367, 1401.713 1944.870, 1395.250 1940.880 C 1388.787 1936.889, 1376.975 1929.291, 1369 1923.995 C 1352.183 1912.828, 1352 1912.714, 1352 1913.409 M 1409.891 1951.058 C 1411.206 1952.153, 1416.156 1955.138, 1420.891 1957.692 C 1425.626 1960.246, 1434.675 1965.262, 1441 1968.839 C 1452.473 1975.328, 1498.859 1999, 1500.100 1999 C 1500.460 1999, 1508.798 2002.658, 1518.627 2007.129 C 1536.371 2015.200, 1549.049 2020.284, 1549.731 2019.603 C 1549.926 2019.407, 1547.029 2018.029, 1543.293 2016.539 C 1539.557 2015.050, 1535.150 2013.234, 1533.500 2012.504 C 1531.850 2011.774, 1523.525 2008.115, 1515 2004.374 C 1495.363 1995.757, 1447.661 1971.706, 1430 1961.517 C 1422.575 1957.234, 1415.271 1953.087, 1413.770 1952.301 C 1412.268 1951.516, 1410.779 1950.452, 1410.461 1949.937 C 1410.142 1949.422, 1409.346 1949.015, 1408.691 1949.033 C 1408.036 1949.052, 1408.576 1949.963, 1409.891 1951.058 M 2443.500 1951.434 C 2408.931 1971.735, 2369.401 1992.058, 2337.500 2005.930 C 2313.582 2016.330, 2311.127 2017.460, 2311.543 2017.876 C 2311.988 2018.322, 2329.782 2011.250, 2331.500 2009.944 C 2332.050 2009.526, 2338.350 2006.635, 2345.500 2003.520 C 2360.944 1996.791, 2401 1977.001, 2409.500 1971.899 C 2412.800 1969.919, 2419.550 1966.154, 2424.500 1963.534 C 2437.010 1956.910, 2446.787 1951.153, 2447.509 1949.985 C 2448.335 1948.648, 2448.094 1948.735, 2443.500 1951.434 M 1561.133 2024.390 C 1562.807 2026.265, 1608.824 2042.509, 1609.773 2041.560 C 1609.962 2041.371, 1605.478 2039.637, 1599.808 2037.706 C 1590.304 2034.469, 1567.181 2026.254, 1562.500 2024.452 C 1561.400 2024.028, 1560.785 2024, 1561.133 2024.390 M 2263.227 2035.212 C 2252.076 2039.103, 2243.102 2042.436, 2243.284 2042.618 C 2244.028 2043.361, 2283.299 2029.949, 2284.917 2028.399 C 2285.945 2027.414, 2282.219 2028.584, 2263.227 2035.212 M 2219.109 2049.549 C 2201.338 2054.767, 2195.493 2056.989, 2203.217 2055.594 C 2206.998 2054.910, 2233.851 2046.626, 2237.500 2045.017 C 2241.787 2043.127, 2236.775 2044.362, 2219.109 2049.549 M 1635.802 2050.556 C 1648.841 2054.843, 1657.105 2056.919, 1655.886 2055.602 C 1655.179 2054.838, 1625.004 2045.990, 1623.500 2046.106 C 1622.950 2046.148, 1628.486 2048.151, 1635.802 2050.556 M 1688.500 2064.597 C 1698.338 2067.387, 1729.439 2074.143, 1734.422 2074.572 C 1737.215 2074.813, 1731.147 2073.239, 1720.937 2071.074 C 1710.727 2068.909, 1698.727 2066.207, 1694.270 2065.069 C 1685.214 2062.757, 1680.714 2062.389, 1688.500 2064.597 M 2161.500 2065.084 C 2159.850 2065.585, 2150.625 2067.641, 2141 2069.652 C 2119.226 2074.201, 2115.671 2075.138, 2122.892 2074.425 C 2125.858 2074.133, 2135.983 2072.124, 2145.392 2069.962 C 2164.364 2065.603, 2169.580 2064.172, 2166.500 2064.172 C 2165.400 2064.172, 2163.150 2064.582, 2161.500 2065.084 M 1803 2085.266 C 1803.701 2085.977, 1828.953 2088.711, 1851.329 2090.497 C 1868.532 2091.870, 1890.929 2092.528, 1889.917 2091.631 C 1889.688 2091.427, 1882.525 2090.969, 1874 2090.612 C 1860.419 2090.042, 1831.153 2087.806, 1821 2086.562 C 1812.478 2085.517, 1802.543 2084.802, 1803 2085.266 M 2043.729 2085.581 C 2043.603 2085.694, 2040.350 2086.067, 2036.500 2086.410 C 2032.650 2086.753, 2028.375 2087.214, 2027 2087.435 C 2025.625 2087.655, 2020 2088.168, 2014.500 2088.576 C 2009 2088.983, 2003.600 2089.419, 2002.500 2089.545 C 2001.400 2089.672, 1992.625 2090.104, 1983 2090.507 C 1973.375 2090.910, 1965.312 2091.411, 1965.083 2091.620 C 1964.080 2092.535, 1987.435 2091.873, 2004.671 2090.497 C 2026.161 2088.781, 2052.271 2085.988, 2052.974 2085.329 C 2053.427 2084.905, 2044.203 2085.156, 2043.729 2085.581" stroke="none" fill="#fafafa" fill-rule="evenodd"/><path d="M 1898.874 66.459 C 1898.633 66.700, 1893.594 66.974, 1887.675 67.069 C 1842.599 67.789, 1765.110 77.499, 1715.500 88.644 C 1706.700 90.621, 1697.700 92.613, 1695.500 93.071 C 1683.170 95.638, 1656.408 102.817, 1634.500 109.435 C 1613.095 115.901, 1576.975 128.118, 1570.500 131.083 C 1569.400 131.586, 1566.025 132.836, 1563 133.859 C 1543.330 140.516, 1486.372 166.670, 1452.026 184.817 C 1376.698 224.619, 1297.260 281.437, 1236.502 338.972 C 1160.267 411.164, 1105.657 479.799, 1050.299 573 C 1043.075 585.162, 1030.807 608.289, 1019.002 632 C 976.329 717.709, 945.060 814.725, 929.079 911 C 923.671 943.577, 919.812 977.087, 916.814 1017.500 C 915.155 1039.868, 915.155 1118.132, 916.814 1140.500 C 923.383 1229.042, 935.616 1296.857, 959.040 1374.572 C 971.860 1417.105, 992.230 1470.552, 1008.749 1505 C 1035.930 1561.683, 1054.623 1594.772, 1086.108 1641.937 C 1129.390 1706.772, 1175.982 1761.683, 1236 1818.588 C 1295.211 1874.728, 1374.737 1931.987, 1447.297 1970.722 C 1467.576 1981.548, 1508.998 2001.821, 1520.117 2006.361 C 1524.728 2008.244, 1534.350 2012.335, 1541.500 2015.451 C 1548.650 2018.567, 1558.775 2022.632, 1564 2024.484 C 1569.225 2026.337, 1580.774 2030.542, 1589.664 2033.830 C 1603.751 2039.039, 1613.548 2042.161, 1654.500 2054.496 C 1662.651 2056.951, 1688.253 2063.491, 1695.500 2064.968 C 1697.700 2065.417, 1706.700 2067.385, 1715.500 2069.342 C 1764.168 2080.163, 1824.796 2088.062, 1879.500 2090.707 C 1896.001 2091.505, 1947.698 2091.736, 1968 2091.103 C 2017.728 2089.551, 2087.902 2080.831, 2138.500 2069.914 C 2152.046 2066.992, 2154.957 2066.317, 2163.500 2064.122 C 2165.700 2063.556, 2169.075 2062.826, 2171 2062.499 C 2178.311 2061.257, 2202.968 2054.292, 2234.500 2044.561 C 2256.040 2037.914, 2298.699 2022.394, 2315 2015.274 C 2321.875 2012.271, 2330.650 2008.552, 2334.500 2007.008 C 2354.615 1998.942, 2410.517 1970.570, 2436.304 1955.339 C 2525.516 1902.644, 2596.417 1846.097, 2668.185 1770.400 C 2691.120 1746.209, 2721.339 1709.898, 2743.418 1680 C 2760.714 1656.579, 2792.906 1607.823, 2802.281 1590.850 C 2803.693 1588.292, 2805.931 1584.467, 2807.253 1582.350 C 2811.517 1575.521, 2826.727 1546.666, 2837.590 1524.793 C 2861.141 1477.375, 2881.875 1424.813, 2897.436 1373.082 C 2920.363 1296.865, 2932.669 1228.310, 2939.186 1140.500 C 2940.850 1118.089, 2940.838 1041.036, 2939.168 1017.500 C 2930.329 892.960, 2904.374 784.245, 2857.758 676.500 C 2843.747 644.116, 2820.563 598.021, 2805.701 573 C 2755.515 488.506, 2707.802 426.506, 2644.078 362.979 C 2613.204 332.200, 2592.614 313.662, 2562.500 289.531 C 2523.402 258.202, 2480.130 228.398, 2436.660 202.859 C 2423.474 195.112, 2389.761 176.930, 2379.891 172.243 C 2376.376 170.574, 2366.808 165.969, 2358.628 162.010 C 2350.449 158.051, 2338.074 152.431, 2331.128 149.521 C 2324.183 146.611, 2312.919 141.889, 2306.097 139.028 C 2299.275 136.167, 2292.975 133.659, 2292.097 133.454 C 2291.219 133.249, 2281.434 129.738, 2270.354 125.651 C 2243.902 115.896, 2186.661 98.421, 2172 95.626 C 2170.625 95.363, 2166.575 94.479, 2163 93.661 C 2140.632 88.539, 2122.066 84.668, 2105 81.568 C 2075.820 76.268, 2023.280 70.001, 1995 68.446 C 1988.675 68.099, 1982.375 67.611, 1981 67.362 C 1977.670 66.759, 1899.434 65.899, 1898.874 66.459 M 1876.500 88.082 C 1822.223 91.032, 1774.450 97.221, 1723.494 107.904 C 1691.123 114.691, 1685.277 116.173, 1646 127.553 C 1577.872 147.292, 1499.971 180.394, 1439 215.512 C 1431.575 219.789, 1423.648 224.329, 1421.385 225.601 C 1412.713 230.475, 1388.744 245.808, 1371 257.832 C 1256.988 335.092, 1158.232 437.827, 1084.666 555.701 C 1038.198 630.157, 998.689 719.088, 974.473 803.738 C 959.613 855.680, 947.959 913.018, 942.507 961 C 942.164 964.025, 941.695 968.075, 941.466 970 C 935.054 1023.838, 934.331 1120.247, 939.947 1172.500 C 940.479 1177.450, 941.171 1184.200, 941.484 1187.500 C 942.671 1199.990, 945.521 1220.202, 949.593 1245 C 963.385 1329.006, 991.178 1418.612, 1027.444 1496 C 1044.145 1531.636, 1066.886 1573.890, 1084.764 1602.500 C 1150.871 1708.293, 1236.699 1801.376, 1337.111 1876.178 C 1350.902 1886.452, 1387.440 1911.494, 1400.500 1919.623 C 1478.509 1968.180, 1563.725 2006.651, 1646 2030.455 C 1685.486 2041.879, 1691.158 2043.317, 1723.494 2050.096 C 1769.338 2059.707, 1805.353 2064.682, 1861 2069.091 C 1878.539 2070.480, 1961.570 2071.104, 1979 2069.977 C 2031.014 2066.613, 2055.505 2063.896, 2097 2056.884 C 2119.546 2053.074, 2161.850 2043.997, 2178.500 2039.397 C 2233.795 2024.119, 2263.324 2014.199, 2305.723 1996.653 C 2344.090 1980.777, 2385.060 1960.836, 2417 1942.492 C 2424.425 1938.228, 2433.200 1933.193, 2436.500 1931.304 C 2451.924 1922.473, 2497.504 1892.107, 2517 1877.672 C 2565.278 1841.928, 2615.324 1797.340, 2652.992 1756.509 C 2741.649 1660.408, 2802.774 1563.521, 2852.675 1440 C 2864.594 1410.498, 2883.132 1351.791, 2891.932 1315.682 C 2901.511 1276.379, 2911.408 1220.199, 2914.516 1187.500 C 2914.829 1184.200, 2915.500 1177.450, 2916.006 1172.500 C 2916.948 1163.295, 2917.297 1158.177, 2919.003 1128.500 C 2921.110 1091.855, 2919.607 1020.053, 2915.988 984.500 C 2913.633 961.359, 2913.169 957.555, 2910.446 939 C 2902.907 887.630, 2894.910 850.231, 2881.434 803.318 C 2860.016 728.764, 2829.068 655.829, 2789.094 585.701 C 2733.208 487.659, 2657.506 396.706, 2570.205 322.713 C 2538.053 295.461, 2514.927 277.993, 2480.218 254.741 C 2450.073 234.546, 2447.852 233.153, 2424 219.481 C 2351.733 178.057, 2272.339 144.470, 2199.500 124.506 C 2190.150 121.944, 2179.575 118.991, 2176 117.946 C 2167.363 115.419, 2155.818 112.774, 2130.500 107.521 C 2082.006 97.460, 2039.045 91.771, 1987.500 88.587 C 1963.862 87.127, 1899.465 86.834, 1876.500 88.082 M 1876.500 102.051 C 1849.801 103.726, 1843.921 104.175, 1830.500 105.565 C 1724.576 116.535, 1625.253 142.812, 1530.744 184.869 C 1339.481 269.980, 1182.364 412.364, 1077.069 596 C 1040.861 659.146, 1012.648 725.908, 988.111 806.500 C 973.479 854.561, 960.416 922.838, 954.534 982 C 953.687 990.525, 952.776 999.429, 952.511 1001.787 C 949.833 1025.577, 949.845 1132.341, 952.529 1156.343 C 952.784 1158.629, 953.690 1167.475, 954.541 1176 C 969.012 1320.924, 1014.227 1457.642, 1088.812 1582 C 1145.605 1676.694, 1217.153 1759.928, 1304.152 1832.513 C 1414.809 1924.836, 1548.515 1992.615, 1689.500 2027.857 C 1768.971 2047.723, 1844.853 2057.009, 1927.500 2056.982 C 1980.260 2056.965, 2025.024 2053.739, 2073.588 2046.454 C 2160.489 2033.417, 2245.287 2008.754, 2324.585 1973.452 C 2521.087 1885.973, 2681.938 1738.075, 2786.211 1549 C 2814.545 1497.622, 2841.585 1435.011, 2858.334 1382 C 2869.101 1347.922, 2871.030 1341.283, 2876.059 1321 C 2888.903 1269.210, 2896.459 1226.070, 2901.459 1176 C 2902.310 1167.475, 2903.218 1158.616, 2903.476 1156.313 C 2905.450 1138.682, 2906.242 1055.184, 2904.736 1023.355 C 2902.024 966.004, 2891.270 896.580, 2875.405 834 C 2865.490 794.893, 2847.181 740.422, 2831.035 702 C 2802.376 633.798, 2766.322 569.151, 2724.300 510.620 C 2690.720 463.847, 2661.042 428.961, 2619.537 387.474 C 2569.692 337.649, 2521.266 298.090, 2464.500 260.822 C 2331.627 173.590, 2179.081 120.080, 2020.500 105.074 C 2007.624 103.855, 2000.397 103.333, 1978 102 C 1959.265 100.885, 1894.576 100.918, 1876.500 102.051 M 1858 151.768 C 1856.075 151.925, 1842.575 153.396, 1828 155.037 C 1813.425 156.678, 1799.700 158.211, 1797.500 158.443 C 1778.129 160.487, 1771.403 161.355, 1770.823 161.883 C 1770.059 162.579, 1769.289 173.651, 1768.520 195 C 1768.233 202.975, 1767.556 221.650, 1767.015 236.500 C 1766.474 251.350, 1765.797 270.250, 1765.510 278.500 C 1765.223 286.750, 1764.075 317.350, 1762.959 346.500 C 1761.843 375.650, 1760.608 407.938, 1760.215 418.251 C 1759.696 431.860, 1759.807 437.001, 1760.621 437.001 C 1763.108 436.999, 1830.108 427.051, 1830.892 426.567 C 1831.356 426.280, 1832.056 414.447, 1832.446 400.272 C 1832.836 386.098, 1833.320 373.150, 1833.521 371.500 C 1833.722 369.850, 1834.148 357.925, 1834.468 345 C 1834.787 332.075, 1835.253 318.350, 1835.503 314.500 C 1835.754 310.650, 1836.200 298.275, 1836.495 287 C 1836.790 275.725, 1837.307 261.822, 1837.645 256.105 C 1838.220 246.360, 1838.340 245.904, 1839.567 248.820 C 1841.478 253.367, 1847.315 269.878, 1870.032 335 C 1876.589 353.797, 1890.722 393.954, 1898.628 416.250 L 1902.439 427 1928 427 L 1953.561 427 1957.384 416.250 C 1964.328 396.726, 1979.071 354.817, 1985.966 335 C 1989.698 324.275, 1995.098 308.975, 1997.965 301 C 2000.833 293.025, 2004.291 283.125, 2005.648 279 C 2007.006 274.875, 2010.225 265.650, 2012.801 258.500 L 2017.486 245.500 2018.112 252.500 C 2018.457 256.350, 2019.032 270.300, 2019.391 283.500 C 2019.749 296.700, 2020.248 310.650, 2020.500 314.500 C 2020.751 318.350, 2021.214 330.500, 2021.529 341.500 C 2021.844 352.500, 2022.522 371.400, 2023.037 383.500 C 2023.552 395.600, 2023.979 410.086, 2023.987 415.691 C 2023.994 421.296, 2024.440 426.154, 2024.977 426.486 C 2026.375 427.350, 2094.211 437.133, 2095.466 436.652 C 2096.188 436.374, 2096.150 426.760, 2095.343 405.376 C 2092.834 338.896, 2091.956 316.091, 2091.516 306 C 2091.264 300.225, 2090.792 287.625, 2090.467 278 C 2088.344 215.142, 2086.012 162.624, 2085.316 161.999 C 2084.616 161.370, 2078.296 160.532, 2058.500 158.443 C 2055.326 158.108, 2012.065 153.269, 1997.342 151.602 L 1994.185 151.245 1989.116 165.872 C 1983.033 183.428, 1952.927 271.464, 1938.470 313.971 C 1932.770 330.730, 1927.856 343.780, 1927.549 342.971 C 1926.867 341.170, 1901.760 267.873, 1878.965 201.136 C 1869.692 173.985, 1861.969 151.707, 1861.802 151.627 C 1861.636 151.548, 1859.925 151.611, 1858 151.768 M 2514.800 381.321 C 2490.624 413.149, 2449.108 467.667, 2438.514 481.500 C 2433.038 488.650, 2422.694 502.241, 2415.529 511.702 C 2408.363 521.164, 2394.400 539.526, 2384.500 552.509 C 2374.600 565.491, 2365.918 576.933, 2365.208 577.936 C 2364.042 579.582, 2365.948 581.660, 2384.708 599.200 C 2396.143 609.893, 2407.641 620.582, 2410.257 622.954 L 2415.013 627.267 2421.257 624.469 C 2424.691 622.931, 2431.775 619.672, 2437 617.229 C 2442.225 614.785, 2451 610.761, 2456.500 608.286 C 2468.100 603.067, 2487.788 594.041, 2532.500 573.445 C 2589.271 547.294, 2594.333 545, 2594.620 545.286 C 2594.775 545.442, 2587.008 555.903, 2577.360 568.534 C 2567.712 581.165, 2554.702 598.250, 2548.449 606.500 C 2534.562 624.823, 2500.332 669.834, 2485.847 688.821 L 2475.193 702.784 2486.203 721.642 C 2499.304 744.082, 2508.687 760.027, 2509.805 761.748 C 2510.572 762.929, 2518.169 759.818, 2544 747.745 C 2561.954 739.354, 2594.095 724.492, 2597.500 723.007 C 2601.439 721.289, 2646.876 700.467, 2674.785 687.591 C 2682.641 683.966, 2689.228 681, 2689.422 681 C 2689.616 681, 2694.438 678.807, 2700.137 676.126 C 2709.129 671.897, 2718.967 667.379, 2737 659.199 C 2760.086 648.728, 2759.343 649.173, 2757.759 646.745 C 2756.954 645.510, 2749.405 632.575, 2740.984 618 C 2732.563 603.425, 2725.151 590.921, 2724.513 590.213 C 2723.310 588.876, 2722.902 589.026, 2704 597.739 C 2700.425 599.387, 2695.250 601.743, 2692.500 602.974 C 2687.107 605.389, 2665.109 615.473, 2634 629.789 C 2604.708 643.269, 2583.098 653, 2582.453 653 C 2581.922 653, 2590.876 641.080, 2621.513 601 C 2628.029 592.475, 2640.172 576.500, 2648.496 565.500 C 2656.821 554.500, 2667.775 540.113, 2672.838 533.530 C 2677.902 526.946, 2681.825 520.987, 2681.557 520.288 C 2680.374 517.206, 2637.600 464.944, 2636.607 465.368 C 2633.840 466.547, 2605.876 479.438, 2600.500 482.012 C 2597.200 483.593, 2589.100 487.330, 2582.500 490.318 C 2575.900 493.306, 2556.550 502.169, 2539.500 510.014 C 2500.595 527.916, 2486.767 534.110, 2486.474 533.769 C 2486.348 533.621, 2496.652 519.907, 2509.372 503.293 C 2522.092 486.679, 2537.675 466.271, 2544 457.942 C 2550.325 449.612, 2561.012 435.586, 2567.750 426.771 C 2574.488 417.956, 2580 410.434, 2580 410.055 C 2580 409.391, 2570.387 400.235, 2542.434 374.276 L 2529.368 362.142 2514.800 381.321 M 1304.225 396.522 C 1296.013 398.305, 1284.949 403.759, 1277.652 409.620 C 1273.466 412.983, 1253.158 437.589, 1206.152 496.255 C 1130.667 590.465, 1127.841 594.049, 1128.219 595.078 C 1128.852 596.801, 1342.416 766.978, 1343.055 766.269 C 1343.437 765.846, 1372.731 729.275, 1408.154 685 C 1443.577 640.725, 1476.416 599.741, 1481.131 593.924 C 1491.543 581.080, 1497.413 571.400, 1501.324 560.628 C 1505.145 550.106, 1506.149 533.222, 1503.563 523 C 1496.044 493.287, 1476.434 472.818, 1448.520 465.547 C 1440.172 463.373, 1423.389 463.536, 1414.500 465.879 C 1404.438 468.531, 1395.763 472.304, 1388.802 477.055 C 1383.201 480.878, 1382.779 481.016, 1383.321 478.849 C 1389.321 454.855, 1383.278 431.715, 1366.579 414.743 C 1350.719 398.624, 1326.771 391.625, 1304.225 396.522 M 1304.500 465.449 C 1298.210 467.360, 1294.853 469.475, 1289.864 474.672 C 1284.188 480.584, 1213 569.573, 1213 570.756 C 1213 571.898, 1259.006 608.601, 1259.842 608.125 C 1260.204 607.919, 1277.837 586.085, 1299.027 559.606 C 1324.152 528.210, 1338.328 509.666, 1339.777 506.296 C 1343.791 496.967, 1342.361 484.095, 1336.450 476.346 C 1333.446 472.407, 1326.125 467.204, 1321.696 465.859 C 1316.611 464.315, 1308.840 464.130, 1304.500 465.449 M 1901.819 468.090 C 1806.066 471.875, 1714.285 497.772, 1630 544.788 C 1523.178 604.377, 1435.523 696.063, 1380.752 805.500 C 1373.156 820.679, 1361.114 848.200, 1356.031 862 C 1353.701 868.325, 1350.762 876.200, 1349.499 879.500 C 1346.904 886.285, 1340.376 907.777, 1336.590 922 C 1327.884 954.713, 1320.579 997.184, 1318.532 1027 C 1318.211 1031.675, 1317.682 1038.650, 1317.355 1042.500 C 1316.537 1052.157, 1316.562 1103.290, 1317.390 1115.500 C 1323.141 1200.238, 1341.675 1271.241, 1377.459 1345.624 C 1430.009 1454.855, 1517.504 1548.801, 1622.921 1609.182 C 1715.244 1662.064, 1811.819 1688.545, 1919 1690.366 C 1976.146 1691.337, 2032.583 1684.443, 2086.500 1669.904 C 2108.623 1663.938, 2117.017 1661.341, 2132 1655.824 C 2170.099 1641.795, 2193.991 1630.975, 2225.899 1613.299 C 2314.367 1564.292, 2391.895 1490.667, 2446.292 1404 C 2475.843 1356.918, 2500.675 1301.639, 2515.482 1249.973 C 2529.904 1199.652, 2537.762 1150.311, 2539.050 1102 C 2540.589 1044.280, 2536.667 998.653, 2525.914 949.198 C 2520.412 923.894, 2509.409 885.179, 2504.917 875.319 C 2503.863 873.004, 2503 870.710, 2503 870.221 C 2503 869.732, 2500.718 863.520, 2497.930 856.416 C 2445.817 723.666, 2349.329 613.373, 2224.624 544.009 C 2199.449 530.007, 2164.005 513.655, 2141.358 505.596 C 2135.936 503.667, 2128.353 500.911, 2124.506 499.472 C 2111.561 494.630, 2076.274 485, 2055 480.505 C 2006.681 470.294, 1954.027 466.026, 1901.819 468.090 M 1393.500 529.394 C 1390.750 530.700, 1386.419 533.958, 1383.875 536.634 C 1381.331 539.311, 1362.881 561.910, 1342.875 586.855 C 1302.706 636.941, 1299.578 640.932, 1300.124 641.412 C 1300.331 641.594, 1311 650.111, 1323.834 660.340 L 1347.168 678.938 1390.111 625.281 C 1437.754 565.750, 1436.725 567.355, 1435.772 554.075 C 1434.972 542.937, 1429.696 535.003, 1419.800 530.058 C 1411.678 525.999, 1401.205 525.735, 1393.500 529.394" stroke="none" fill="#151515" fill-rule="evenodd"/></svg>